<svg width="32" height="31" viewBox="0 0 32 31" fill="none" xmlns="http://www.w3.org/2000/svg">
<path d="M31.81 30.4018C31.81 30.4018 31.81 28.4613 31.087 25.874C30.2116 22.7396 28.1952 20.6992 23.8575 20.6992C20.2427 20.6992 13.0132 20.6992 7.9525 20.6992C3.61477 20.6992 1.59838 22.7396 0.722955 25.874C0 28.4613 0 30.4018 0 30.4018H31.81Z" fill="#24354E"/>
<path d="M8.67529 7.7621C8.67529 10.1713 9.06504 12.813 10.1212 14.2305C11.4668 16.0371 13.7487 16.8179 15.9048 16.8179C18.1429 16.8179 20.3414 16.0371 21.6885 14.2305C22.744 12.813 23.1344 10.1713 23.1344 7.7621C23.1344 5.95515 22.4114 0 15.9048 0C9.39825 0 8.67529 4.75054 8.67529 7.7621Z" fill="#24354E"/>
<mask id="path-3-inside-1_58_425" fill="white">
<path d="M31.81 29.755C31.81 29.755 31.81 28.4613 31.087 25.874C30.2116 22.7396 28.1952 20.6992 23.8575 20.6992C20.2427 20.6992 13.0132 20.6992 7.9525 20.6992C3.61477 20.6992 1.59838 22.7396 0.722955 25.874C0 28.4613 0 29.755 0 29.755"/>
</mask>
<path d="M31.81 29.755C31.81 29.755 31.81 28.4613 31.087 25.874C30.2116 22.7396 28.1952 20.6992 23.8575 20.6992C20.2427 20.6992 13.0132 20.6992 7.9525 20.6992C3.61477 20.6992 1.59838 22.7396 0.722955 25.874C0 28.4613 0 29.755 0 29.755" fill="#24354E"/>
<path d="M30.31 29.755C30.31 30.5834 30.9816 31.255 31.81 31.255C32.6384 31.255 33.31 30.5834 33.31 29.755H30.31ZM31.087 25.874L29.6423 26.2775L29.6424 26.2776L31.087 25.874ZM0.722955 25.874L2.16762 26.2776L2.16766 26.2775L0.722955 25.874ZM-1.5 29.755C-1.5 30.5834 -0.828427 31.255 0 31.255C0.828427 31.255 1.5 30.5834 1.5 29.755H-1.5ZM31.81 29.755C33.31 29.755 33.31 29.7546 33.31 29.7542C33.31 29.754 33.31 29.7536 33.31 29.7533C33.31 29.7527 33.31 29.7521 33.31 29.7515C33.31 29.7502 33.31 29.7489 33.31 29.7475C33.31 29.7447 33.3099 29.7416 33.3099 29.7381C33.3099 29.7312 33.3098 29.7231 33.3096 29.7136C33.3093 29.6948 33.3087 29.6709 33.3077 29.642C33.3057 29.5841 33.3019 29.5061 33.2951 29.4079C33.2813 29.2115 33.2551 28.9346 33.2052 28.5772C33.1053 27.8623 32.9107 26.8265 32.5317 25.4703L29.6424 26.2776C29.9864 27.5087 30.1532 28.4135 30.2341 28.9923C30.2745 29.2817 30.2935 29.49 30.3023 29.617C30.3068 29.6805 30.3087 29.7237 30.3095 29.7467C30.3099 29.7582 30.31 29.7647 30.3101 29.766C30.3101 29.7667 30.31 29.7661 30.31 29.7643C30.31 29.7634 30.31 29.7622 30.31 29.7606C30.31 29.7598 30.31 29.759 30.31 29.758C30.31 29.7576 30.31 29.7571 30.31 29.7566C30.31 29.7563 30.31 29.7559 30.31 29.7558C30.31 29.7554 30.31 29.755 31.81 29.755ZM32.5318 25.4704C32.0376 23.7013 31.1772 22.0865 29.6934 20.9286C28.2056 19.7676 26.262 19.1992 23.8575 19.1992V22.1992C25.7907 22.1992 27.0242 22.651 27.8478 23.2937C28.6755 23.9396 29.261 24.9122 29.6423 26.2775L32.5318 25.4704ZM23.8575 19.1992C23.8504 19.1992 23.8434 19.1992 23.8363 19.1992C23.8292 19.1992 23.8221 19.1992 23.815 19.1992C23.8079 19.1992 23.8007 19.1992 23.7936 19.1992C23.7864 19.1992 23.7793 19.1992 23.7721 19.1992C23.7649 19.1992 23.7578 19.1992 23.7506 19.1992C23.7434 19.1992 23.7362 19.1992 23.7289 19.1992C23.7217 19.1992 23.7145 19.1992 23.7072 19.1992C23.7 19.1992 23.6927 19.1992 23.6854 19.1992C23.6782 19.1992 23.6709 19.1992 23.6636 19.1992C23.6563 19.1992 23.6489 19.1992 23.6416 19.1992C23.6343 19.1992 23.6269 19.1992 23.6196 19.1992C23.6122 19.1992 23.6048 19.1992 23.5975 19.1992C23.5901 19.1992 23.5827 19.1992 23.5753 19.1992C23.5678 19.1992 23.5604 19.1992 23.553 19.1992C23.5455 19.1992 23.5381 19.1992 23.5306 19.1992C23.5232 19.1992 23.5157 19.1992 23.5082 19.1992C23.5007 19.1992 23.4932 19.1992 23.4857 19.1992C23.4782 19.1992 23.4706 19.1992 23.4631 19.1992C23.4556 19.1992 23.448 19.1992 23.4404 19.1992C23.4329 19.1992 23.4253 19.1992 23.4177 19.1992C23.4101 19.1992 23.4025 19.1992 23.3949 19.1992C23.3872 19.1992 23.3796 19.1992 23.372 19.1992C23.3643 19.1992 23.3567 19.1992 23.349 19.1992C23.3413 19.1992 23.3336 19.1992 23.3259 19.1992C23.3182 19.1992 23.3105 19.1992 23.3028 19.1992C23.2951 19.1992 23.2874 19.1992 23.2796 19.1992C23.2719 19.1992 23.2641 19.1992 23.2563 19.1992C23.2485 19.1992 23.2408 19.1992 23.233 19.1992C23.2252 19.1992 23.2174 19.1992 23.2095 19.1992C23.2017 19.1992 23.1939 19.1992 23.186 19.1992C23.1782 19.1992 23.1703 19.1992 23.1624 19.1992C23.1546 19.1992 23.1467 19.1992 23.1388 19.1992C23.1309 19.1992 23.123 19.1992 23.115 19.1992C23.1071 19.1992 23.0992 19.1992 23.0912 19.1992C23.0833 19.1992 23.0753 19.1992 23.0674 19.1992C23.0594 19.1992 23.0514 19.1992 23.0434 19.1992C23.0354 19.1992 23.0274 19.1992 23.0194 19.1992C23.0114 19.1992 23.0033 19.1992 22.9953 19.1992C22.9872 19.1992 22.9792 19.1992 22.9711 19.1992C22.963 19.1992 22.955 19.1992 22.9469 19.1992C22.9388 19.1992 22.9307 19.1992 22.9225 19.1992C22.9144 19.1992 22.9063 19.1992 22.8981 19.1992C22.89 19.1992 22.8818 19.1992 22.8737 19.1992C22.8655 19.1992 22.8573 19.1992 22.8491 19.1992C22.841 19.1992 22.8328 19.1992 22.8245 19.1992C22.8163 19.1992 22.8081 19.1992 22.7999 19.1992C22.7916 19.1992 22.7834 19.1992 22.7751 19.1992C22.7669 19.1992 22.7586 19.1992 22.7503 19.1992C22.742 19.1992 22.7337 19.1992 22.7254 19.1992C22.7171 19.1992 22.7088 19.1992 22.7005 19.1992C22.6921 19.1992 22.6838 19.1992 22.6754 19.1992C22.6671 19.1992 22.6587 19.1992 22.6503 19.1992C22.6419 19.1992 22.6336 19.1992 22.6252 19.1992C22.6168 19.1992 22.6083 19.1992 22.5999 19.1992C22.5915 19.1992 22.5831 19.1992 22.5746 19.1992C22.5662 19.1992 22.5577 19.1992 22.5492 19.1992C22.5408 19.1992 22.5323 19.1992 22.5238 19.1992C22.5153 19.1992 22.5068 19.1992 22.4983 19.1992C22.4898 19.1992 22.4812 19.1992 22.4727 19.1992C22.4642 19.1992 22.4556 19.1992 22.4471 19.1992C22.4385 19.1992 22.4299 19.1992 22.4214 19.1992C22.4128 19.1992 22.4042 19.1992 22.3956 19.1992C22.387 19.1992 22.3784 19.1992 22.3697 19.1992C22.3611 19.1992 22.3525 19.1992 22.3438 19.1992C22.3352 19.1992 22.3265 19.1992 22.3178 19.1992C22.3092 19.1992 22.3005 19.1992 22.2918 19.1992C22.2831 19.1992 22.2744 19.1992 22.2657 19.1992C22.257 19.1992 22.2482 19.1992 22.2395 19.1992C22.2308 19.1992 22.222 19.1992 22.2133 19.1992C22.2045 19.1992 22.1957 19.1992 22.187 19.1992C22.1782 19.1992 22.1694 19.1992 22.1606 19.1992C22.1518 19.1992 22.143 19.1992 22.1341 19.1992C22.1253 19.1992 22.1165 19.1992 22.1077 19.1992C22.0988 19.1992 22.09 19.1992 22.0811 19.1992C22.0722 19.1992 22.0633 19.1992 22.0545 19.1992C22.0456 19.1992 22.0367 19.1992 22.0278 19.1992C22.0189 19.1992 22.0099 19.1992 22.001 19.1992C21.9921 19.1992 21.9832 19.1992 21.9742 19.1992C21.9653 19.1992 21.9563 19.1992 21.9473 19.1992C21.9384 19.1992 21.9294 19.1992 21.9204 19.1992C21.9114 19.1992 21.9024 19.1992 21.8934 19.1992C21.8844 19.1992 21.8753 19.1992 21.8663 19.1992C21.8573 19.1992 21.8482 19.1992 21.8392 19.1992C21.8301 19.1992 21.8211 19.1992 21.812 19.1992C21.8029 19.1992 21.7938 19.1992 21.7848 19.1992C21.7757 19.1992 21.7666 19.1992 21.7574 19.1992C21.7483 19.1992 21.7392 19.1992 21.7301 19.1992C21.7209 19.1992 21.7118 19.1992 21.7026 19.1992C21.6935 19.1992 21.6843 19.1992 21.6752 19.1992C21.666 19.1992 21.6568 19.1992 21.6476 19.1992C21.6384 19.1992 21.6292 19.1992 21.62 19.1992C21.6108 19.1992 21.6016 19.1992 21.5923 19.1992C21.5831 19.1992 21.5739 19.1992 21.5646 19.1992C21.5553 19.1992 21.5461 19.1992 21.5368 19.1992C21.5275 19.1992 21.5183 19.1992 21.509 19.1992C21.4997 19.1992 21.4904 19.1992 21.4811 19.1992C21.4718 19.1992 21.4624 19.1992 21.4531 19.1992C21.4438 19.1992 21.4344 19.1992 21.4251 19.1992C21.4157 19.1992 21.4064 19.1992 21.397 19.1992C21.3876 19.1992 21.3783 19.1992 21.3689 19.1992C21.3595 19.1992 21.3501 19.1992 21.3407 19.1992C21.3313 19.1992 21.3219 19.1992 21.3124 19.1992C21.303 19.1992 21.2936 19.1992 21.2841 19.1992C21.2747 19.1992 21.2652 19.1992 21.2558 19.1992C21.2463 19.1992 21.2369 19.1992 21.2274 19.1992C21.2179 19.1992 21.2084 19.1992 21.1989 19.1992C21.1894 19.1992 21.1799 19.1992 21.1704 19.1992C21.1609 19.1992 21.1513 19.1992 21.1418 19.1992C21.1323 19.1992 21.1227 19.1992 21.1132 19.1992C21.1036 19.1992 21.094 19.1992 21.0845 19.1992C21.0749 19.1992 21.0653 19.1992 21.0557 19.1992C21.0461 19.1992 21.0365 19.1992 21.0269 19.1992C21.0173 19.1992 21.0077 19.1992 20.9981 19.1992C20.9884 19.1992 20.9788 19.1992 20.9692 19.1992C20.9595 19.1992 20.9499 19.1992 20.9402 19.1992C20.9305 19.1992 20.9209 19.1992 20.9112 19.1992C20.9015 19.1992 20.8918 19.1992 20.8821 19.1992C20.8724 19.1992 20.8627 19.1992 20.853 19.1992C20.8433 19.1992 20.8336 19.1992 20.8238 19.1992C20.8141 19.1992 20.8044 19.1992 20.7946 19.1992C20.7849 19.1992 20.7751 19.1992 20.7654 19.1992C20.7556 19.1992 20.7458 19.1992 20.736 19.1992C20.7262 19.1992 20.7165 19.1992 20.7067 19.1992C20.6969 19.1992 20.687 19.1992 20.6772 19.1992C20.6674 19.1992 20.6576 19.1992 20.6478 19.1992C20.6379 19.1992 20.6281 19.1992 20.6182 19.1992C20.6084 19.1992 20.5985 19.1992 20.5886 19.1992C20.5788 19.1992 20.5689 19.1992 20.559 19.1992C20.5491 19.1992 20.5392 19.1992 20.5293 19.1992C20.5194 19.1992 20.5095 19.1992 20.4996 19.1992C20.4897 19.1992 20.4798 19.1992 20.4698 19.1992C20.4599 19.1992 20.45 19.1992 20.44 19.1992C20.4301 19.1992 20.4201 19.1992 20.4101 19.1992C20.4002 19.1992 20.3902 19.1992 20.3802 19.1992C20.3702 19.1992 20.3602 19.1992 20.3503 19.1992C20.3403 19.1992 20.3302 19.1992 20.3202 19.1992C20.3102 19.1992 20.3002 19.1992 20.2902 19.1992C20.2801 19.1992 20.2701 19.1992 20.2601 19.1992C20.25 19.1992 20.24 19.1992 20.2299 19.1992C20.2198 19.1992 20.2098 19.1992 20.1997 19.1992C20.1896 19.1992 20.1795 19.1992 20.1694 19.1992C20.1593 19.1992 20.1492 19.1992 20.1391 19.1992C20.129 19.1992 20.1189 19.1992 20.1088 19.1992C20.0987 19.1992 20.0885 19.1992 20.0784 19.1992C20.0683 19.1992 20.0581 19.1992 20.048 19.1992C20.0378 19.1992 20.0277 19.1992 20.0175 19.1992C20.0073 19.1992 19.9971 19.1992 19.987 19.1992C19.9768 19.1992 19.9666 19.1992 19.9564 19.1992C19.9462 19.1992 19.936 19.1992 19.9258 19.1992C19.9156 19.1992 19.9053 19.1992 19.8951 19.1992C19.8849 19.1992 19.8746 19.1992 19.8644 19.1992C19.8542 19.1992 19.8439 19.1992 19.8337 19.1992C19.8234 19.1992 19.8131 19.1992 19.8029 19.1992C19.7926 19.1992 19.7823 19.1992 19.772 19.1992C19.7617 19.1992 19.7515 19.1992 19.7412 19.1992C19.7309 19.1992 19.7206 19.1992 19.7102 19.1992C19.6999 19.1992 19.6896 19.1992 19.6793 19.1992C19.6689 19.1992 19.6586 19.1992 19.6483 19.1992C19.6379 19.1992 19.6276 19.1992 19.6172 19.1992C19.6069 19.1992 19.5965 19.1992 19.5861 19.1992C19.5758 19.1992 19.5654 19.1992 19.555 19.1992C19.5446 19.1992 19.5342 19.1992 19.5238 19.1992C19.5134 19.1992 19.503 19.1992 19.4926 19.1992C19.4822 19.1992 19.4718 19.1992 19.4614 19.1992C19.451 19.1992 19.4405 19.1992 19.4301 19.1992C19.4196 19.1992 19.4092 19.1992 19.3988 19.1992C19.3883 19.1992 19.3778 19.1992 19.3674 19.1992C19.3569 19.1992 19.3464 19.1992 19.336 19.1992C19.3255 19.1992 19.315 19.1992 19.3045 19.1992C19.294 19.1992 19.2835 19.1992 19.273 19.1992C19.2625 19.1992 19.252 19.1992 19.2415 19.1992C19.231 19.1992 19.2205 19.1992 19.2099 19.1992C19.1994 19.1992 19.1889 19.1992 19.1783 19.1992C19.1678 19.1992 19.1572 19.1992 19.1467 19.1992C19.1361 19.1992 19.1256 19.1992 19.115 19.1992C19.1044 19.1992 19.0939 19.1992 19.0833 19.1992C19.0727 19.1992 19.0621 19.1992 19.0515 19.1992C19.0409 19.1992 19.0303 19.1992 19.0197 19.1992C19.0091 19.1992 18.9985 19.1992 18.9879 19.1992C18.9773 19.1992 18.9667 19.1992 18.956 19.1992C18.9454 19.1992 18.9348 19.1992 18.9241 19.1992C18.9135 19.1992 18.9028 19.1992 18.8922 19.1992C18.8815 19.1992 18.8709 19.1992 18.8602 19.1992C18.8496 19.1992 18.8389 19.1992 18.8282 19.1992C18.8175 19.1992 18.8069 19.1992 18.7962 19.1992C18.7855 19.1992 18.7748 19.1992 18.7641 19.1992C18.7534 19.1992 18.7427 19.1992 18.732 19.1992C18.7213 19.1992 18.7105 19.1992 18.6998 19.1992C18.6891 19.1992 18.6784 19.1992 18.6676 19.1992C18.6569 19.1992 18.6462 19.1992 18.6354 19.1992C18.6247 19.1992 18.6139 19.1992 18.6032 19.1992C18.5924 19.1992 18.5817 19.1992 18.5709 19.1992C18.5601 19.1992 18.5494 19.1992 18.5386 19.1992C18.5278 19.1992 18.517 19.1992 18.5062 19.1992C18.4954 19.1992 18.4846 19.1992 18.4738 19.1992C18.463 19.1992 18.4522 19.1992 18.4414 19.1992C18.4306 19.1992 18.4198 19.1992 18.409 19.1992C18.3982 19.1992 18.3873 19.1992 18.3765 19.1992C18.3657 19.1992 18.3548 19.1992 18.344 19.1992C18.3332 19.1992 18.3223 19.1992 18.3115 19.1992C18.3006 19.1992 18.2897 19.1992 18.2789 19.1992C18.268 19.1992 18.2572 19.1992 18.2463 19.1992C18.2354 19.1992 18.2245 19.1992 18.2136 19.1992C18.2028 19.1992 18.1919 19.1992 18.181 19.1992C18.1701 19.1992 18.1592 19.1992 18.1483 19.1992C18.1374 19.1992 18.1265 19.1992 18.1156 19.1992C18.1047 19.1992 18.0937 19.1992 18.0828 19.1992C18.0719 19.1992 18.061 19.1992 18.05 19.1992C18.0391 19.1992 18.0282 19.1992 18.0172 19.1992C18.0063 19.1992 17.9953 19.1992 17.9844 19.1992C17.9734 19.1992 17.9625 19.1992 17.9515 19.1992C17.9406 19.1992 17.9296 19.1992 17.9186 19.1992C17.9076 19.1992 17.8967 19.1992 17.8857 19.1992C17.8747 19.1992 17.8637 19.1992 17.8527 19.1992C17.8418 19.1992 17.8308 19.1992 17.8198 19.1992C17.8088 19.1992 17.7978 19.1992 17.7868 19.1992C17.7758 19.1992 17.7647 19.1992 17.7537 19.1992C17.7427 19.1992 17.7317 19.1992 17.7207 19.1992C17.7096 19.1992 17.6986 19.1992 17.6876 19.1992C17.6765 19.1992 17.6655 19.1992 17.6545 19.1992C17.6434 19.1992 17.6324 19.1992 17.6213 19.1992C17.6103 19.1992 17.5992 19.1992 17.5882 19.1992C17.5771 19.1992 17.566 19.1992 17.555 19.1992C17.5439 19.1992 17.5328 19.1992 17.5218 19.1992C17.5107 19.1992 17.4996 19.1992 17.4885 19.1992C17.4774 19.1992 17.4664 19.1992 17.4553 19.1992C17.4442 19.1992 17.4331 19.1992 17.422 19.1992C17.4109 19.1992 17.3998 19.1992 17.3887 19.1992C17.3776 19.1992 17.3664 19.1992 17.3553 19.1992C17.3442 19.1992 17.3331 19.1992 17.322 19.1992C17.3108 19.1992 17.2997 19.1992 17.2886 19.1992C17.2775 19.1992 17.2663 19.1992 17.2552 19.1992C17.244 19.1992 17.2329 19.1992 17.2218 19.1992C17.2106 19.1992 17.1995 19.1992 17.1883 19.1992C17.1771 19.1992 17.166 19.1992 17.1548 19.1992C17.1437 19.1992 17.1325 19.1992 17.1213 19.1992C17.1102 19.1992 17.099 19.1992 17.0878 19.1992C17.0766 19.1992 17.0655 19.1992 17.0543 19.1992C17.0431 19.1992 17.0319 19.1992 17.0207 19.1992C17.0095 19.1992 16.9983 19.1992 16.9871 19.1992C16.9759 19.1992 16.9647 19.1992 16.9535 19.1992C16.9423 19.1992 16.9311 19.1992 16.9199 19.1992C16.9087 19.1992 16.8975 19.1992 16.8863 19.1992C16.8751 19.1992 16.8638 19.1992 16.8526 19.1992C16.8414 19.1992 16.8302 19.1992 16.8189 19.1992C16.8077 19.1992 16.7965 19.1992 16.7852 19.1992C16.774 19.1992 16.7628 19.1992 16.7515 19.1992C16.7403 19.1992 16.729 19.1992 16.7178 19.1992C16.7065 19.1992 16.6953 19.1992 16.684 19.1992C16.6728 19.1992 16.6615 19.1992 16.6502 19.1992C16.639 19.1992 16.6277 19.1992 16.6164 19.1992C16.6052 19.1992 16.5939 19.1992 16.5826 19.1992C16.5714 19.1992 16.5601 19.1992 16.5488 19.1992C16.5375 19.1992 16.5262 19.1992 16.515 19.1992C16.5037 19.1992 16.4924 19.1992 16.4811 19.1992C16.4698 19.1992 16.4585 19.1992 16.4472 19.1992C16.4359 19.1992 16.4246 19.1992 16.4133 19.1992C16.402 19.1992 16.3907 19.1992 16.3794 19.1992C16.3681 19.1992 16.3568 19.1992 16.3455 19.1992C16.3342 19.1992 16.3228 19.1992 16.3115 19.1992C16.3002 19.1992 16.2889 19.1992 16.2776 19.1992C16.2662 19.1992 16.2549 19.1992 16.2436 19.1992C16.2323 19.1992 16.2209 19.1992 16.2096 19.1992C16.1983 19.1992 16.1869 19.1992 16.1756 19.1992C16.1643 19.1992 16.1529 19.1992 16.1416 19.1992C16.1302 19.1992 16.1189 19.1992 16.1075 19.1992C16.0962 19.1992 16.0849 19.1992 16.0735 19.1992C16.0621 19.1992 16.0508 19.1992 16.0394 19.1992C16.0281 19.1992 16.0167 19.1992 16.0054 19.1992C15.994 19.1992 15.9826 19.1992 15.9713 19.1992C15.9599 19.1992 15.9485 19.1992 15.9372 19.1992C15.9258 19.1992 15.9144 19.1992 15.9031 19.1992C15.8917 19.1992 15.8803 19.1992 15.8689 19.1992C15.8576 19.1992 15.8462 19.1992 15.8348 19.1992C15.8234 19.1992 15.812 19.1992 15.8006 19.1992C15.7893 19.1992 15.7779 19.1992 15.7665 19.1992C15.7551 19.1992 15.7437 19.1992 15.7323 19.1992C15.7209 19.1992 15.7095 19.1992 15.6981 19.1992C15.6867 19.1992 15.6753 19.1992 15.6639 19.1992C15.6525 19.1992 15.6411 19.1992 15.6297 19.1992C15.6183 19.1992 15.6069 19.1992 15.5955 19.1992C15.5841 19.1992 15.5727 19.1992 15.5613 19.1992C15.5499 19.1992 15.5385 19.1992 15.527 19.1992C15.5156 19.1992 15.5042 19.1992 15.4928 19.1992C15.4814 19.1992 15.47 19.1992 15.4585 19.1992C15.4471 19.1992 15.4357 19.1992 15.4243 19.1992C15.4129 19.1992 15.4014 19.1992 15.39 19.1992C15.3786 19.1992 15.3672 19.1992 15.3557 19.1992C15.3443 19.1992 15.3329 19.1992 15.3214 19.1992C15.31 19.1992 15.2986 19.1992 15.2871 19.1992C15.2757 19.1992 15.2643 19.1992 15.2528 19.1992C15.2414 19.1992 15.23 19.1992 15.2185 19.1992C15.2071 19.1992 15.1956 19.1992 15.1842 19.1992C15.1728 19.1992 15.1613 19.1992 15.1499 19.1992C15.1384 19.1992 15.127 19.1992 15.1155 19.1992C15.1041 19.1992 15.0926 19.1992 15.0812 19.1992C15.0697 19.1992 15.0583 19.1992 15.0468 19.1992C15.0354 19.1992 15.0239 19.1992 15.0125 19.1992C15.001 19.1992 14.9896 19.1992 14.9781 19.1992C14.9667 19.1992 14.9552 19.1992 14.9438 19.1992C14.9323 19.1992 14.9209 19.1992 14.9094 19.1992C14.8979 19.1992 14.8865 19.1992 14.875 19.1992C14.8636 19.1992 14.8521 19.1992 14.8407 19.1992C14.8292 19.1992 14.8177 19.1992 14.8063 19.1992C14.7948 19.1992 14.7833 19.1992 14.7719 19.1992C14.7604 19.1992 14.749 19.1992 14.7375 19.1992C14.726 19.1992 14.7146 19.1992 14.7031 19.1992C14.6916 19.1992 14.6802 19.1992 14.6687 19.1992C14.6572 19.1992 14.6458 19.1992 14.6343 19.1992C14.6228 19.1992 14.6114 19.1992 14.5999 19.1992C14.5884 19.1992 14.577 19.1992 14.5655 19.1992C14.554 19.1992 14.5426 19.1992 14.5311 19.1992C14.5196 19.1992 14.5081 19.1992 14.4967 19.1992C14.4852 19.1992 14.4737 19.1992 14.4623 19.1992C14.4508 19.1992 14.4393 19.1992 14.4278 19.1992C14.4164 19.1992 14.4049 19.1992 14.3934 19.1992C14.382 19.1992 14.3705 19.1992 14.359 19.1992C14.3475 19.1992 14.3361 19.1992 14.3246 19.1992C14.3131 19.1992 14.3017 19.1992 14.2902 19.1992C14.2787 19.1992 14.2672 19.1992 14.2558 19.1992C14.2443 19.1992 14.2328 19.1992 14.2213 19.1992C14.2099 19.1992 14.1984 19.1992 14.1869 19.1992C14.1755 19.1992 14.164 19.1992 14.1525 19.1992C14.141 19.1992 14.1296 19.1992 14.1181 19.1992C14.1066 19.1992 14.0951 19.1992 14.0837 19.1992C14.0722 19.1992 14.0607 19.1992 14.0493 19.1992C14.0378 19.1992 14.0263 19.1992 14.0148 19.1992C14.0034 19.1992 13.9919 19.1992 13.9804 19.1992C13.969 19.1992 13.9575 19.1992 13.946 19.1992C13.9346 19.1992 13.9231 19.1992 13.9116 19.1992C13.9002 19.1992 13.8887 19.1992 13.8772 19.1992C13.8658 19.1992 13.8543 19.1992 13.8428 19.1992C13.8314 19.1992 13.8199 19.1992 13.8084 19.1992C13.797 19.1992 13.7855 19.1992 13.774 19.1992C13.7626 19.1992 13.7511 19.1992 13.7396 19.1992C13.7282 19.1992 13.7167 19.1992 13.7052 19.1992C13.6938 19.1992 13.6823 19.1992 13.6709 19.1992C13.6594 19.1992 13.6479 19.1992 13.6365 19.1992C13.625 19.1992 13.6136 19.1992 13.6021 19.1992C13.5907 19.1992 13.5792 19.1992 13.5677 19.1992C13.5563 19.1992 13.5448 19.1992 13.5334 19.1992C13.5219 19.1992 13.5105 19.1992 13.499 19.1992C13.4876 19.1992 13.4761 19.1992 13.4647 19.1992C13.4532 19.1992 13.4418 19.1992 13.4303 19.1992C13.4189 19.1992 13.4074 19.1992 13.396 19.1992C13.3845 19.1992 13.3731 19.1992 13.3616 19.1992C13.3502 19.1992 13.3388 19.1992 13.3273 19.1992C13.3159 19.1992 13.3044 19.1992 13.293 19.1992C13.2816 19.1992 13.2701 19.1992 13.2587 19.1992C13.2473 19.1992 13.2358 19.1992 13.2244 19.1992C13.2129 19.1992 13.2015 19.1992 13.1901 19.1992C13.1787 19.1992 13.1672 19.1992 13.1558 19.1992C13.1444 19.1992 13.1329 19.1992 13.1215 19.1992C13.1101 19.1992 13.0987 19.1992 13.0872 19.1992C13.0758 19.1992 13.0644 19.1992 13.053 19.1992C13.0416 19.1992 13.0301 19.1992 13.0187 19.1992C13.0073 19.1992 12.9959 19.1992 12.9845 19.1992C12.9731 19.1992 12.9616 19.1992 12.9502 19.1992C12.9388 19.1992 12.9274 19.1992 12.916 19.1992C12.9046 19.1992 12.8932 19.1992 12.8818 19.1992C12.8704 19.1992 12.859 19.1992 12.8476 19.1992C12.8362 19.1992 12.8248 19.1992 12.8134 19.1992C12.802 19.1992 12.7906 19.1992 12.7792 19.1992C12.7678 19.1992 12.7564 19.1992 12.745 19.1992C12.7336 19.1992 12.7223 19.1992 12.7109 19.1992C12.6995 19.1992 12.6881 19.1992 12.6767 19.1992C12.6653 19.1992 12.654 19.1992 12.6426 19.1992C12.6312 19.1992 12.6198 19.1992 12.6085 19.1992C12.5971 19.1992 12.5857 19.1992 12.5743 19.1992C12.563 19.1992 12.5516 19.1992 12.5402 19.1992C12.5289 19.1992 12.5175 19.1992 12.5062 19.1992C12.4948 19.1992 12.4834 19.1992 12.4721 19.1992C12.4607 19.1992 12.4494 19.1992 12.438 19.1992C12.4267 19.1992 12.4153 19.1992 12.404 19.1992C12.3926 19.1992 12.3813 19.1992 12.3699 19.1992C12.3586 19.1992 12.3473 19.1992 12.3359 19.1992C12.3246 19.1992 12.3132 19.1992 12.3019 19.1992C12.2906 19.1992 12.2793 19.1992 12.2679 19.1992C12.2566 19.1992 12.2453 19.1992 12.2339 19.1992C12.2226 19.1992 12.2113 19.1992 12.2 19.1992C12.1887 19.1992 12.1774 19.1992 12.166 19.1992C12.1547 19.1992 12.1434 19.1992 12.1321 19.1992C12.1208 19.1992 12.1095 19.1992 12.0982 19.1992C12.0869 19.1992 12.0756 19.1992 12.0643 19.1992C12.053 19.1992 12.0417 19.1992 12.0304 19.1992C12.0191 19.1992 12.0078 19.1992 11.9966 19.1992C11.9853 19.1992 11.974 19.1992 11.9627 19.1992C11.9514 19.1992 11.9402 19.1992 11.9289 19.1992C11.9176 19.1992 11.9063 19.1992 11.8951 19.1992C11.8838 19.1992 11.8725 19.1992 11.8613 19.1992C11.85 19.1992 11.8388 19.1992 11.8275 19.1992C11.8162 19.1992 11.805 19.1992 11.7937 19.1992C11.7825 19.1992 11.7713 19.1992 11.76 19.1992C11.7488 19.1992 11.7375 19.1992 11.7263 19.1992C11.7151 19.1992 11.7038 19.1992 11.6926 19.1992C11.6814 19.1992 11.6701 19.1992 11.6589 19.1992C11.6477 19.1992 11.6365 19.1992 11.6252 19.1992C11.614 19.1992 11.6028 19.1992 11.5916 19.1992C11.5804 19.1992 11.5692 19.1992 11.558 19.1992C11.5468 19.1992 11.5356 19.1992 11.5244 19.1992C11.5132 19.1992 11.502 19.1992 11.4908 19.1992C11.4796 19.1992 11.4684 19.1992 11.4572 19.1992C11.4461 19.1992 11.4349 19.1992 11.4237 19.1992C11.4125 19.1992 11.4014 19.1992 11.3902 19.1992C11.379 19.1992 11.3679 19.1992 11.3567 19.1992C11.3455 19.1992 11.3344 19.1992 11.3232 19.1992C11.3121 19.1992 11.3009 19.1992 11.2898 19.1992C11.2786 19.1992 11.2675 19.1992 11.2563 19.1992C11.2452 19.1992 11.2341 19.1992 11.2229 19.1992C11.2118 19.1992 11.2007 19.1992 11.1896 19.1992C11.1784 19.1992 11.1673 19.1992 11.1562 19.1992C11.1451 19.1992 11.134 19.1992 11.1229 19.1992C11.1117 19.1992 11.1006 19.1992 11.0895 19.1992C11.0784 19.1992 11.0674 19.1992 11.0563 19.1992C11.0452 19.1992 11.0341 19.1992 11.023 19.1992C11.0119 19.1992 11.0008 19.1992 10.9898 19.1992C10.9787 19.1992 10.9676 19.1992 10.9565 19.1992C10.9455 19.1992 10.9344 19.1992 10.9234 19.1992C10.9123 19.1992 10.9012 19.1992 10.8902 19.1992C10.8791 19.1992 10.8681 19.1992 10.8571 19.1992C10.846 19.1992 10.835 19.1992 10.8239 19.1992C10.8129 19.1992 10.8019 19.1992 10.7909 19.1992C10.7798 19.1992 10.7688 19.1992 10.7578 19.1992C10.7468 19.1992 10.7358 19.1992 10.7248 19.1992C10.7138 19.1992 10.7028 19.1992 10.6918 19.1992C10.6808 19.1992 10.6698 19.1992 10.6588 19.1992C10.6478 19.1992 10.6368 19.1992 10.6258 19.1992C10.6148 19.1992 10.6039 19.1992 10.5929 19.1992C10.5819 19.1992 10.571 19.1992 10.56 19.1992C10.549 19.1992 10.5381 19.1992 10.5271 19.1992C10.5162 19.1992 10.5052 19.1992 10.4943 19.1992C10.4834 19.1992 10.4724 19.1992 10.4615 19.1992C10.4506 19.1992 10.4396 19.1992 10.4287 19.1992C10.4178 19.1992 10.4069 19.1992 10.3959 19.1992C10.385 19.1992 10.3741 19.1992 10.3632 19.1992C10.3523 19.1992 10.3414 19.1992 10.3305 19.1992C10.3196 19.1992 10.3088 19.1992 10.2979 19.1992C10.287 19.1992 10.2761 19.1992 10.2652 19.1992C10.2544 19.1992 10.2435 19.1992 10.2326 19.1992C10.2218 19.1992 10.2109 19.1992 10.2001 19.1992C10.1892 19.1992 10.1784 19.1992 10.1675 19.1992C10.1567 19.1992 10.1458 19.1992 10.135 19.1992C10.1242 19.1992 10.1134 19.1992 10.1025 19.1992C10.0917 19.1992 10.0809 19.1992 10.0701 19.1992C10.0593 19.1992 10.0485 19.1992 10.0377 19.1992C10.0269 19.1992 10.0161 19.1992 10.0053 19.1992C9.9945 19.1992 9.98372 19.1992 9.97294 19.1992C9.96216 19.1992 9.95139 19.1992 9.94062 19.1992C9.92986 19.1992 9.9191 19.1992 9.90834 19.1992C9.89759 19.1992 9.88684 19.1992 9.87609 19.1992C9.86535 19.1992 9.85461 19.1992 9.84387 19.1992C9.83314 19.1992 9.82241 19.1992 9.81169 19.1992C9.80097 19.1992 9.79025 19.1992 9.77954 19.1992C9.76883 19.1992 9.75813 19.1992 9.74743 19.1992C9.73673 19.1992 9.72604 19.1992 9.71535 19.1992C9.70466 19.1992 9.69398 19.1992 9.68331 19.1992C9.67263 19.1992 9.66196 19.1992 9.6513 19.1992C9.64063 19.1992 9.62997 19.1992 9.61932 19.1992C9.60867 19.1992 9.59802 19.1992 9.58738 19.1992C9.57674 19.1992 9.56611 19.1992 9.55548 19.1992C9.54485 19.1992 9.53423 19.1992 9.52362 19.1992C9.513 19.1992 9.50239 19.1992 9.49179 19.1992C9.48118 19.1992 9.47058 19.1992 9.45999 19.1992C9.4494 19.1992 9.43882 19.1992 9.42824 19.1992C9.41766 19.1992 9.40709 19.1992 9.39652 19.1992C9.38595 19.1992 9.37539 19.1992 9.36484 19.1992C9.35428 19.1992 9.34374 19.1992 9.33319 19.1992C9.32265 19.1992 9.31212 19.1992 9.30159 19.1992C9.29106 19.1992 9.28054 19.1992 9.27002 19.1992C9.25951 19.1992 9.249 19.1992 9.23849 19.1992C9.22799 19.1992 9.21749 19.1992 9.207 19.1992C9.19651 19.1992 9.18603 19.1992 9.17555 19.1992C9.16508 19.1992 9.1546 19.1992 9.14414 19.1992C9.13368 19.1992 9.12322 19.1992 9.11277 19.1992C9.10232 19.1992 9.09187 19.1992 9.08144 19.1992C9.071 19.1992 9.06057 19.1992 9.05014 19.1992C9.03972 19.1992 9.0293 19.1992 9.01889 19.1992C9.00848 19.1992 8.99808 19.1992 8.98768 19.1992C8.97728 19.1992 8.96689 19.1992 8.95651 19.1992C8.94613 19.1992 8.93575 19.1992 8.92538 19.1992C8.91501 19.1992 8.90465 19.1992 8.89429 19.1992C8.88394 19.1992 8.87359 19.1992 8.86325 19.1992C8.85291 19.1992 8.84257 19.1992 8.83224 19.1992C8.82192 19.1992 8.81159 19.1992 8.80128 19.1992C8.79097 19.1992 8.78066 19.1992 8.77036 19.1992C8.76006 19.1992 8.74977 19.1992 8.73948 19.1992C8.7292 19.1992 8.71892 19.1992 8.70865 19.1992C8.69838 19.1992 8.68812 19.1992 8.67786 19.1992C8.6676 19.1992 8.65735 19.1992 8.64711 19.1992C8.63687 19.1992 8.62663 19.1992 8.61641 19.1992C8.60618 19.1992 8.59596 19.1992 8.58575 19.1992C8.57553 19.1992 8.56533 19.1992 8.55513 19.1992C8.54493 19.1992 8.53474 19.1992 8.52456 19.1992C8.51438 19.1992 8.5042 19.1992 8.49403 19.1992C8.48387 19.1992 8.47371 19.1992 8.46355 19.1992C8.4534 19.1992 8.44325 19.1992 8.43312 19.1992C8.42298 19.1992 8.41285 19.1992 8.40273 19.1992C8.3926 19.1992 8.38249 19.1992 8.37238 19.1992C8.36227 19.1992 8.35217 19.1992 8.34208 19.1992C8.33199 19.1992 8.32191 19.1992 8.31183 19.1992C8.30175 19.1992 8.29168 19.1992 8.28162 19.1992C8.27156 19.1992 8.26151 19.1992 8.25146 19.1992C8.24142 19.1992 8.23138 19.1992 8.22135 19.1992C8.21132 19.1992 8.2013 19.1992 8.19129 19.1992C8.18127 19.1992 8.17127 19.1992 8.16127 19.1992C8.15127 19.1992 8.14128 19.1992 8.1313 19.1992C8.12132 19.1992 8.11134 19.1992 8.10138 19.1992C8.09141 19.1992 8.08145 19.1992 8.0715 19.1992C8.06155 19.1992 8.05161 19.1992 8.04168 19.1992C8.03175 19.1992 8.02182 19.1992 8.0119 19.1992C8.00199 19.1992 7.99208 19.1992 7.98218 19.1992C7.97228 19.1992 7.96238 19.1992 7.9525 19.1992V22.1992C7.96238 22.1992 7.97228 22.1992 7.98218 22.1992C7.99208 22.1992 8.00199 22.1992 8.0119 22.1992C8.02182 22.1992 8.03175 22.1992 8.04168 22.1992C8.05161 22.1992 8.06155 22.1992 8.0715 22.1992C8.08145 22.1992 8.09141 22.1992 8.10138 22.1992C8.11134 22.1992 8.12132 22.1992 8.1313 22.1992C8.14128 22.1992 8.15127 22.1992 8.16127 22.1992C8.17127 22.1992 8.18127 22.1992 8.19129 22.1992C8.2013 22.1992 8.21132 22.1992 8.22135 22.1992C8.23138 22.1992 8.24142 22.1992 8.25146 22.1992C8.26151 22.1992 8.27156 22.1992 8.28162 22.1992C8.29168 22.1992 8.30175 22.1992 8.31183 22.1992C8.32191 22.1992 8.33199 22.1992 8.34208 22.1992C8.35217 22.1992 8.36227 22.1992 8.37238 22.1992C8.38249 22.1992 8.3926 22.1992 8.40273 22.1992C8.41285 22.1992 8.42298 22.1992 8.43312 22.1992C8.44325 22.1992 8.4534 22.1992 8.46355 22.1992C8.47371 22.1992 8.48387 22.1992 8.49403 22.1992C8.5042 22.1992 8.51438 22.1992 8.52456 22.1992C8.53474 22.1992 8.54493 22.1992 8.55513 22.1992C8.56533 22.1992 8.57553 22.1992 8.58575 22.1992C8.59596 22.1992 8.60618 22.1992 8.61641 22.1992C8.62663 22.1992 8.63687 22.1992 8.64711 22.1992C8.65735 22.1992 8.6676 22.1992 8.67786 22.1992C8.68812 22.1992 8.69838 22.1992 8.70865 22.1992C8.71892 22.1992 8.7292 22.1992 8.73948 22.1992C8.74977 22.1992 8.76006 22.1992 8.77036 22.1992C8.78066 22.1992 8.79097 22.1992 8.80128 22.1992C8.81159 22.1992 8.82192 22.1992 8.83224 22.1992C8.84257 22.1992 8.85291 22.1992 8.86325 22.1992C8.87359 22.1992 8.88394 22.1992 8.89429 22.1992C8.90465 22.1992 8.91501 22.1992 8.92538 22.1992C8.93575 22.1992 8.94613 22.1992 8.95651 22.1992C8.96689 22.1992 8.97728 22.1992 8.98768 22.1992C8.99808 22.1992 9.00848 22.1992 9.01889 22.1992C9.0293 22.1992 9.03972 22.1992 9.05014 22.1992C9.06057 22.1992 9.071 22.1992 9.08144 22.1992C9.09187 22.1992 9.10232 22.1992 9.11277 22.1992C9.12322 22.1992 9.13368 22.1992 9.14414 22.1992C9.1546 22.1992 9.16508 22.1992 9.17555 22.1992C9.18603 22.1992 9.19651 22.1992 9.207 22.1992C9.21749 22.1992 9.22799 22.1992 9.23849 22.1992C9.249 22.1992 9.25951 22.1992 9.27002 22.1992C9.28054 22.1992 9.29106 22.1992 9.30159 22.1992C9.31212 22.1992 9.32265 22.1992 9.33319 22.1992C9.34374 22.1992 9.35428 22.1992 9.36484 22.1992C9.37539 22.1992 9.38595 22.1992 9.39652 22.1992C9.40709 22.1992 9.41766 22.1992 9.42824 22.1992C9.43882 22.1992 9.4494 22.1992 9.45999 22.1992C9.47058 22.1992 9.48118 22.1992 9.49179 22.1992C9.50239 22.1992 9.513 22.1992 9.52362 22.1992C9.53423 22.1992 9.54485 22.1992 9.55548 22.1992C9.56611 22.1992 9.57674 22.1992 9.58738 22.1992C9.59802 22.1992 9.60867 22.1992 9.61932 22.1992C9.62997 22.1992 9.64063 22.1992 9.6513 22.1992C9.66196 22.1992 9.67263 22.1992 9.68331 22.1992C9.69398 22.1992 9.70466 22.1992 9.71535 22.1992C9.72604 22.1992 9.73673 22.1992 9.74743 22.1992C9.75813 22.1992 9.76883 22.1992 9.77954 22.1992C9.79025 22.1992 9.80097 22.1992 9.81169 22.1992C9.82241 22.1992 9.83314 22.1992 9.84387 22.1992C9.85461 22.1992 9.86535 22.1992 9.87609 22.1992C9.88684 22.1992 9.89759 22.1992 9.90834 22.1992C9.9191 22.1992 9.92986 22.1992 9.94062 22.1992C9.95139 22.1992 9.96216 22.1992 9.97294 22.1992C9.98372 22.1992 9.9945 22.1992 10.0053 22.1992C10.0161 22.1992 10.0269 22.1992 10.0377 22.1992C10.0485 22.1992 10.0593 22.1992 10.0701 22.1992C10.0809 22.1992 10.0917 22.1992 10.1025 22.1992C10.1134 22.1992 10.1242 22.1992 10.135 22.1992C10.1458 22.1992 10.1567 22.1992 10.1675 22.1992C10.1784 22.1992 10.1892 22.1992 10.2001 22.1992C10.2109 22.1992 10.2218 22.1992 10.2326 22.1992C10.2435 22.1992 10.2544 22.1992 10.2652 22.1992C10.2761 22.1992 10.287 22.1992 10.2979 22.1992C10.3088 22.1992 10.3196 22.1992 10.3305 22.1992C10.3414 22.1992 10.3523 22.1992 10.3632 22.1992C10.3741 22.1992 10.385 22.1992 10.3959 22.1992C10.4069 22.1992 10.4178 22.1992 10.4287 22.1992C10.4396 22.1992 10.4506 22.1992 10.4615 22.1992C10.4724 22.1992 10.4834 22.1992 10.4943 22.1992C10.5052 22.1992 10.5162 22.1992 10.5271 22.1992C10.5381 22.1992 10.549 22.1992 10.56 22.1992C10.571 22.1992 10.5819 22.1992 10.5929 22.1992C10.6039 22.1992 10.6148 22.1992 10.6258 22.1992C10.6368 22.1992 10.6478 22.1992 10.6588 22.1992C10.6698 22.1992 10.6808 22.1992 10.6918 22.1992C10.7028 22.1992 10.7138 22.1992 10.7248 22.1992C10.7358 22.1992 10.7468 22.1992 10.7578 22.1992C10.7688 22.1992 10.7798 22.1992 10.7909 22.1992C10.8019 22.1992 10.8129 22.1992 10.8239 22.1992C10.835 22.1992 10.846 22.1992 10.8571 22.1992C10.8681 22.1992 10.8791 22.1992 10.8902 22.1992C10.9012 22.1992 10.9123 22.1992 10.9234 22.1992C10.9344 22.1992 10.9455 22.1992 10.9565 22.1992C10.9676 22.1992 10.9787 22.1992 10.9898 22.1992C11.0008 22.1992 11.0119 22.1992 11.023 22.1992C11.0341 22.1992 11.0452 22.1992 11.0563 22.1992C11.0674 22.1992 11.0784 22.1992 11.0895 22.1992C11.1006 22.1992 11.1117 22.1992 11.1229 22.1992C11.134 22.1992 11.1451 22.1992 11.1562 22.1992C11.1673 22.1992 11.1784 22.1992 11.1896 22.1992C11.2007 22.1992 11.2118 22.1992 11.2229 22.1992C11.2341 22.1992 11.2452 22.1992 11.2563 22.1992C11.2675 22.1992 11.2786 22.1992 11.2898 22.1992C11.3009 22.1992 11.3121 22.1992 11.3232 22.1992C11.3344 22.1992 11.3455 22.1992 11.3567 22.1992C11.3679 22.1992 11.379 22.1992 11.3902 22.1992C11.4014 22.1992 11.4125 22.1992 11.4237 22.1992C11.4349 22.1992 11.4461 22.1992 11.4572 22.1992C11.4684 22.1992 11.4796 22.1992 11.4908 22.1992C11.502 22.1992 11.5132 22.1992 11.5244 22.1992C11.5356 22.1992 11.5468 22.1992 11.558 22.1992C11.5692 22.1992 11.5804 22.1992 11.5916 22.1992C11.6028 22.1992 11.614 22.1992 11.6252 22.1992C11.6365 22.1992 11.6477 22.1992 11.6589 22.1992C11.6701 22.1992 11.6814 22.1992 11.6926 22.1992C11.7038 22.1992 11.7151 22.1992 11.7263 22.1992C11.7375 22.1992 11.7488 22.1992 11.76 22.1992C11.7713 22.1992 11.7825 22.1992 11.7937 22.1992C11.805 22.1992 11.8162 22.1992 11.8275 22.1992C11.8388 22.1992 11.85 22.1992 11.8613 22.1992C11.8725 22.1992 11.8838 22.1992 11.8951 22.1992C11.9063 22.1992 11.9176 22.1992 11.9289 22.1992C11.9402 22.1992 11.9514 22.1992 11.9627 22.1992C11.974 22.1992 11.9853 22.1992 11.9966 22.1992C12.0078 22.1992 12.0191 22.1992 12.0304 22.1992C12.0417 22.1992 12.053 22.1992 12.0643 22.1992C12.0756 22.1992 12.0869 22.1992 12.0982 22.1992C12.1095 22.1992 12.1208 22.1992 12.1321 22.1992C12.1434 22.1992 12.1547 22.1992 12.166 22.1992C12.1774 22.1992 12.1887 22.1992 12.2 22.1992C12.2113 22.1992 12.2226 22.1992 12.2339 22.1992C12.2453 22.1992 12.2566 22.1992 12.2679 22.1992C12.2793 22.1992 12.2906 22.1992 12.3019 22.1992C12.3132 22.1992 12.3246 22.1992 12.3359 22.1992C12.3473 22.1992 12.3586 22.1992 12.3699 22.1992C12.3813 22.1992 12.3926 22.1992 12.404 22.1992C12.4153 22.1992 12.4267 22.1992 12.438 22.1992C12.4494 22.1992 12.4607 22.1992 12.4721 22.1992C12.4834 22.1992 12.4948 22.1992 12.5062 22.1992C12.5175 22.1992 12.5289 22.1992 12.5402 22.1992C12.5516 22.1992 12.563 22.1992 12.5743 22.1992C12.5857 22.1992 12.5971 22.1992 12.6085 22.1992C12.6198 22.1992 12.6312 22.1992 12.6426 22.1992C12.654 22.1992 12.6653 22.1992 12.6767 22.1992C12.6881 22.1992 12.6995 22.1992 12.7109 22.1992C12.7223 22.1992 12.7336 22.1992 12.745 22.1992C12.7564 22.1992 12.7678 22.1992 12.7792 22.1992C12.7906 22.1992 12.802 22.1992 12.8134 22.1992C12.8248 22.1992 12.8362 22.1992 12.8476 22.1992C12.859 22.1992 12.8704 22.1992 12.8818 22.1992C12.8932 22.1992 12.9046 22.1992 12.916 22.1992C12.9274 22.1992 12.9388 22.1992 12.9502 22.1992C12.9616 22.1992 12.9731 22.1992 12.9845 22.1992C12.9959 22.1992 13.0073 22.1992 13.0187 22.1992C13.0301 22.1992 13.0416 22.1992 13.053 22.1992C13.0644 22.1992 13.0758 22.1992 13.0872 22.1992C13.0987 22.1992 13.1101 22.1992 13.1215 22.1992C13.1329 22.1992 13.1444 22.1992 13.1558 22.1992C13.1672 22.1992 13.1787 22.1992 13.1901 22.1992C13.2015 22.1992 13.2129 22.1992 13.2244 22.1992C13.2358 22.1992 13.2473 22.1992 13.2587 22.1992C13.2701 22.1992 13.2816 22.1992 13.293 22.1992C13.3044 22.1992 13.3159 22.1992 13.3273 22.1992C13.3388 22.1992 13.3502 22.1992 13.3616 22.1992C13.3731 22.1992 13.3845 22.1992 13.396 22.1992C13.4074 22.1992 13.4189 22.1992 13.4303 22.1992C13.4418 22.1992 13.4532 22.1992 13.4647 22.1992C13.4761 22.1992 13.4876 22.1992 13.499 22.1992C13.5105 22.1992 13.5219 22.1992 13.5334 22.1992C13.5448 22.1992 13.5563 22.1992 13.5677 22.1992C13.5792 22.1992 13.5907 22.1992 13.6021 22.1992C13.6136 22.1992 13.625 22.1992 13.6365 22.1992C13.6479 22.1992 13.6594 22.1992 13.6709 22.1992C13.6823 22.1992 13.6938 22.1992 13.7052 22.1992C13.7167 22.1992 13.7282 22.1992 13.7396 22.1992C13.7511 22.1992 13.7626 22.1992 13.774 22.1992C13.7855 22.1992 13.797 22.1992 13.8084 22.1992C13.8199 22.1992 13.8314 22.1992 13.8428 22.1992C13.8543 22.1992 13.8658 22.1992 13.8772 22.1992C13.8887 22.1992 13.9002 22.1992 13.9116 22.1992C13.9231 22.1992 13.9346 22.1992 13.946 22.1992C13.9575 22.1992 13.969 22.1992 13.9804 22.1992C13.9919 22.1992 14.0034 22.1992 14.0148 22.1992C14.0263 22.1992 14.0378 22.1992 14.0493 22.1992C14.0607 22.1992 14.0722 22.1992 14.0837 22.1992C14.0951 22.1992 14.1066 22.1992 14.1181 22.1992C14.1296 22.1992 14.141 22.1992 14.1525 22.1992C14.164 22.1992 14.1755 22.1992 14.1869 22.1992C14.1984 22.1992 14.2099 22.1992 14.2213 22.1992C14.2328 22.1992 14.2443 22.1992 14.2558 22.1992C14.2672 22.1992 14.2787 22.1992 14.2902 22.1992C14.3017 22.1992 14.3131 22.1992 14.3246 22.1992C14.3361 22.1992 14.3475 22.1992 14.359 22.1992C14.3705 22.1992 14.382 22.1992 14.3934 22.1992C14.4049 22.1992 14.4164 22.1992 14.4278 22.1992C14.4393 22.1992 14.4508 22.1992 14.4623 22.1992C14.4737 22.1992 14.4852 22.1992 14.4967 22.1992C14.5081 22.1992 14.5196 22.1992 14.5311 22.1992C14.5426 22.1992 14.554 22.1992 14.5655 22.1992C14.577 22.1992 14.5884 22.1992 14.5999 22.1992C14.6114 22.1992 14.6228 22.1992 14.6343 22.1992C14.6458 22.1992 14.6572 22.1992 14.6687 22.1992C14.6802 22.1992 14.6916 22.1992 14.7031 22.1992C14.7146 22.1992 14.726 22.1992 14.7375 22.1992C14.749 22.1992 14.7604 22.1992 14.7719 22.1992C14.7833 22.1992 14.7948 22.1992 14.8063 22.1992C14.8177 22.1992 14.8292 22.1992 14.8407 22.1992C14.8521 22.1992 14.8636 22.1992 14.875 22.1992C14.8865 22.1992 14.8979 22.1992 14.9094 22.1992C14.9209 22.1992 14.9323 22.1992 14.9438 22.1992C14.9552 22.1992 14.9667 22.1992 14.9781 22.1992C14.9896 22.1992 15.001 22.1992 15.0125 22.1992C15.0239 22.1992 15.0354 22.1992 15.0468 22.1992C15.0583 22.1992 15.0697 22.1992 15.0812 22.1992C15.0926 22.1992 15.1041 22.1992 15.1155 22.1992C15.127 22.1992 15.1384 22.1992 15.1499 22.1992C15.1613 22.1992 15.1728 22.1992 15.1842 22.1992C15.1956 22.1992 15.2071 22.1992 15.2185 22.1992C15.23 22.1992 15.2414 22.1992 15.2528 22.1992C15.2643 22.1992 15.2757 22.1992 15.2871 22.1992C15.2986 22.1992 15.31 22.1992 15.3214 22.1992C15.3329 22.1992 15.3443 22.1992 15.3557 22.1992C15.3672 22.1992 15.3786 22.1992 15.39 22.1992C15.4014 22.1992 15.4129 22.1992 15.4243 22.1992C15.4357 22.1992 15.4471 22.1992 15.4585 22.1992C15.47 22.1992 15.4814 22.1992 15.4928 22.1992C15.5042 22.1992 15.5156 22.1992 15.527 22.1992C15.5385 22.1992 15.5499 22.1992 15.5613 22.1992C15.5727 22.1992 15.5841 22.1992 15.5955 22.1992C15.6069 22.1992 15.6183 22.1992 15.6297 22.1992C15.6411 22.1992 15.6525 22.1992 15.6639 22.1992C15.6753 22.1992 15.6867 22.1992 15.6981 22.1992C15.7095 22.1992 15.7209 22.1992 15.7323 22.1992C15.7437 22.1992 15.7551 22.1992 15.7665 22.1992C15.7779 22.1992 15.7893 22.1992 15.8006 22.1992C15.812 22.1992 15.8234 22.1992 15.8348 22.1992C15.8462 22.1992 15.8576 22.1992 15.8689 22.1992C15.8803 22.1992 15.8917 22.1992 15.9031 22.1992C15.9144 22.1992 15.9258 22.1992 15.9372 22.1992C15.9485 22.1992 15.9599 22.1992 15.9713 22.1992C15.9826 22.1992 15.994 22.1992 16.0054 22.1992C16.0167 22.1992 16.0281 22.1992 16.0394 22.1992C16.0508 22.1992 16.0621 22.1992 16.0735 22.1992C16.0849 22.1992 16.0962 22.1992 16.1075 22.1992C16.1189 22.1992 16.1302 22.1992 16.1416 22.1992C16.1529 22.1992 16.1643 22.1992 16.1756 22.1992C16.1869 22.1992 16.1983 22.1992 16.2096 22.1992C16.2209 22.1992 16.2323 22.1992 16.2436 22.1992C16.2549 22.1992 16.2662 22.1992 16.2776 22.1992C16.2889 22.1992 16.3002 22.1992 16.3115 22.1992C16.3228 22.1992 16.3342 22.1992 16.3455 22.1992C16.3568 22.1992 16.3681 22.1992 16.3794 22.1992C16.3907 22.1992 16.402 22.1992 16.4133 22.1992C16.4246 22.1992 16.4359 22.1992 16.4472 22.1992C16.4585 22.1992 16.4698 22.1992 16.4811 22.1992C16.4924 22.1992 16.5037 22.1992 16.515 22.1992C16.5262 22.1992 16.5375 22.1992 16.5488 22.1992C16.5601 22.1992 16.5714 22.1992 16.5826 22.1992C16.5939 22.1992 16.6052 22.1992 16.6164 22.1992C16.6277 22.1992 16.639 22.1992 16.6502 22.1992C16.6615 22.1992 16.6728 22.1992 16.684 22.1992C16.6953 22.1992 16.7065 22.1992 16.7178 22.1992C16.729 22.1992 16.7403 22.1992 16.7515 22.1992C16.7628 22.1992 16.774 22.1992 16.7852 22.1992C16.7965 22.1992 16.8077 22.1992 16.8189 22.1992C16.8302 22.1992 16.8414 22.1992 16.8526 22.1992C16.8638 22.1992 16.8751 22.1992 16.8863 22.1992C16.8975 22.1992 16.9087 22.1992 16.9199 22.1992C16.9311 22.1992 16.9423 22.1992 16.9535 22.1992C16.9647 22.1992 16.9759 22.1992 16.9871 22.1992C16.9983 22.1992 17.0095 22.1992 17.0207 22.1992C17.0319 22.1992 17.0431 22.1992 17.0543 22.1992C17.0655 22.1992 17.0766 22.1992 17.0878 22.1992C17.099 22.1992 17.1102 22.1992 17.1213 22.1992C17.1325 22.1992 17.1437 22.1992 17.1548 22.1992C17.166 22.1992 17.1771 22.1992 17.1883 22.1992C17.1995 22.1992 17.2106 22.1992 17.2218 22.1992C17.2329 22.1992 17.244 22.1992 17.2552 22.1992C17.2663 22.1992 17.2775 22.1992 17.2886 22.1992C17.2997 22.1992 17.3108 22.1992 17.322 22.1992C17.3331 22.1992 17.3442 22.1992 17.3553 22.1992C17.3664 22.1992 17.3776 22.1992 17.3887 22.1992C17.3998 22.1992 17.4109 22.1992 17.422 22.1992C17.4331 22.1992 17.4442 22.1992 17.4553 22.1992C17.4664 22.1992 17.4774 22.1992 17.4885 22.1992C17.4996 22.1992 17.5107 22.1992 17.5218 22.1992C17.5328 22.1992 17.5439 22.1992 17.555 22.1992C17.566 22.1992 17.5771 22.1992 17.5882 22.1992C17.5992 22.1992 17.6103 22.1992 17.6213 22.1992C17.6324 22.1992 17.6434 22.1992 17.6545 22.1992C17.6655 22.1992 17.6765 22.1992 17.6876 22.1992C17.6986 22.1992 17.7096 22.1992 17.7207 22.1992C17.7317 22.1992 17.7427 22.1992 17.7537 22.1992C17.7647 22.1992 17.7758 22.1992 17.7868 22.1992C17.7978 22.1992 17.8088 22.1992 17.8198 22.1992C17.8308 22.1992 17.8418 22.1992 17.8527 22.1992C17.8637 22.1992 17.8747 22.1992 17.8857 22.1992C17.8967 22.1992 17.9076 22.1992 17.9186 22.1992C17.9296 22.1992 17.9406 22.1992 17.9515 22.1992C17.9625 22.1992 17.9734 22.1992 17.9844 22.1992C17.9953 22.1992 18.0063 22.1992 18.0172 22.1992C18.0282 22.1992 18.0391 22.1992 18.05 22.1992C18.061 22.1992 18.0719 22.1992 18.0828 22.1992C18.0937 22.1992 18.1047 22.1992 18.1156 22.1992C18.1265 22.1992 18.1374 22.1992 18.1483 22.1992C18.1592 22.1992 18.1701 22.1992 18.181 22.1992C18.1919 22.1992 18.2028 22.1992 18.2136 22.1992C18.2245 22.1992 18.2354 22.1992 18.2463 22.1992C18.2572 22.1992 18.268 22.1992 18.2789 22.1992C18.2897 22.1992 18.3006 22.1992 18.3115 22.1992C18.3223 22.1992 18.3332 22.1992 18.344 22.1992C18.3548 22.1992 18.3657 22.1992 18.3765 22.1992C18.3873 22.1992 18.3982 22.1992 18.409 22.1992C18.4198 22.1992 18.4306 22.1992 18.4414 22.1992C18.4522 22.1992 18.463 22.1992 18.4738 22.1992C18.4846 22.1992 18.4954 22.1992 18.5062 22.1992C18.517 22.1992 18.5278 22.1992 18.5386 22.1992C18.5494 22.1992 18.5601 22.1992 18.5709 22.1992C18.5817 22.1992 18.5924 22.1992 18.6032 22.1992C18.6139 22.1992 18.6247 22.1992 18.6354 22.1992C18.6462 22.1992 18.6569 22.1992 18.6676 22.1992C18.6784 22.1992 18.6891 22.1992 18.6998 22.1992C18.7105 22.1992 18.7213 22.1992 18.732 22.1992C18.7427 22.1992 18.7534 22.1992 18.7641 22.1992C18.7748 22.1992 18.7855 22.1992 18.7962 22.1992C18.8069 22.1992 18.8175 22.1992 18.8282 22.1992C18.8389 22.1992 18.8496 22.1992 18.8602 22.1992C18.8709 22.1992 18.8815 22.1992 18.8922 22.1992C18.9028 22.1992 18.9135 22.1992 18.9241 22.1992C18.9348 22.1992 18.9454 22.1992 18.956 22.1992C18.9667 22.1992 18.9773 22.1992 18.9879 22.1992C18.9985 22.1992 19.0091 22.1992 19.0197 22.1992C19.0303 22.1992 19.0409 22.1992 19.0515 22.1992C19.0621 22.1992 19.0727 22.1992 19.0833 22.1992C19.0939 22.1992 19.1044 22.1992 19.115 22.1992C19.1256 22.1992 19.1361 22.1992 19.1467 22.1992C19.1572 22.1992 19.1678 22.1992 19.1783 22.1992C19.1889 22.1992 19.1994 22.1992 19.2099 22.1992C19.2205 22.1992 19.231 22.1992 19.2415 22.1992C19.252 22.1992 19.2625 22.1992 19.273 22.1992C19.2835 22.1992 19.294 22.1992 19.3045 22.1992C19.315 22.1992 19.3255 22.1992 19.336 22.1992C19.3464 22.1992 19.3569 22.1992 19.3674 22.1992C19.3778 22.1992 19.3883 22.1992 19.3988 22.1992C19.4092 22.1992 19.4196 22.1992 19.4301 22.1992C19.4405 22.1992 19.451 22.1992 19.4614 22.1992C19.4718 22.1992 19.4822 22.1992 19.4926 22.1992C19.503 22.1992 19.5134 22.1992 19.5238 22.1992C19.5342 22.1992 19.5446 22.1992 19.555 22.1992C19.5654 22.1992 19.5758 22.1992 19.5861 22.1992C19.5965 22.1992 19.6069 22.1992 19.6172 22.1992C19.6276 22.1992 19.6379 22.1992 19.6483 22.1992C19.6586 22.1992 19.6689 22.1992 19.6793 22.1992C19.6896 22.1992 19.6999 22.1992 19.7102 22.1992C19.7206 22.1992 19.7309 22.1992 19.7412 22.1992C19.7515 22.1992 19.7617 22.1992 19.772 22.1992C19.7823 22.1992 19.7926 22.1992 19.8029 22.1992C19.8131 22.1992 19.8234 22.1992 19.8337 22.1992C19.8439 22.1992 19.8542 22.1992 19.8644 22.1992C19.8746 22.1992 19.8849 22.1992 19.8951 22.1992C19.9053 22.1992 19.9156 22.1992 19.9258 22.1992C19.936 22.1992 19.9462 22.1992 19.9564 22.1992C19.9666 22.1992 19.9768 22.1992 19.987 22.1992C19.9971 22.1992 20.0073 22.1992 20.0175 22.1992C20.0277 22.1992 20.0378 22.1992 20.048 22.1992C20.0581 22.1992 20.0683 22.1992 20.0784 22.1992C20.0885 22.1992 20.0987 22.1992 20.1088 22.1992C20.1189 22.1992 20.129 22.1992 20.1391 22.1992C20.1492 22.1992 20.1593 22.1992 20.1694 22.1992C20.1795 22.1992 20.1896 22.1992 20.1997 22.1992C20.2098 22.1992 20.2198 22.1992 20.2299 22.1992C20.24 22.1992 20.25 22.1992 20.2601 22.1992C20.2701 22.1992 20.2801 22.1992 20.2902 22.1992C20.3002 22.1992 20.3102 22.1992 20.3202 22.1992C20.3302 22.1992 20.3403 22.1992 20.3503 22.1992C20.3602 22.1992 20.3702 22.1992 20.3802 22.1992C20.3902 22.1992 20.4002 22.1992 20.4101 22.1992C20.4201 22.1992 20.4301 22.1992 20.44 22.1992C20.45 22.1992 20.4599 22.1992 20.4698 22.1992C20.4798 22.1992 20.4897 22.1992 20.4996 22.1992C20.5095 22.1992 20.5194 22.1992 20.5293 22.1992C20.5392 22.1992 20.5491 22.1992 20.559 22.1992C20.5689 22.1992 20.5788 22.1992 20.5886 22.1992C20.5985 22.1992 20.6084 22.1992 20.6182 22.1992C20.6281 22.1992 20.6379 22.1992 20.6478 22.1992C20.6576 22.1992 20.6674 22.1992 20.6772 22.1992C20.687 22.1992 20.6969 22.1992 20.7067 22.1992C20.7165 22.1992 20.7262 22.1992 20.736 22.1992C20.7458 22.1992 20.7556 22.1992 20.7654 22.1992C20.7751 22.1992 20.7849 22.1992 20.7946 22.1992C20.8044 22.1992 20.8141 22.1992 20.8238 22.1992C20.8336 22.1992 20.8433 22.1992 20.853 22.1992C20.8627 22.1992 20.8724 22.1992 20.8821 22.1992C20.8918 22.1992 20.9015 22.1992 20.9112 22.1992C20.9209 22.1992 20.9305 22.1992 20.9402 22.1992C20.9499 22.1992 20.9595 22.1992 20.9692 22.1992C20.9788 22.1992 20.9884 22.1992 20.9981 22.1992C21.0077 22.1992 21.0173 22.1992 21.0269 22.1992C21.0365 22.1992 21.0461 22.1992 21.0557 22.1992C21.0653 22.1992 21.0749 22.1992 21.0845 22.1992C21.094 22.1992 21.1036 22.1992 21.1132 22.1992C21.1227 22.1992 21.1323 22.1992 21.1418 22.1992C21.1513 22.1992 21.1609 22.1992 21.1704 22.1992C21.1799 22.1992 21.1894 22.1992 21.1989 22.1992C21.2084 22.1992 21.2179 22.1992 21.2274 22.1992C21.2369 22.1992 21.2463 22.1992 21.2558 22.1992C21.2652 22.1992 21.2747 22.1992 21.2841 22.1992C21.2936 22.1992 21.303 22.1992 21.3124 22.1992C21.3219 22.1992 21.3313 22.1992 21.3407 22.1992C21.3501 22.1992 21.3595 22.1992 21.3689 22.1992C21.3783 22.1992 21.3876 22.1992 21.397 22.1992C21.4064 22.1992 21.4157 22.1992 21.4251 22.1992C21.4344 22.1992 21.4438 22.1992 21.4531 22.1992C21.4624 22.1992 21.4718 22.1992 21.4811 22.1992C21.4904 22.1992 21.4997 22.1992 21.509 22.1992C21.5183 22.1992 21.5275 22.1992 21.5368 22.1992C21.5461 22.1992 21.5553 22.1992 21.5646 22.1992C21.5739 22.1992 21.5831 22.1992 21.5923 22.1992C21.6016 22.1992 21.6108 22.1992 21.62 22.1992C21.6292 22.1992 21.6384 22.1992 21.6476 22.1992C21.6568 22.1992 21.666 22.1992 21.6752 22.1992C21.6843 22.1992 21.6935 22.1992 21.7026 22.1992C21.7118 22.1992 21.7209 22.1992 21.7301 22.1992C21.7392 22.1992 21.7483 22.1992 21.7574 22.1992C21.7666 22.1992 21.7757 22.1992 21.7848 22.1992C21.7938 22.1992 21.8029 22.1992 21.812 22.1992C21.8211 22.1992 21.8301 22.1992 21.8392 22.1992C21.8482 22.1992 21.8573 22.1992 21.8663 22.1992C21.8753 22.1992 21.8844 22.1992 21.8934 22.1992C21.9024 22.1992 21.9114 22.1992 21.9204 22.1992C21.9294 22.1992 21.9384 22.1992 21.9473 22.1992C21.9563 22.1992 21.9653 22.1992 21.9742 22.1992C21.9832 22.1992 21.9921 22.1992 22.001 22.1992C22.0099 22.1992 22.0189 22.1992 22.0278 22.1992C22.0367 22.1992 22.0456 22.1992 22.0545 22.1992C22.0633 22.1992 22.0722 22.1992 22.0811 22.1992C22.09 22.1992 22.0988 22.1992 22.1077 22.1992C22.1165 22.1992 22.1253 22.1992 22.1341 22.1992C22.143 22.1992 22.1518 22.1992 22.1606 22.1992C22.1694 22.1992 22.1782 22.1992 22.187 22.1992C22.1957 22.1992 22.2045 22.1992 22.2133 22.1992C22.222 22.1992 22.2308 22.1992 22.2395 22.1992C22.2482 22.1992 22.257 22.1992 22.2657 22.1992C22.2744 22.1992 22.2831 22.1992 22.2918 22.1992C22.3005 22.1992 22.3092 22.1992 22.3178 22.1992C22.3265 22.1992 22.3352 22.1992 22.3438 22.1992C22.3525 22.1992 22.3611 22.1992 22.3697 22.1992C22.3784 22.1992 22.387 22.1992 22.3956 22.1992C22.4042 22.1992 22.4128 22.1992 22.4214 22.1992C22.4299 22.1992 22.4385 22.1992 22.4471 22.1992C22.4556 22.1992 22.4642 22.1992 22.4727 22.1992C22.4812 22.1992 22.4898 22.1992 22.4983 22.1992C22.5068 22.1992 22.5153 22.1992 22.5238 22.1992C22.5323 22.1992 22.5408 22.1992 22.5492 22.1992C22.5577 22.1992 22.5662 22.1992 22.5746 22.1992C22.5831 22.1992 22.5915 22.1992 22.5999 22.1992C22.6083 22.1992 22.6168 22.1992 22.6252 22.1992C22.6336 22.1992 22.6419 22.1992 22.6503 22.1992C22.6587 22.1992 22.6671 22.1992 22.6754 22.1992C22.6838 22.1992 22.6921 22.1992 22.7005 22.1992C22.7088 22.1992 22.7171 22.1992 22.7254 22.1992C22.7337 22.1992 22.742 22.1992 22.7503 22.1992C22.7586 22.1992 22.7669 22.1992 22.7751 22.1992C22.7834 22.1992 22.7916 22.1992 22.7999 22.1992C22.8081 22.1992 22.8163 22.1992 22.8245 22.1992C22.8328 22.1992 22.841 22.1992 22.8491 22.1992C22.8573 22.1992 22.8655 22.1992 22.8737 22.1992C22.8818 22.1992 22.89 22.1992 22.8981 22.1992C22.9063 22.1992 22.9144 22.1992 22.9225 22.1992C22.9307 22.1992 22.9388 22.1992 22.9469 22.1992C22.955 22.1992 22.963 22.1992 22.9711 22.1992C22.9792 22.1992 22.9872 22.1992 22.9953 22.1992C23.0033 22.1992 23.0114 22.1992 23.0194 22.1992C23.0274 22.1992 23.0354 22.1992 23.0434 22.1992C23.0514 22.1992 23.0594 22.1992 23.0674 22.1992C23.0753 22.1992 23.0833 22.1992 23.0912 22.1992C23.0992 22.1992 23.1071 22.1992 23.115 22.1992C23.123 22.1992 23.1309 22.1992 23.1388 22.1992C23.1467 22.1992 23.1546 22.1992 23.1624 22.1992C23.1703 22.1992 23.1782 22.1992 23.186 22.1992C23.1939 22.1992 23.2017 22.1992 23.2095 22.1992C23.2174 22.1992 23.2252 22.1992 23.233 22.1992C23.2408 22.1992 23.2485 22.1992 23.2563 22.1992C23.2641 22.1992 23.2719 22.1992 23.2796 22.1992C23.2874 22.1992 23.2951 22.1992 23.3028 22.1992C23.3105 22.1992 23.3182 22.1992 23.3259 22.1992C23.3336 22.1992 23.3413 22.1992 23.349 22.1992C23.3567 22.1992 23.3643 22.1992 23.372 22.1992C23.3796 22.1992 23.3872 22.1992 23.3949 22.1992C23.4025 22.1992 23.4101 22.1992 23.4177 22.1992C23.4253 22.1992 23.4329 22.1992 23.4404 22.1992C23.448 22.1992 23.4556 22.1992 23.4631 22.1992C23.4706 22.1992 23.4782 22.1992 23.4857 22.1992C23.4932 22.1992 23.5007 22.1992 23.5082 22.1992C23.5157 22.1992 23.5232 22.1992 23.5306 22.1992C23.5381 22.1992 23.5455 22.1992 23.553 22.1992C23.5604 22.1992 23.5678 22.1992 23.5753 22.1992C23.5827 22.1992 23.5901 22.1992 23.5975 22.1992C23.6048 22.1992 23.6122 22.1992 23.6196 22.1992C23.6269 22.1992 23.6343 22.1992 23.6416 22.1992C23.6489 22.1992 23.6563 22.1992 23.6636 22.1992C23.6709 22.1992 23.6782 22.1992 23.6854 22.1992C23.6927 22.1992 23.7 22.1992 23.7072 22.1992C23.7145 22.1992 23.7217 22.1992 23.7289 22.1992C23.7362 22.1992 23.7434 22.1992 23.7506 22.1992C23.7578 22.1992 23.7649 22.1992 23.7721 22.1992C23.7793 22.1992 23.7864 22.1992 23.7936 22.1992C23.8007 22.1992 23.8079 22.1992 23.815 22.1992C23.8221 22.1992 23.8292 22.1992 23.8363 22.1992C23.8434 22.1992 23.8504 22.1992 23.8575 22.1992V19.1992ZM7.9525 19.1992C5.54796 19.1992 3.6044 19.7676 2.11656 20.9286C0.632764 22.0865 -0.227631 23.7013 -0.721755 25.4704L2.16766 26.2775C2.54897 24.9122 3.13448 23.9396 3.96217 23.2937C4.78581 22.651 6.01932 22.1992 7.9525 22.1992V19.1992ZM-0.72171 25.4703C-1.10067 26.8265 -1.29533 27.8623 -1.3952 28.5772C-1.44513 28.9346 -1.47134 29.2115 -1.48506 29.4079C-1.49192 29.5061 -1.49565 29.5841 -1.49767 29.642C-1.49868 29.6709 -1.49927 29.6948 -1.49959 29.7136C-1.49976 29.7231 -1.49986 29.7312 -1.49992 29.7381C-1.49995 29.7416 -1.49997 29.7447 -1.49998 29.7475C-1.49999 29.7489 -1.49999 29.7502 -1.5 29.7515C-1.5 29.7521 -1.5 29.7527 -1.5 29.7533C-1.5 29.7536 -1.5 29.754 -1.5 29.7542C-1.5 29.7546 -1.5 29.755 0 29.755C1.5 29.755 1.5 29.7554 1.5 29.7558C1.5 29.7559 1.5 29.7563 1.5 29.7566C1.5 29.7571 1.5 29.7576 1.5 29.758C1.49999 29.759 1.49999 29.7598 1.49999 29.7606C1.49998 29.7622 1.49997 29.7634 1.49996 29.7643C1.49995 29.7661 1.49994 29.7667 1.49995 29.766C1.49997 29.7647 1.5001 29.7582 1.5005 29.7467C1.5013 29.7237 1.50321 29.6805 1.50765 29.617C1.51652 29.49 1.5355 29.2817 1.57594 28.9923C1.6568 28.4135 1.82363 27.5087 2.16762 26.2776L-0.72171 25.4703Z" fill="#ADB6CD" mask="url(#path-3-inside-1_58_425)"/>
<path d="M10.7226 13.7824L10.7227 13.7825C11.8835 15.3409 13.9023 16.0679 15.9048 16.0679C17.9843 16.0679 19.9226 15.344 21.0871 13.7824L10.7226 13.7824ZM10.7226 13.7824C10.2902 13.2021 9.95742 12.312 9.73741 11.2201M10.7226 13.7824L9.73741 11.2201M9.73741 11.2201C9.5201 10.1416 9.42529 8.9303 9.42529 7.7621M9.73741 11.2201L9.42529 7.7621M9.42529 7.7621C9.42529 6.29006 9.60806 4.53077 10.4831 3.15401C11.3172 1.84164 12.8635 0.75 15.9048 0.75C18.8732 0.75 20.4418 2.08079 21.3107 3.57961C22.2121 5.13429 22.3844 6.92539 22.3844 7.7621C22.3844 8.93022 22.2894 10.1415 22.072 11.22M9.42529 7.7621L22.072 11.22M22.072 11.22C21.852 12.3117 21.5193 13.2018 21.0872 13.7822L22.072 11.22Z" fill="#24354E" stroke="#ADB6CD" stroke-width="1.5" stroke-linejoin="round"/>
</svg>
