<svg width="26" height="25" viewBox="0 0 26 25" fill="none" xmlns="http://www.w3.org/2000/svg">
<path fill-rule="evenodd" clip-rule="evenodd" d="M2.87485 7.90813C2.08098 7.90813 1.43743 8.55167 1.43743 9.34556V13.6578C1.43743 14.4517 2.08098 15.0953 2.87485 15.0953H5.74971V7.90813H2.87485ZM5.74971 16.5327H4.31228V22.2824C4.31228 22.6793 4.63405 23.0011 5.03099 23.0011C5.42794 23.0011 5.74971 22.6793 5.74971 22.2824V16.5327ZM2.87485 16.5327C1.28711 16.5327 0 15.2455 0 13.6578V9.34556C0 7.75785 1.28711 6.4707 2.87485 6.4707H6.46842C6.86536 6.4707 7.18713 6.79247 7.18713 7.18942V22.2824C7.18713 23.4732 6.22183 24.4385 5.03099 24.4385C3.84016 24.4385 2.87485 23.4732 2.87485 22.2824V16.5327Z" fill="white"/>
<path fill-rule="evenodd" clip-rule="evenodd" d="M17.5905 0.0886831C17.8205 0.214918 17.9634 0.456398 17.9634 0.718714V7.90584C19.5511 7.90584 20.8382 9.19299 20.8382 10.7807V11.4994C20.8382 13.0871 19.5511 14.3743 17.9634 14.3743V21.5614C17.9634 21.8237 17.8205 22.0652 17.5905 22.1914C17.3606 22.3176 17.0801 22.3086 16.8588 22.1678L8.95295 17.1368C8.74568 17.0048 8.62012 16.7761 8.62012 16.5304V5.7497C8.62012 5.50398 8.74568 5.27528 8.95295 5.14333L16.8588 0.112365C17.0801 -0.0284672 17.3606 -0.0375444 17.5905 0.0886831ZM17.9634 12.9368C18.7573 12.9368 19.4008 12.2933 19.4008 11.4994V10.7807C19.4008 9.98681 18.7573 9.34327 17.9634 9.34327V12.9368ZM10.0575 6.14421V16.1359L16.526 20.2521V2.02797L10.0575 6.14421Z" fill="white"/>
<path fill-rule="evenodd" clip-rule="evenodd" d="M25.0384 7.50567C25.2585 7.83592 25.1693 8.28217 24.839 8.50231L22.6829 9.93974C22.3526 10.1599 21.9064 10.0707 21.6862 9.74044C21.466 9.41019 21.5553 8.96394 21.8855 8.74372L24.0417 7.3063C24.3719 7.08616 24.8182 7.17542 25.0384 7.50567ZM21.5655 12.2166C21.5655 11.8197 21.8873 11.4979 22.2842 11.4979H25.1591C25.556 11.4979 25.8778 11.8197 25.8778 12.2166C25.8778 12.6136 25.556 12.9353 25.1591 12.9353H22.2842C21.8873 12.9353 21.5655 12.6136 21.5655 12.2166ZM21.6862 14.6928C21.9064 14.3626 22.3526 14.2733 22.6829 14.4934L24.839 15.9309C25.1693 16.1511 25.2585 16.5973 25.0384 16.9276C24.8182 17.2578 24.3719 17.3471 24.0417 17.1269L21.8855 15.6894C21.5553 15.4693 21.466 15.023 21.6862 14.6928Z" fill="white"/>
</svg>
