<svg width="29" height="28" viewBox="0 0 29 28" fill="none" xmlns="http://www.w3.org/2000/svg">
<path d="M5.3418 0.7C5.3418 0.313404 5.68346 0 6.10495 0C6.52645 0 6.86811 0.313404 6.86811 0.7V4.9C6.86811 5.28661 6.52645 5.6 6.10495 5.6C5.68346 5.6 5.3418 5.28661 5.3418 4.9V0.7Z" fill="white"/>
<path d="M17.5527 0.7C17.5527 0.313404 17.8944 0 18.3159 0C18.7374 0 19.0791 0.313404 19.0791 0.7V4.9C19.0791 5.28661 18.7374 5.6 18.3159 5.6C17.8944 5.6 17.5527 5.28661 17.5527 4.9V0.7Z" fill="white"/>
<path fill-rule="evenodd" clip-rule="evenodd" d="M6.86806 13.2994H5.34175V14.6994H6.86806V13.2994ZM5.34175 11.8994C4.49876 11.8994 3.81543 12.5262 3.81543 13.2994V14.6994C3.81543 15.4726 4.49876 16.0994 5.34175 16.0994H6.86806C7.71105 16.0994 8.39438 15.4726 8.39438 14.6994V13.2994C8.39438 12.5262 7.71105 11.8994 6.86806 11.8994H5.34175Z" fill="white"/>
<path fill-rule="evenodd" clip-rule="evenodd" d="M12.9735 13.2994H11.4472V14.6994H12.9735V13.2994ZM11.4472 11.8994C10.6042 11.8994 9.9209 12.5262 9.9209 13.2994V14.6994C9.9209 15.4726 10.6042 16.0994 11.4472 16.0994H12.9735C13.8165 16.0994 14.4998 15.4726 14.4998 14.6994V13.2994C14.4998 12.5262 13.8165 11.8994 12.9735 11.8994H11.4472Z" fill="white"/>
<path fill-rule="evenodd" clip-rule="evenodd" d="M19.079 13.2994H17.5527V14.6994H19.079V13.2994ZM17.5527 11.8994C16.7097 11.8994 16.0264 12.5262 16.0264 13.2994V14.6994C16.0264 15.4726 16.7097 16.0994 17.5527 16.0994H19.079C19.922 16.0994 20.6053 15.4726 20.6053 14.6994V13.2994C20.6053 12.5262 19.922 11.8994 19.079 11.8994H17.5527Z" fill="white"/>
<path fill-rule="evenodd" clip-rule="evenodd" d="M6.86806 18.9H5.34175V20.3H6.86806V18.9ZM5.34175 17.5C4.49876 17.5 3.81543 18.1268 3.81543 18.9V20.3C3.81543 21.0732 4.49876 21.7 5.34175 21.7H6.86806C7.71105 21.7 8.39438 21.0732 8.39438 20.3V18.9C8.39438 18.1268 7.71105 17.5 6.86806 17.5H5.34175Z" fill="white"/>
<path fill-rule="evenodd" clip-rule="evenodd" d="M12.9735 18.9H11.4472V20.3H12.9735V18.9ZM11.4472 17.5C10.6042 17.5 9.9209 18.1268 9.9209 18.9V20.3C9.9209 21.0732 10.6042 21.7 11.4472 21.7H12.9735C13.8165 21.7 14.4998 21.0732 14.4998 20.3V18.9C14.4998 18.1268 13.8165 17.5 12.9735 17.5H11.4472Z" fill="white"/>
<path fill-rule="evenodd" clip-rule="evenodd" d="M3.05263 4.1998H21.3684C22.2114 4.1998 22.8947 4.82658 22.8947 5.5998V16.7998C23.4218 16.7998 23.9332 16.8611 24.4211 16.9762V5.5998C24.4211 4.05341 23.0543 2.7998 21.3684 2.7998H3.05263C1.36671 2.7998 0 4.05341 0 5.5998V22.3998C0 23.9462 1.36671 25.1998 3.05263 25.1998H17.6063C17.333 24.7665 17.1212 24.2965 16.9818 23.7998H3.05263C2.20967 23.7998 1.52632 23.173 1.52632 22.3998V5.5998C1.52632 4.82658 2.20967 4.1998 3.05263 4.1998Z" fill="white"/>
<path fill-rule="evenodd" clip-rule="evenodd" d="M23.6574 10.4996H0.762695V9.09961H23.6574V10.4996Z" fill="white"/>
<path fill-rule="evenodd" clip-rule="evenodd" d="M22.8943 26.5998C25.4232 26.5998 27.4733 24.7194 27.4733 22.3998C27.4733 20.0802 25.4232 18.1998 22.8943 18.1998C20.3654 18.1998 18.3154 20.0802 18.3154 22.3998C18.3154 24.7194 20.3654 26.5998 22.8943 26.5998ZM22.8943 27.9998C26.2662 27.9998 28.9996 25.4926 28.9996 22.3998C28.9996 19.307 26.2662 16.7998 22.8943 16.7998C19.5225 16.7998 16.7891 19.307 16.7891 22.3998C16.7891 25.4926 19.5225 27.9998 22.8943 27.9998Z" fill="white"/>
<path fill-rule="evenodd" clip-rule="evenodd" d="M22.895 19.0254C23.3165 19.0254 23.6582 19.3388 23.6582 19.7254V22.7341L25.529 23.9253C25.8753 24.1457 25.9611 24.5819 25.7207 24.8994C25.4804 25.217 25.0049 25.2958 24.6587 25.0754L22.1318 23.4665V19.7254C22.1318 19.3388 22.4735 19.0254 22.895 19.0254V19.0254Z" fill="white"/>
</svg>
