<svg width="32" height="33" viewBox="0 0 32 33" fill="none" xmlns="http://www.w3.org/2000/svg">
<path d="M5.74493 0.820709C5.74493 0.367448 6.11237 0 6.56564 0C7.01892 0 7.38635 0.367448 7.38635 0.820709V5.74496C7.38635 6.19824 7.01892 6.56567 6.56564 6.56567C6.11237 6.56567 5.74493 6.19824 5.74493 5.74496V0.820709Z" fill="white"/>
<path d="M18.8763 0.820709C18.8763 0.367448 19.2437 0 19.697 0C20.1503 0 20.5177 0.367448 20.5177 0.820709V5.74496C20.5177 6.19824 20.1503 6.56567 19.697 6.56567C19.2437 6.56567 18.8763 6.19824 18.8763 5.74496V0.820709Z" fill="white"/>
<path fill-rule="evenodd" clip-rule="evenodd" d="M7.38635 15.5936H5.74493V17.235H7.38635V15.5936ZM5.74493 13.9521C4.83838 13.9521 4.10352 14.687 4.10352 15.5936V17.235C4.10352 18.1415 4.83838 18.8764 5.74493 18.8764H7.38635C8.29291 18.8764 9.02777 18.1415 9.02777 17.235V15.5936C9.02777 14.687 8.29291 13.9521 7.38635 13.9521H5.74493Z" fill="white"/>
<path fill-rule="evenodd" clip-rule="evenodd" d="M13.952 15.5936H12.3106V17.235H13.952V15.5936ZM12.3106 13.9521C11.4041 13.9521 10.6692 14.687 10.6692 15.5936V17.235C10.6692 18.1415 11.4041 18.8764 12.3106 18.8764H13.952C14.8586 18.8764 15.5934 18.1415 15.5934 17.235V15.5936C15.5934 14.687 14.8586 13.9521 13.952 13.9521H12.3106Z" fill="white"/>
<path fill-rule="evenodd" clip-rule="evenodd" d="M20.5177 15.5936H18.8763V17.235H20.5177V15.5936ZM18.8763 13.9521C17.9697 13.9521 17.2349 14.687 17.2349 15.5936V17.235C17.2349 18.1415 17.9697 18.8764 18.8763 18.8764H20.5177C21.4243 18.8764 22.1591 18.1415 22.1591 17.235V15.5936C22.1591 14.687 21.4243 13.9521 20.5177 13.9521H18.8763Z" fill="white"/>
<path fill-rule="evenodd" clip-rule="evenodd" d="M7.38635 22.16H5.74493V23.8014H7.38635V22.16ZM5.74493 20.5186C4.83838 20.5186 4.10352 21.2534 4.10352 22.16V23.8014C4.10352 24.7079 4.83838 25.4428 5.74493 25.4428H7.38635C8.29291 25.4428 9.02777 24.7079 9.02777 23.8014V22.16C9.02777 21.2534 8.29291 20.5186 7.38635 20.5186H5.74493Z" fill="white"/>
<path fill-rule="evenodd" clip-rule="evenodd" d="M13.952 22.16H12.3106V23.8014H13.952V22.16ZM12.3106 20.5186C11.4041 20.5186 10.6692 21.2534 10.6692 22.16V23.8014C10.6692 24.7079 11.4041 25.4428 12.3106 25.4428H13.952C14.8586 25.4428 15.5934 24.7079 15.5934 23.8014V22.16C15.5934 21.2534 14.8586 20.5186 13.952 20.5186H12.3106Z" fill="white"/>
<path fill-rule="evenodd" clip-rule="evenodd" d="M3.28284 4.92462H22.9798C23.8864 4.92462 24.6213 5.65948 24.6213 6.56604V19.6974C25.188 19.6974 25.7381 19.7692 26.2627 19.9042V6.56604C26.2627 4.75298 24.7929 3.2832 22.9798 3.2832H3.28284C1.46977 3.2832 0 4.75298 0 6.56604V26.263C0 28.0761 1.46977 29.5459 3.28284 29.5459H18.934C18.6401 29.0379 18.4124 28.4868 18.2624 27.9045H3.28284C2.3763 27.9045 1.64142 27.1696 1.64142 26.263V6.56604C1.64142 5.65948 2.3763 4.92462 3.28284 4.92462Z" fill="white"/>
<path fill-rule="evenodd" clip-rule="evenodd" d="M25.4419 12.3113H0.820679V10.6699H25.4419V12.3113Z" fill="white"/>
<path fill-rule="evenodd" clip-rule="evenodd" d="M24.6213 31.1872C27.3409 31.1872 29.5455 28.9825 29.5455 26.2629C29.5455 23.5434 27.3409 21.3387 24.6213 21.3387C21.9017 21.3387 19.697 23.5434 19.697 26.2629C19.697 28.9825 21.9017 31.1872 24.6213 31.1872ZM24.6213 32.8286C28.2474 32.8286 31.1869 29.8891 31.1869 26.2629C31.1869 22.6368 28.2474 19.6973 24.6213 19.6973C20.9951 19.6973 18.0556 22.6368 18.0556 26.2629C18.0556 29.8891 20.9951 32.8286 24.6213 32.8286Z" fill="white"/>
<path fill-rule="evenodd" clip-rule="evenodd" d="M24.6212 22.3066C25.0745 22.3066 25.442 22.6741 25.442 23.1273V26.6548L27.4539 28.0514C27.8263 28.3099 27.9186 28.8213 27.6601 29.1936C27.4016 29.566 26.8903 29.6583 26.5179 29.3999L23.8005 27.5136V23.1273C23.8005 22.6741 24.168 22.3066 24.6212 22.3066Z" fill="white"/>
</svg>
