<svg width="39" height="27" viewBox="0 0 39 27" fill="none" xmlns="http://www.w3.org/2000/svg">
<path fill-rule="evenodd" clip-rule="evenodd" d="M35.1895 2.02554H3.19905C2.61012 2.02554 2.1327 2.47896 2.1327 3.03831V23.2937C2.1327 23.8531 2.61012 24.3065 3.19905 24.3065H35.1895C35.7785 24.3065 36.2559 23.8531 36.2559 23.2937V3.03831C36.2559 2.47896 35.7785 2.02554 35.1895 2.02554ZM3.19905 0C1.43227 0 0 1.36025 0 3.03831V23.2937C0 24.9718 1.43227 26.332 3.19905 26.332H35.1895C36.9564 26.332 38.3886 24.9718 38.3886 23.2937V3.03831C38.3886 1.36025 36.9564 0 35.1895 0H3.19905Z" fill="#ADB6CD"/>
<path d="M0 6.07666H38.3886V13.1661H0V6.07666Z" fill="#ADB6CD"/>
</svg>
