<svg width="30" height="32" viewBox="0 0 30 32" fill="none" xmlns="http://www.w3.org/2000/svg">
<path fill-rule="evenodd" clip-rule="evenodd" d="M13.8383 21.1364L8.75994 24.0684C7.15722 24.9938 6.60809 27.0432 7.53344 28.6458C8.4587 30.2486 10.5081 30.7977 12.1108 29.8723L17.1892 26.9403L13.8383 21.1364ZM7.92222 22.6175C5.51813 24.0054 4.69448 27.0795 6.08242 29.4835C7.47044 31.8876 10.5445 32.7113 12.9486 31.3234L19.1152 27.763C19.3155 27.6473 19.3842 27.3912 19.2685 27.1909L14.661 19.2105C14.5453 19.0101 14.2892 18.9415 14.0889 19.0572L7.92222 22.6175Z" fill="#BDC8E6"/>
<path fill-rule="evenodd" clip-rule="evenodd" d="M15.5056 20.6646L20.9467 17.5231C22.3491 16.7134 24.1423 17.194 24.952 18.5963C25.7616 19.9987 25.2811 21.7919 23.8788 22.6015L18.4376 25.743L15.5056 20.6646ZM20.109 16.0722C22.3127 14.7998 25.1306 15.5549 26.4029 17.7586C27.6752 19.9623 26.9202 22.7802 24.7165 24.0526L18.1871 27.8223C17.9867 27.9379 17.7306 27.8693 17.6149 27.669L13.4263 20.4141C13.3107 20.2138 13.3793 19.9576 13.5797 19.8419L20.109 16.0722Z" fill="#BDC8E6"/>
<path fill-rule="evenodd" clip-rule="evenodd" d="M19.2685 27.194C19.3842 27.3943 19.3155 27.6505 19.1152 27.7662L12.9486 31.3265C10.5445 32.7144 7.47044 31.8908 6.08242 29.4867C4.69448 27.0827 5.51813 24.0086 7.92222 22.6206L14.0889 19.0603C14.2892 18.9446 14.5453 19.0132 14.661 19.2136L20.1022 16.0722C22.3059 14.7998 25.1237 15.5549 26.3961 17.7586C27.6684 19.9623 26.9134 22.7802 24.7097 24.0526L19.2685 27.194ZM15.4987 20.6646L18.4308 25.743L23.8719 22.6015C25.2743 21.7919 25.7548 19.9987 24.9451 18.5963C24.1355 17.194 22.3423 16.7134 20.9399 17.5231L15.4987 20.6646ZM12.1108 29.8755C10.5081 30.8008 8.4587 30.2517 7.53344 28.649C6.60809 27.0463 7.15722 24.9969 8.75994 24.0716L13.8383 21.1395L17.1892 26.9434L12.1108 29.8755Z" fill="#BDC8E6"/>
<path fill-rule="evenodd" clip-rule="evenodd" d="M19.2814 10.2559C21.2443 12.2188 24.4268 12.2188 26.3896 10.2559C28.3526 8.29302 28.3526 5.11052 26.3896 3.14762C24.4268 1.18471 21.2443 1.18471 19.2814 3.14762C17.3185 5.11052 17.3185 8.29302 19.2814 10.2559ZM18.0967 11.4407C20.7138 14.0578 24.9572 14.0578 27.5744 11.4407C30.1916 8.82347 30.1916 4.58007 27.5744 1.96291C24.9572 -0.654302 20.7138 -0.654302 18.0967 1.96291C15.4795 4.58007 15.4795 8.82347 18.0967 11.4407Z" fill="#BDC8E6"/>
<path fill-rule="evenodd" clip-rule="evenodd" d="M26.542 11.2987L18.249 3.00572L19.1376 2.11719L27.4306 10.4102L26.542 11.2987Z" fill="#BDC8E6"/>
<path fill-rule="evenodd" clip-rule="evenodd" d="M11.3088 14.5728L7.19883 4.58864L1.67746 13.8672L11.3088 14.5728ZM8.74811 3.95088C8.22253 2.67417 6.46507 2.5454 5.75904 3.73186L0.237662 13.0103C-0.399257 14.0807 0.312865 15.4471 1.55503 15.5381L11.1864 16.2438C12.4285 16.3348 13.3322 15.0868 12.8581 13.935L8.74811 3.95088Z" fill="#BDC8E6"/>
</svg>
