<svg width="253" height="228" viewBox="0 0 253 228" fill="none" xmlns="http://www.w3.org/2000/svg">
<path fill-rule="evenodd" clip-rule="evenodd" d="M158.125 171V180.5C158.125 188.059 154.793 195.308 148.862 200.653C142.931 205.997 134.887 209 126.5 209C118.112 209 110.069 205.997 104.138 200.653C98.2069 195.308 94.875 188.059 94.875 180.5V171H52.7083C46.9104 171 42.1666 166.725 42.1666 161.5C42.1666 156.275 46.9104 152 52.7083 152H63.25V95C63.2519 81.5293 68.5459 68.4941 78.1938 58.205C87.8417 47.9159 101.22 41.0374 115.958 38.7885V28.5C115.958 25.9804 117.069 23.5641 119.046 21.7825C121.023 20.0009 123.704 19 126.5 19C129.296 19 131.977 20.0009 133.954 21.7825C135.931 23.5641 137.042 25.9804 137.042 28.5V38.7885C166.959 43.3105 189.75 66.7565 189.75 95V152H200.292C206.09 152 210.833 156.275 210.833 161.5C210.833 166.725 206.09 171 200.292 171H158.125ZM126.5 190C129.296 190 131.977 188.999 133.954 187.218C135.931 185.436 137.042 183.02 137.042 180.5V171H115.958V180.5C115.958 183.02 117.069 185.436 119.046 187.218C121.023 188.999 123.704 190 126.5 190ZM137.042 133V114H158.125C160.921 114 163.602 112.999 165.579 111.218C167.556 109.436 168.667 107.02 168.667 104.5C168.667 101.98 167.556 99.5641 165.579 97.7825C163.602 96.0009 160.921 95 158.125 95H137.042V76C137.042 73.4804 135.931 71.0641 133.954 69.2825C131.977 67.5009 129.296 66.5 126.5 66.5C123.704 66.5 121.023 67.5009 119.046 69.2825C117.069 71.0641 115.958 73.4804 115.958 76V95H94.875C92.0791 95 89.3978 96.0009 87.4209 97.7825C85.4439 99.5641 84.3333 101.98 84.3333 104.5C84.3333 107.02 85.4439 109.436 87.4209 111.218C89.3978 112.999 92.0791 114 94.875 114H115.958V133C115.958 135.52 117.069 137.936 119.046 139.718C121.023 141.499 123.704 142.5 126.5 142.5C129.296 142.5 131.977 141.499 133.954 139.718C135.931 137.936 137.042 135.52 137.042 133Z" fill="#ADB6CD"/>
</svg>
