<svg width="30" height="25" viewBox="0 0 30 25" fill="none" xmlns="http://www.w3.org/2000/svg">
<mask id="path-1-inside-1_58_392" fill="white">
<path fill-rule="evenodd" clip-rule="evenodd" d="M13.8838 18.4421C12.4582 17.2713 10.2712 15.6263 9.0655 15.8485C4.56208 16.6785 0 18.3709 0 20.917V25.0002H30V20.917C30 18.3709 25.4379 16.6785 20.9345 15.8485C19.7709 15.6341 17.5781 17.2908 16.1367 18.4544C15.9424 18.6112 15.7618 18.7591 15.5992 18.8923C15.3532 19.0936 15.1485 19.2613 15 19.3751C14.897 19.2908 14.7659 19.1802 14.6119 19.0503C14.406 18.8765 14.1591 18.6681 13.8838 18.4421ZM20.7142 17.0955C20.6396 17.1186 20.5252 17.161 20.3692 17.2339C19.9538 17.4282 19.4452 17.7427 18.8912 18.1339C18.1188 18.6793 17.4554 19.2235 16.9137 19.6679C16.6418 19.8909 16.4007 20.0888 16.1917 20.2491L14.9607 21.1932L13.7712 20.2196C13.6475 20.1184 13.5 19.994 13.3327 19.8528C12.7711 19.3791 11.9869 18.7177 11.1369 18.1175C10.5882 17.73 10.0831 17.4205 9.66925 17.2307C9.48633 17.1468 9.36958 17.1084 9.30875 17.0912C7.21283 17.4872 5.21183 18.0632 3.7635 18.7818C2.24385 19.5356 1.66667 20.2662 1.66667 20.917V23.7502H28.3333V20.917C28.3333 20.2662 27.7562 19.5356 26.2365 18.7818C24.7935 18.0658 22.8018 17.4914 20.7142 17.0955Z"/>
</mask>
<path fill-rule="evenodd" clip-rule="evenodd" d="M13.8838 18.4421C12.4582 17.2713 10.2712 15.6263 9.0655 15.8485C4.56208 16.6785 0 18.3709 0 20.917V25.0002H30V20.917C30 18.3709 25.4379 16.6785 20.9345 15.8485C19.7709 15.6341 17.5781 17.2908 16.1367 18.4544C15.9424 18.6112 15.7618 18.7591 15.5992 18.8923C15.3532 19.0936 15.1485 19.2613 15 19.3751C14.897 19.2908 14.7659 19.1802 14.6119 19.0503C14.406 18.8765 14.1591 18.6681 13.8838 18.4421ZM20.7142 17.0955C20.6396 17.1186 20.5252 17.161 20.3692 17.2339C19.9538 17.4282 19.4452 17.7427 18.8912 18.1339C18.1188 18.6793 17.4554 19.2235 16.9137 19.6679C16.6418 19.8909 16.4007 20.0888 16.1917 20.2491L14.9607 21.1932L13.7712 20.2196C13.6475 20.1184 13.5 19.994 13.3327 19.8528C12.7711 19.3791 11.9869 18.7177 11.1369 18.1175C10.5882 17.73 10.0831 17.4205 9.66925 17.2307C9.48633 17.1468 9.36958 17.1084 9.30875 17.0912C7.21283 17.4872 5.21183 18.0632 3.7635 18.7818C2.24385 19.5356 1.66667 20.2662 1.66667 20.917V23.7502H28.3333V20.917C28.3333 20.2662 27.7562 19.5356 26.2365 18.7818C24.7935 18.0658 22.8018 17.4914 20.7142 17.0955Z" fill="#ADB6CD"/>
<path d="M9.0655 15.8485L7.9781 9.94784L7.97791 9.94787L9.0655 15.8485ZM0 25.0002H-6V31.0002H0V25.0002ZM30 25.0002V31.0002H36V25.0002H30ZM20.9345 15.8485L22.0221 9.94787L22.0216 9.94778L20.9345 15.8485ZM16.1367 18.4544L19.9055 23.123L19.9055 23.123L16.1367 18.4544ZM15.5992 18.8923L11.7981 14.2499L11.7978 14.2501L15.5992 18.8923ZM15 19.3751L11.1995 24.018L14.8784 27.0294L18.6511 24.1364L15 19.3751ZM14.6119 19.0503L10.7418 23.6353L10.7427 23.636L14.6119 19.0503ZM20.3692 17.2339L17.8279 11.7986L17.827 11.7991L20.3692 17.2339ZM18.8912 18.1339L15.4303 13.2326L15.4302 13.2327L18.8912 18.1339ZM16.9137 19.6679L20.7191 24.3067L20.7192 24.3067L16.9137 19.6679ZM16.1917 20.2491L19.8431 25.0101L19.8434 25.0099L16.1917 20.2491ZM14.9607 21.1932L11.1603 25.8362L14.8395 28.8476L18.6121 25.9542L14.9607 21.1932ZM13.7712 20.2196L17.5715 15.5766L17.5707 15.5759L13.7712 20.2196ZM13.3327 19.8528L9.46416 24.4392L9.46445 24.4394L13.3327 19.8528ZM11.1369 18.1175L7.6756 23.0184L7.67587 23.0186L11.1369 18.1175ZM9.66925 17.2307L12.1714 11.7773L12.1701 11.7767L9.66925 17.2307ZM9.30875 17.0912L10.9401 11.3172L9.58186 10.9335L8.195 11.1955L9.30875 17.0912ZM3.7635 18.7818L6.42992 24.1567L6.43012 24.1566L3.7635 18.7818ZM1.66667 23.7502H-4.33333V29.7502H1.66667V23.7502ZM28.3333 23.7502V29.7502H34.3333V23.7502H28.3333ZM26.2365 18.7818L23.5698 24.1566L23.5701 24.1567L26.2365 18.7818ZM17.6916 13.8052C16.925 13.1757 15.7534 12.2489 14.4982 11.4895C13.8728 11.111 13.0587 10.6703 12.1387 10.3428C11.3188 10.0509 9.78287 9.61524 7.9781 9.94784L10.1529 21.7491C9.50753 21.868 8.99254 21.8289 8.69273 21.7851C8.38852 21.7406 8.1877 21.674 8.11434 21.6479C7.98801 21.6029 8.0359 21.605 8.2861 21.7564C8.5116 21.8928 8.79307 22.0843 9.12 22.3273C9.44127 22.5661 9.76513 22.8237 10.0761 23.079L17.6916 13.8052ZM7.97791 9.94787C5.46762 10.4106 2.58891 11.1679 0.177407 12.3643C-1.02217 12.9595 -2.41964 13.815 -3.58786 15.0574C-4.80463 16.3514 -6 18.3337 -6 20.917H6C6 22.2271 5.37489 23.0432 5.15424 23.2778C4.98214 23.4609 5.00666 23.3641 5.51053 23.1141C6.50592 22.6203 8.15997 22.1164 10.1531 21.7491L7.97791 9.94787ZM-6 20.917V25.0002H6V20.917H-6ZM0 31.0002H30V19.0002H0V31.0002ZM36 25.0002V20.917H24V25.0002H36ZM36 20.917C36 18.3337 34.8046 16.3514 33.5879 15.0574C32.4196 13.815 31.0222 12.9595 29.8226 12.3643C27.4111 11.1679 24.5324 10.4106 22.0221 9.94787L19.8469 21.7491C21.84 22.1164 23.4941 22.6203 24.4895 23.1141C24.9933 23.3641 25.0179 23.4609 24.8458 23.2778C24.6251 23.0432 24 22.2271 24 20.917H36ZM22.0216 9.94778C20.1798 9.60846 18.6205 10.0794 17.8347 10.367C16.9312 10.6976 16.1295 11.1379 15.5161 11.5119C14.2843 12.263 13.1187 13.1797 12.3678 13.7858L19.9055 23.123C20.2323 22.8592 20.5676 22.5951 20.9 22.3491C21.2378 22.0991 21.5287 21.9006 21.7634 21.7575C22.0239 21.5986 22.0786 21.5922 21.9586 21.6362C21.8887 21.6617 21.6853 21.7318 21.3746 21.78C21.0704 21.8273 20.5293 21.8748 19.8474 21.7492L22.0216 9.94778ZM12.3678 13.7858C12.1551 13.9576 11.959 14.1181 11.7981 14.2499L19.4002 23.5347C19.5646 23.4001 19.7298 23.2649 19.9055 23.123L12.3678 13.7858ZM11.7978 14.2501C11.5187 14.4787 11.4028 14.5726 11.3489 14.6139L18.6511 24.1364C18.8942 23.9499 19.1878 23.7086 19.4005 23.5345L11.7978 14.2501ZM18.8005 14.7323C18.7402 14.6829 18.6489 14.6061 18.4811 14.4645L10.7427 23.636C10.8829 23.7544 11.0538 23.8988 11.1995 24.018L18.8005 14.7323ZM18.482 14.4653C18.2772 14.2924 18.0018 14.0599 17.6913 13.8049L10.0764 23.0793C10.3164 23.2763 10.5348 23.4605 10.7418 23.6353L18.482 14.4653ZM18.9417 11.3633C18.5589 11.4817 18.1859 11.6313 17.8279 11.7986L22.9104 22.6692C22.8644 22.6907 22.7203 22.7555 22.4867 22.8277L18.9417 11.3633ZM17.827 11.7991C16.9469 12.2107 16.1074 12.7545 15.4303 13.2326L22.352 23.0352C22.5451 22.8988 22.6988 22.7982 22.8117 22.7292C22.9322 22.6556 22.9617 22.6452 22.9113 22.6687L17.827 11.7991ZM15.4302 13.2327C14.4593 13.9183 13.6426 14.5907 13.1082 15.0291L20.7192 24.3067C21.2682 23.8562 21.7784 23.4403 22.3521 23.0351L15.4302 13.2327ZM13.1082 15.0291C12.8117 15.2723 12.6544 15.4005 12.54 15.4883L19.8434 25.0099C20.1469 24.777 20.472 24.5094 20.7191 24.3067L13.1082 15.0291ZM12.5402 15.4881L11.3092 16.4322L18.6121 25.9542L19.8431 25.0101L12.5402 15.4881ZM18.761 16.5502L17.5715 15.5766L9.97082 24.8626L11.1603 25.8362L18.761 16.5502ZM17.5707 15.5759C17.4893 15.5093 17.3804 15.4177 17.2009 15.2662L9.46445 24.4394C9.61957 24.5703 9.80571 24.7275 9.97162 24.8632L17.5707 15.5759ZM17.2012 15.2665C16.6556 14.8063 15.6871 13.9855 14.598 13.2163L7.67587 23.0186C8.2867 23.45 8.88657 23.952 9.46416 24.4392L17.2012 15.2665ZM14.5982 13.2165C13.9135 12.7329 13.0659 12.1877 12.1714 11.7773L7.16714 22.684C7.10816 22.657 7.12953 22.6625 7.24159 22.7305C7.3461 22.7938 7.49143 22.8883 7.6756 23.0184L14.5982 13.2165ZM12.1701 11.7767C11.736 11.5776 11.3287 11.427 10.9401 11.3172L7.67741 22.8652C7.4105 22.7898 7.2367 22.7159 7.16839 22.6846L12.1701 11.7767ZM8.195 11.1955C5.84186 11.64 3.24026 12.3435 1.09688 13.4069L6.43012 24.1566C7.1834 23.7829 8.58381 23.3343 10.4225 22.9869L8.195 11.1955ZM1.09708 13.4068C-0.015451 13.9587 -1.23316 14.7139 -2.24163 15.7947C-3.29985 16.9288 -4.33333 18.6686 -4.33333 20.917H7.66667C7.66667 22.5146 6.92178 23.5637 6.53206 23.9814C6.19209 24.3457 6.0228 24.3587 6.42992 24.1567L1.09708 13.4068ZM-4.33333 20.917V23.7502H7.66667V20.917H-4.33333ZM1.66667 29.7502H28.3333V17.7502H1.66667V29.7502ZM34.3333 23.7502V20.917H22.3333V23.7502H34.3333ZM34.3333 20.917C34.3333 18.6686 33.2999 16.9288 32.2416 15.7947C31.2332 14.7139 30.0154 13.9587 28.9029 13.4068L23.5701 24.1567C23.9772 24.3587 23.8079 24.3457 23.4679 23.9814C23.0782 23.5637 22.3333 22.5145 22.3333 20.917H34.3333ZM28.9032 13.4069C26.767 12.3471 24.1765 11.6452 21.832 11.2006L19.5963 22.9905C21.4272 23.3377 22.82 23.7846 23.5698 24.1566L28.9032 13.4069Z" fill="#ADB6CD" mask="url(#path-1-inside-1_58_392)"/>
<mask id="path-3-inside-2_58_392" fill="white">
<path d="M20 20H25V21.25H20V20Z"/>
</mask>
<path d="M20 20H25V21.25H20V20Z" fill="#ADB6CD"/>
<path d="M20 20V14H14V20H20ZM25 20H31V14H25V20ZM25 21.25V27.25H31V21.25H25ZM20 21.25H14V27.25H20V21.25ZM20 26H25V14H20V26ZM19 20V21.25H31V20H19ZM25 15.25H20V27.25H25V15.25ZM26 21.25V20H14V21.25H26Z" fill="#ADB6CD" mask="url(#path-3-inside-2_58_392)"/>
<mask id="path-5-inside-3_58_392" fill="white">
<path d="M21.6665 22.5V18.75H23.3332V22.5H21.6665Z"/>
</mask>
<path d="M21.6665 22.5V18.75H23.3332V22.5H21.6665Z" fill="#ADB6CD"/>
<path d="M21.6665 22.5H15.6665V28.5H21.6665V22.5ZM21.6665 18.75V12.75H15.6665V18.75H21.6665ZM23.3332 18.75H29.3332V12.75H23.3332V18.75ZM23.3332 22.5V28.5H29.3332V22.5H23.3332ZM27.6665 22.5V18.75H15.6665V22.5H27.6665ZM21.6665 24.75H23.3332V12.75H21.6665V24.75ZM17.3332 18.75V22.5H29.3332V18.75H17.3332ZM23.3332 16.5H21.6665V28.5H23.3332V16.5Z" fill="#ADB6CD" mask="url(#path-5-inside-3_58_392)"/>
<mask id="path-7-inside-4_58_392" fill="white">
<path fill-rule="evenodd" clip-rule="evenodd" d="M15.0002 1.24999C13.134 1.24999 10.8094 1.71153 9.27941 2.07539C8.89633 2.1665 8.67141 2.48601 8.82383 2.80986L10.5103 6.39372C13.4997 5.68122 16.5007 5.68122 19.49 6.39372L21.1765 2.80986C21.3289 2.48601 21.1041 2.1665 20.721 2.07539C19.191 1.71153 16.8663 1.24999 15.0002 1.24999ZM8.77566 0.883864C10.3255 0.515272 12.8593 0 15.0002 0C17.141 0 19.6748 0.515272 21.2247 0.883864C22.5582 1.201 23.1952 2.27609 22.7482 3.22588L20.786 7.39546C20.7115 7.55377 20.5552 7.68296 20.3524 7.7539C20.1496 7.82484 19.9172 7.83159 19.7076 7.77265C16.5629 6.88822 13.4375 6.88822 10.2928 7.77265C10.0832 7.83159 9.85083 7.82484 9.648 7.7539C9.44516 7.68296 9.28883 7.55377 9.21433 7.39546L7.25216 3.22588C6.80525 2.27608 7.44216 1.201 8.77566 0.883864Z"/>
</mask>
<path fill-rule="evenodd" clip-rule="evenodd" d="M15.0002 1.24999C13.134 1.24999 10.8094 1.71153 9.27941 2.07539C8.89633 2.1665 8.67141 2.48601 8.82383 2.80986L10.5103 6.39372C13.4997 5.68122 16.5007 5.68122 19.49 6.39372L21.1765 2.80986C21.3289 2.48601 21.1041 2.1665 20.721 2.07539C19.191 1.71153 16.8663 1.24999 15.0002 1.24999ZM8.77566 0.883864C10.3255 0.515272 12.8593 0 15.0002 0C17.141 0 19.6748 0.515272 21.2247 0.883864C22.5582 1.201 23.1952 2.27609 22.7482 3.22588L20.786 7.39546C20.7115 7.55377 20.5552 7.68296 20.3524 7.7539C20.1496 7.82484 19.9172 7.83159 19.7076 7.77265C16.5629 6.88822 13.4375 6.88822 10.2928 7.77265C10.0832 7.83159 9.85083 7.82484 9.648 7.7539C9.44516 7.68296 9.28883 7.55377 9.21433 7.39546L7.25216 3.22588C6.80525 2.27608 7.44216 1.201 8.77566 0.883864Z" fill="#ADB6CD"/>
<path d="M9.27941 2.07539L7.89122 -3.76181L7.89111 -3.76178L9.27941 2.07539ZM8.82383 2.80986L14.2528 0.255105L14.2526 0.25488L8.82383 2.80986ZM10.5103 6.39372L5.0814 8.94847L7.15779 13.3609L11.9014 12.2302L10.5103 6.39372ZM19.49 6.39372L18.0988 12.2302L22.8425 13.3609L24.9189 8.94847L19.49 6.39372ZM21.1765 2.80986L15.7477 0.25488L15.7476 0.255106L21.1765 2.80986ZM20.721 2.07539L22.1093 -3.76178L22.1092 -3.76181L20.721 2.07539ZM21.2247 0.883864L22.613 -4.95333L22.6129 -4.95334L21.2247 0.883864ZM22.7482 3.22588L17.3193 0.670926L17.3193 0.67109L22.7482 3.22588ZM20.786 7.39546L15.3571 4.84067L15.3571 4.84067L20.786 7.39546ZM19.7076 7.77265L18.0831 13.5486L18.0833 13.5486L19.7076 7.77265ZM10.2928 7.77265L11.9171 13.5486L11.9173 13.5486L10.2928 7.77265ZM9.21433 7.39546L14.6432 4.84067L14.6432 4.84067L9.21433 7.39546ZM7.25216 3.22588L1.82314 5.78044L1.82326 5.78068L7.25216 3.22588ZM15.0002 -4.75001C12.3895 -4.75001 9.48939 -4.14189 7.89122 -3.76181L10.6676 7.91259C12.1294 7.56494 13.8785 7.24999 15.0002 7.24999V-4.75001ZM7.89111 -3.76178C6.48123 -3.42646 4.88144 -2.55839 3.81015 -0.899152C2.63402 0.922474 2.41198 3.27611 3.39501 5.36484L14.2526 0.25488C15.0833 2.01976 14.8975 4.05171 13.8915 5.60985C12.9903 7.00559 11.6945 7.66835 10.6677 7.91256L7.89111 -3.76178ZM3.3949 5.36462L5.0814 8.94847L15.9393 3.83896L14.2528 0.255105L3.3949 5.36462ZM11.9014 12.2302C13.9762 11.7357 16.0242 11.7357 18.0988 12.2302L20.8811 0.55722C16.9773 -0.373282 13.0231 -0.373273 9.11922 0.557211L11.9014 12.2302ZM24.9189 8.94847L26.6054 5.36462L15.7476 0.255106L14.0611 3.83896L24.9189 8.94847ZM26.6053 5.36484C27.5881 3.27669 27.3666 0.923304 26.1906 -0.898594C25.1193 -2.55819 23.5193 -3.42642 22.1093 -3.76178L19.3327 7.91256C18.3057 7.66831 17.0097 7.00539 16.1085 5.60929C15.1026 4.05088 14.9173 2.01918 15.7477 0.25488L26.6053 5.36484ZM22.1092 -3.76181C20.511 -4.14189 17.6108 -4.75001 15.0002 -4.75001V7.24999C16.1219 7.24999 17.871 7.56495 19.3328 7.91259L22.1092 -3.76181ZM10.1639 6.72105C11.6433 6.36921 13.6027 6 15.0002 6V-6C12.1159 -6 9.00767 -5.33867 7.38742 -4.95333L10.1639 6.72105ZM15.0002 6C16.3976 6 18.357 6.36921 19.8366 6.72107L22.6129 -4.95334C20.9927 -5.33866 17.8844 -6 15.0002 -6V6ZM19.8365 6.72106C19.2593 6.58378 18.292 6.14592 17.5827 5.02388C16.8153 3.81006 16.6242 2.14795 17.3193 0.670926L28.177 5.78084C29.3191 3.35403 29.0331 0.67947 27.7256 -1.38862C26.4762 -3.36494 24.5237 -4.49891 22.613 -4.95333L19.8365 6.72106ZM17.3193 0.67109L15.3571 4.84067L26.2149 9.95026L28.1771 5.78068L17.3193 0.67109ZM15.3571 4.84067C16.1185 3.22272 17.4234 2.4219 18.3717 2.09027L22.3332 13.4175C23.687 12.944 25.3045 11.8848 26.2149 9.95026L15.3571 4.84067ZM18.3717 2.09027C19.347 1.74915 20.3736 1.72722 21.3318 1.99669L18.0833 13.5486C19.4607 13.936 20.9521 13.9005 22.3332 13.4175L18.3717 2.09027ZM21.332 1.99674C17.125 0.813519 12.8754 0.813519 8.66836 1.99674L11.9173 13.5486C13.9996 12.9629 16.0008 12.9629 18.0831 13.5486L21.332 1.99674ZM8.66856 1.99669C9.62679 1.72722 10.6534 1.74915 11.6287 2.09027L7.66725 13.4175C9.04829 13.9005 10.5397 13.936 11.9171 13.5486L8.66856 1.99669ZM11.6287 2.09027C12.5757 2.42145 13.8814 3.22173 14.6432 4.84067L3.78542 9.95026C4.69628 11.8858 6.31464 12.9445 7.66725 13.4175L11.6287 2.09027ZM14.6432 4.84067L12.6811 0.67109L1.82326 5.78068L3.78542 9.95026L14.6432 4.84067ZM12.6812 0.67133C13.3762 2.14832 13.185 3.81028 12.4177 5.02396C11.7083 6.14592 10.7411 6.58377 10.1639 6.72106L7.38745 -4.95333C5.47668 -4.49891 3.52427 -3.36495 2.27483 -1.38872C0.967391 0.67924 0.681247 3.35364 1.82314 5.78044L12.6812 0.67133Z" fill="#ADB6CD" mask="url(#path-7-inside-4_58_392)"/>
<mask id="path-9-inside-5_58_392" fill="white">
<path d="M12.5 3.125H17.5V4.37499H12.5V3.125Z"/>
</mask>
<path d="M12.5 3.125H17.5V4.37499H12.5V3.125Z" fill="#ADB6CD"/>
<path d="M12.5 3.125V-2.875H6.5V3.125H12.5ZM17.5 3.125H23.5V-2.875H17.5V3.125ZM17.5 4.37499V10.375H23.5V4.37499H17.5ZM12.5 4.37499H6.5V10.375H12.5V4.37499ZM12.5 9.125H17.5V-2.875H12.5V9.125ZM11.5 3.125V4.37499H23.5V3.125H11.5ZM17.5 -1.62501H12.5V10.375H17.5V-1.62501ZM18.5 4.37499V3.125H6.5V4.37499H18.5Z" fill="#ADB6CD" mask="url(#path-9-inside-5_58_392)"/>
<mask id="path-11-inside-6_58_392" fill="white">
<path d="M14.1665 5.62498V1.875H15.8332V5.62498H14.1665Z"/>
</mask>
<path d="M14.1665 5.62498V1.875H15.8332V5.62498H14.1665Z" fill="#ADB6CD"/>
<path d="M14.1665 5.62498H8.1665V11.625H14.1665V5.62498ZM14.1665 1.875V-4.125H8.1665V1.875H14.1665ZM15.8332 1.875H21.8332V-4.125H15.8332V1.875ZM15.8332 5.62498V11.625H21.8332V5.62498H15.8332ZM20.1665 5.62498V1.875H8.1665V5.62498H20.1665ZM14.1665 7.875H15.8332V-4.125H14.1665V7.875ZM9.83317 1.875V5.62498H21.8332V1.875H9.83317ZM15.8332 -0.375019H14.1665V11.625H15.8332V-0.375019Z" fill="#ADB6CD" mask="url(#path-11-inside-6_58_392)"/>
<mask id="path-13-inside-7_58_392" fill="white">
<path fill-rule="evenodd" clip-rule="evenodd" d="M10.6248 7.10648C9.71675 7.8781 9.16667 8.89016 9.16667 10.0002C9.16667 12.4164 11.7783 14.3751 15 14.3751C18.2217 14.3751 20.8333 12.4164 20.8333 10.0002C20.8333 8.89016 20.2832 7.8781 19.3752 7.10648L20.6248 6.2793C21.7913 7.27054 22.5 8.57404 22.5 10.0002C22.5 13.1068 19.1422 15.6251 15 15.6251C10.8578 15.6251 7.5 13.1068 7.5 10.0002C7.5 8.57404 8.20875 7.27054 9.37525 6.2793L10.6248 7.10648Z"/>
</mask>
<path fill-rule="evenodd" clip-rule="evenodd" d="M10.6248 7.10648C9.71675 7.8781 9.16667 8.89016 9.16667 10.0002C9.16667 12.4164 11.7783 14.3751 15 14.3751C18.2217 14.3751 20.8333 12.4164 20.8333 10.0002C20.8333 8.89016 20.2832 7.8781 19.3752 7.10648L20.6248 6.2793C21.7913 7.27054 22.5 8.57404 22.5 10.0002C22.5 13.1068 19.1422 15.6251 15 15.6251C10.8578 15.6251 7.5 13.1068 7.5 10.0002C7.5 8.57404 8.20875 7.27054 9.37525 6.2793L10.6248 7.10648Z" fill="#ADB6CD"/>
<path d="M10.6248 7.10648L14.5101 11.6786L20.5926 6.50966L13.9368 2.10345L10.6248 7.10648ZM19.3752 7.10648L16.0632 2.10345L9.40741 6.50966L15.4899 11.6786L19.3752 7.10648ZM20.6248 6.2793L24.51 1.70712L21.0733 -1.21328L17.3127 1.27627L20.6248 6.2793ZM9.37525 6.2793L12.6873 1.27627L8.92673 -1.21328L5.49 1.70712L9.37525 6.2793ZM6.73938 2.5344C4.78254 4.19733 3.16667 6.77881 3.16667 10.0002H15.1667C15.1667 11.0015 14.651 11.5589 14.5101 11.6786L6.73938 2.5344ZM3.16667 10.0002C3.16667 13.5202 5.08304 16.2496 7.27522 17.8937C9.46556 19.5365 12.2165 20.3751 15 20.3751V8.37513C14.5618 8.37513 14.3961 8.23441 14.4752 8.29372C14.5252 8.33124 14.6884 8.467 14.8513 8.75576C15.0236 9.06132 15.1667 9.49352 15.1667 10.0002H3.16667ZM15 20.3751C17.7835 20.3751 20.5344 19.5365 22.7248 17.8937C24.917 16.2496 26.8333 13.5202 26.8333 10.0002H14.8333C14.8333 9.49352 14.9764 9.06132 15.1487 8.75576C15.3116 8.467 15.4748 8.33124 15.5248 8.29372C15.6039 8.23441 15.4382 8.37513 15 8.37513V20.3751ZM26.8333 10.0002C26.8333 6.77881 25.2175 4.19733 23.2606 2.5344L15.4899 11.6786C15.349 11.5589 14.8333 11.0015 14.8333 10.0002H26.8333ZM22.6873 12.1095L23.9368 11.2823L17.3127 1.27627L16.0632 2.10345L22.6873 12.1095ZM16.7395 10.8515C16.7961 10.8995 16.741 10.8703 16.6641 10.7208C16.5803 10.5578 16.5 10.3046 16.5 10.0002H28.5C28.5 6.46187 26.7247 3.58909 24.51 1.70712L16.7395 10.8515ZM16.5 10.0002C16.5 9.66612 16.5964 9.39836 16.6844 9.24233C16.7629 9.10312 16.8041 9.10203 16.7033 9.17761C16.4808 9.34449 15.8984 9.62513 15 9.62513V21.6251C18.2437 21.6251 21.4113 20.6466 23.9033 18.7776C26.3971 16.9073 28.5 13.8654 28.5 10.0002H16.5ZM15 9.62513C14.1016 9.62513 13.5192 9.34449 13.2967 9.17761C13.1959 9.10203 13.2371 9.10312 13.3156 9.24233C13.4036 9.39836 13.5 9.66612 13.5 10.0002H1.5C1.5 13.8654 3.60289 16.9073 6.0967 18.7776C8.58865 20.6466 11.7563 21.6251 15 21.6251V9.62513ZM13.5 10.0002C13.5 10.3046 13.4197 10.5578 13.3359 10.7208C13.259 10.8703 13.2039 10.8995 13.2605 10.8515L5.49 1.70712C3.27528 3.58909 1.5 6.46187 1.5 10.0002H13.5ZM6.06319 11.2823L7.31269 12.1095L13.9368 2.10345L12.6873 1.27627L6.06319 11.2823Z" fill="#ADB6CD" mask="url(#path-13-inside-7_58_392)"/>
</svg>
