<svg width="30" height="25" viewBox="0 0 30 25" fill="none" xmlns="http://www.w3.org/2000/svg">
<path fill-rule="evenodd" clip-rule="evenodd" d="M13.8838 18.4421C12.4582 17.2713 10.2712 15.6263 9.0655 15.8485C4.56208 16.6785 0 18.3709 0 20.917V25.0002H30V20.917C30 18.3709 25.4379 16.6785 20.9345 15.8485C19.7709 15.6341 17.5781 17.2908 16.1367 18.4544C15.9424 18.6112 15.7618 18.7591 15.5992 18.8923C15.3532 19.0936 15.1485 19.2613 15 19.3751C14.897 19.2908 14.7659 19.1802 14.6119 19.0503C14.406 18.8765 14.1591 18.6681 13.8838 18.4421V18.4421ZM20.7142 17.0955C20.6396 17.1186 20.5252 17.161 20.3692 17.2339C19.9538 17.4282 19.4452 17.7427 18.8912 18.1339C18.1188 18.6793 17.4554 19.2235 16.9137 19.6679C16.6418 19.8909 16.4007 20.0888 16.1917 20.2491L14.9607 21.1932L13.7712 20.2196C13.6475 20.1184 13.5 19.994 13.3327 19.8528C12.7711 19.3791 11.9869 18.7177 11.1369 18.1175C10.5882 17.73 10.0831 17.4205 9.66925 17.2307C9.48633 17.1468 9.36958 17.1084 9.30875 17.0912C7.21283 17.4872 5.21183 18.0632 3.7635 18.7818C2.24385 19.5356 1.66667 20.2662 1.66667 20.917V23.7502H28.3333V20.917C28.3333 20.2662 27.7562 19.5356 26.2365 18.7818C24.7935 18.0658 22.8018 17.4914 20.7142 17.0955V17.0955Z" fill="#3C77C6"/>
<path d="M20 20H25V21.25H20V20Z" fill="#3C77C6"/>
<path d="M21.6665 22.5V18.75H23.3332V22.5H21.6665Z" fill="#3C77C6"/>
<path fill-rule="evenodd" clip-rule="evenodd" d="M15.0002 1.24999C13.134 1.24999 10.8094 1.71153 9.27941 2.07539C8.89633 2.1665 8.67141 2.48601 8.82383 2.80986L10.5103 6.39372C13.4997 5.68122 16.5007 5.68122 19.49 6.39372L21.1765 2.80986C21.3289 2.48601 21.1041 2.1665 20.721 2.07539C19.191 1.71153 16.8663 1.24999 15.0002 1.24999ZM8.77566 0.883864C10.3255 0.515272 12.8593 0 15.0002 0C17.141 0 19.6748 0.515272 21.2247 0.883864C22.5582 1.201 23.1952 2.27609 22.7482 3.22588L20.786 7.39546C20.7115 7.55377 20.5552 7.68296 20.3524 7.7539C20.1496 7.82484 19.9172 7.83159 19.7076 7.77265C16.5629 6.88822 13.4375 6.88822 10.2928 7.77265C10.0832 7.83159 9.85083 7.82484 9.648 7.7539C9.44516 7.68296 9.28883 7.55377 9.21433 7.39546L7.25216 3.22588C6.80525 2.27608 7.44216 1.201 8.77566 0.883864V0.883864Z" fill="#3C77C6"/>
<path d="M12.5 3.125H17.5V4.37499H12.5V3.125Z" fill="#3C77C6"/>
<path d="M14.1665 5.62498V1.875H15.8332V5.62498H14.1665Z" fill="#3C77C6"/>
<path fill-rule="evenodd" clip-rule="evenodd" d="M10.6248 7.10648C9.71675 7.8781 9.16667 8.89016 9.16667 10.0002C9.16667 12.4164 11.7783 14.3751 15 14.3751C18.2217 14.3751 20.8333 12.4164 20.8333 10.0002C20.8333 8.89016 20.2832 7.8781 19.3752 7.10648L20.6248 6.2793C21.7913 7.27054 22.5 8.57404 22.5 10.0002C22.5 13.1068 19.1422 15.6251 15 15.6251C10.8578 15.6251 7.5 13.1068 7.5 10.0002C7.5 8.57404 8.20875 7.27054 9.37525 6.2793L10.6248 7.10648Z" fill="#3C77C6"/>
</svg>
