<svg width="27" height="32" viewBox="0 0 27 32" fill="none" xmlns="http://www.w3.org/2000/svg">
<path fill-rule="evenodd" clip-rule="evenodd" d="M11.3368 1.82857C12.8014 1.82857 14.0046 2.76425 14.0046 3.90318C14.0046 5.04219 12.8014 5.97787 11.3368 5.97787C9.87231 5.97787 8.66916 5.04219 8.66916 3.90318C8.66916 2.76425 9.87231 1.82857 11.3368 1.82857ZM16.3559 3.90318C16.3559 1.75436 14.1 0 11.3368 0C8.5737 0 6.31787 1.75436 6.31787 3.90318C6.31787 6.05211 8.5737 7.80645 11.3368 7.80645C14.1 7.80645 16.3559 6.05211 16.3559 3.90318Z" fill="#ADB6CD"/>
<path fill-rule="evenodd" clip-rule="evenodd" d="M19.0237 7.62385C18.8005 7.42709 18.4794 7.31445 18.1421 7.31445H5.57164V9.14302H17.6117L24.2841 15.0241C24.8275 15.5031 24.7546 16.2365 24.123 16.6448C23.5032 17.0455 22.5827 16.9785 22.0691 16.4954L18.2427 12.8958C18.1155 12.4976 17.6529 12.2026 17.1017 12.2026C16.4523 12.2026 15.926 12.6119 15.926 13.1169V29.3102C15.926 29.6272 15.5877 29.8904 15.1799 29.8904C14.7724 29.8904 14.434 29.6272 14.434 29.3102V21.8379C14.434 21.3329 13.9077 20.9236 13.2584 20.9236H9.41494C8.76563 20.9236 8.2393 21.3329 8.2393 21.8379V29.3102C8.2393 29.6272 7.90095 29.8904 7.49323 29.8904C7.08564 29.8904 6.74729 29.6272 6.74729 29.3102V15.543H4.396V29.3102C4.396 30.6371 5.78702 31.7189 7.49323 31.7189C9.19945 31.7189 10.5906 30.6371 10.5906 29.3102V22.7522H12.0827V29.3102C12.0827 30.6371 13.4737 31.7189 15.1799 31.7189C16.8862 31.7189 18.2773 30.6371 18.2773 29.3102V15.7982L20.2569 17.6605C21.5994 18.9235 24.0056 19.0985 25.626 18.051C27.2772 16.9837 27.4678 15.0663 26.0473 13.8143L19.0237 7.62385Z" fill="#ADB6CD"/>
<path fill-rule="evenodd" clip-rule="evenodd" d="M13.6863 17.6861C14.0122 17.1791 13.7892 16.5625 13.1711 16.2621L5.76251 12.661C5.21195 12.3934 5.04454 11.8294 5.38865 11.4011C5.73276 10.973 6.45813 10.8428 7.00869 11.1104L14.4174 14.7115C16.0633 15.5116 16.6574 17.1536 15.7895 18.5038C14.7835 20.0686 12.2494 20.6026 10.3652 19.647L2.66127 15.7397C0.22334 14.5033 -0.67015 12.0569 0.529125 10.0049C1.48128 8.37576 3.57757 7.31436 5.88713 7.31445L11.6762 7.31482L11.6761 9.14339L5.88701 9.14302C4.50809 9.14293 3.24381 9.77928 2.66974 10.7616C1.94613 11.9996 2.49116 13.4704 3.94566 14.2081L11.6495 18.1154C12.357 18.4741 13.3086 18.2736 13.6863 17.6861Z" fill="#ADB6CD"/>
<path fill-rule="evenodd" clip-rule="evenodd" d="M7.15527 16.4259L14.2091 7.74023L16.197 8.71669L9.14317 17.4023L7.15527 16.4259Z" fill="#ADB6CD"/>
<path fill-rule="evenodd" clip-rule="evenodd" d="M19.9058 21.029C19.9058 19.5141 21.4849 18.2861 23.4327 18.2861C25.3806 18.2861 26.9596 19.5141 26.9596 21.029V31.0861C26.9596 31.5911 26.4333 32.0004 25.784 32.0004C25.1347 32.0004 24.6083 31.5911 24.6083 31.0861V21.029C24.6083 20.524 24.082 20.1147 23.4327 20.1147C22.7834 20.1147 22.2571 20.524 22.2571 21.029V21.4861C22.2571 21.9911 21.7307 22.4004 21.0814 22.4004C20.4321 22.4004 19.9058 21.9911 19.9058 21.4861V21.029Z" fill="#ADB6CD"/>
</svg>
