<svg width="30" height="27" viewBox="0 0 30 27" fill="none" xmlns="http://www.w3.org/2000/svg">
<path d="M5.37921 0.658301C5.37921 0.294734 5.72325 0 6.14767 0C6.57209 0 6.91613 0.294734 6.91613 0.658301V4.60811C6.91613 4.97168 6.57209 5.26641 6.14767 5.26641C5.72325 5.26641 5.37921 4.97168 5.37921 4.60811V0.658301Z" fill="#ADB6CD"/>
<path d="M17.6746 0.658301C17.6746 0.294734 18.0186 0 18.443 0C18.8674 0 19.2115 0.294734 19.2115 0.658301V4.60811C19.2115 4.97168 18.8674 5.26641 18.443 5.26641C18.0186 5.26641 17.6746 4.97168 17.6746 4.60811V0.658301Z" fill="#ADB6CD"/>
<path fill-rule="evenodd" clip-rule="evenodd" d="M6.91612 12.5078H5.3792V13.8244H6.91612V12.5078ZM5.3792 11.1912C4.53036 11.1912 3.84229 11.7806 3.84229 12.5078V13.8244C3.84229 14.5515 4.53036 15.141 5.3792 15.141H6.91612C7.76495 15.141 8.45303 14.5515 8.45303 13.8244V12.5078C8.45303 11.7806 7.76495 11.1912 6.91612 11.1912H5.3792Z" fill="#ADB6CD"/>
<path fill-rule="evenodd" clip-rule="evenodd" d="M13.0638 12.5078H11.5268V13.8244H13.0638V12.5078ZM11.5268 11.1912C10.678 11.1912 9.98993 11.7806 9.98993 12.5078V13.8244C9.98993 14.5515 10.678 15.141 11.5268 15.141H13.0638C13.9126 15.141 14.6007 14.5515 14.6007 13.8244V12.5078C14.6007 11.7806 13.9126 11.1912 13.0638 11.1912H11.5268Z" fill="#ADB6CD"/>
<path fill-rule="evenodd" clip-rule="evenodd" d="M19.2115 12.5078H17.6745V13.8244H19.2115V12.5078ZM17.6745 11.1912C16.8257 11.1912 16.1376 11.7806 16.1376 12.5078V13.8244C16.1376 14.5515 16.8257 15.141 17.6745 15.141H19.2115C20.0603 15.141 20.7484 14.5515 20.7484 13.8244V12.5078C20.7484 11.7806 20.0603 11.1912 19.2115 11.1912H17.6745Z" fill="#ADB6CD"/>
<path fill-rule="evenodd" clip-rule="evenodd" d="M6.91612 17.7741H5.3792V19.0907H6.91612V17.7741ZM5.3792 16.4575C4.53036 16.4575 3.84229 17.047 3.84229 17.7741V19.0907C3.84229 19.8179 4.53036 20.4073 5.3792 20.4073H6.91612C7.76495 20.4073 8.45303 19.8179 8.45303 19.0907V17.7741C8.45303 17.047 7.76495 16.4575 6.91612 16.4575H5.3792Z" fill="#ADB6CD"/>
<path fill-rule="evenodd" clip-rule="evenodd" d="M13.0638 17.7741H11.5268V19.0907H13.0638V17.7741ZM11.5268 16.4575C10.678 16.4575 9.98993 17.047 9.98993 17.7741V19.0907C9.98993 19.8179 10.678 20.4073 11.5268 20.4073H13.0638C13.9126 20.4073 14.6007 19.8179 14.6007 19.0907V17.7741C14.6007 17.047 13.9126 16.4575 13.0638 16.4575H11.5268Z" fill="#ADB6CD"/>
<path fill-rule="evenodd" clip-rule="evenodd" d="M3.07383 3.9499H21.5168C22.3656 3.9499 23.0537 4.53934 23.0537 5.2665V15.7993C23.5844 15.7993 24.0994 15.8569 24.5906 15.9652V5.2665C24.5906 3.81223 23.2144 2.6333 21.5168 2.6333H3.07383C1.3762 2.6333 0 3.81223 0 5.2665V21.0657C0 22.52 1.3762 23.6989 3.07383 23.6989H17.7285C17.4534 23.2914 17.2401 22.8494 17.0997 22.3823H3.07383C2.22501 22.3823 1.53692 21.7929 1.53692 21.0657V5.2665C1.53692 4.53934 2.22501 3.9499 3.07383 3.9499Z" fill="#ADB6CD"/>
<path fill-rule="evenodd" clip-rule="evenodd" d="M23.8222 9.87471H0.768433V8.55811H23.8222V9.87471Z" fill="#ADB6CD"/>
<path fill-rule="evenodd" clip-rule="evenodd" d="M23.0537 25.0155C25.6002 25.0155 27.6645 23.2471 27.6645 21.0657C27.6645 18.8843 25.6002 17.1159 23.0537 17.1159C20.5073 17.1159 18.443 18.8843 18.443 21.0657C18.443 23.2471 20.5073 25.0155 23.0537 25.0155ZM23.0537 26.3321C26.449 26.3321 29.2014 23.9743 29.2014 21.0657C29.2014 18.1572 26.449 15.7993 23.0537 15.7993C19.6585 15.7993 16.9061 18.1572 16.9061 21.0657C16.9061 23.9743 19.6585 26.3321 23.0537 26.3321Z" fill="#ADB6CD"/>
<path fill-rule="evenodd" clip-rule="evenodd" d="M23.0537 17.8918C23.4782 17.8918 23.8222 18.1866 23.8222 18.5501V21.3796L25.7061 22.4998C26.0547 22.7071 26.1412 23.1173 25.8991 23.416C25.6571 23.7146 25.1783 23.7887 24.8296 23.5814L22.2853 22.0684V18.5501C22.2853 18.1866 22.6293 17.8918 23.0537 17.8918Z" fill="#ADB6CD"/>
</svg>
