<svg width="27" height="32" viewBox="0 0 27 32" fill="none" xmlns="http://www.w3.org/2000/svg">
<path fill-rule="evenodd" clip-rule="evenodd" d="M11.3363 1.82857C12.8009 1.82857 14.0041 2.76425 14.0041 3.90318C14.0041 5.04219 12.8009 5.97787 11.3363 5.97787C9.87183 5.97787 8.66867 5.04219 8.66867 3.90318C8.66867 2.76425 9.87183 1.82857 11.3363 1.82857ZM16.3554 3.90318C16.3554 1.75436 14.0996 0 11.3363 0C8.57321 0 6.31738 1.75436 6.31738 3.90318C6.31738 6.05211 8.57321 7.80645 11.3363 7.80645C14.0996 7.80645 16.3554 6.05211 16.3554 3.90318Z" fill="white"/>
<path fill-rule="evenodd" clip-rule="evenodd" d="M19.0242 7.62385C18.801 7.42709 18.4799 7.31445 18.1426 7.31445H5.57213V9.14302H17.6121L24.2846 15.0241C24.828 15.5031 24.7551 16.2365 24.1234 16.6448C23.5036 17.0455 22.5832 16.9785 22.0696 16.4954L18.2432 12.8958C18.116 12.4976 17.6534 12.2026 17.1021 12.2026C16.4528 12.2026 15.9265 12.6119 15.9265 13.1169V29.3102C15.9265 29.6272 15.5881 29.8904 15.1804 29.8904C14.7728 29.8904 14.4345 29.6272 14.4345 29.3102V21.8379C14.4345 21.3329 13.9082 20.9236 13.2588 20.9236H9.41543C8.76612 20.9236 8.23978 21.3329 8.23978 21.8379V29.3102C8.23978 29.6272 7.90143 29.8904 7.49372 29.8904C7.08612 29.8904 6.74777 29.6272 6.74777 29.3102V15.543H4.39648V29.3102C4.39648 30.6371 5.78751 31.7189 7.49372 31.7189C9.19993 31.7189 10.5911 30.6371 10.5911 29.3102V22.7522H12.0832V29.3102C12.0832 30.6371 13.4742 31.7189 15.1804 31.7189C16.8866 31.7189 18.2778 30.6371 18.2778 29.3102V15.7982L20.2573 17.6605C21.5999 18.9235 24.0061 19.0985 25.6265 18.051C27.2777 16.9837 27.4683 15.0663 26.0477 13.8143L19.0242 7.62385Z" fill="white"/>
<path fill-rule="evenodd" clip-rule="evenodd" d="M13.6864 17.6861C14.0122 17.1791 13.7892 16.5625 13.1711 16.2621L5.76251 12.661C5.21195 12.3934 5.04454 11.8294 5.38865 11.4011C5.73276 10.973 6.45813 10.8428 7.00869 11.1104L14.4174 14.7115C16.0633 15.5116 16.6574 17.1536 15.7895 18.5038C14.7835 20.0686 12.2494 20.6026 10.3652 19.647L2.66127 15.7397C0.22334 14.5033 -0.67015 12.0569 0.529125 10.0049C1.48128 8.37576 3.57757 7.31436 5.88713 7.31445L11.6762 7.31482L11.6761 9.14339L5.88701 9.14302C4.50809 9.14293 3.24381 9.77928 2.66974 10.7616C1.94613 11.9996 2.49116 13.4704 3.94566 14.2081L11.6495 18.1154C12.357 18.4741 13.3086 18.2736 13.6864 17.6861V17.6861Z" fill="white"/>
<path fill-rule="evenodd" clip-rule="evenodd" d="M7.15527 16.4259L14.2091 7.74023L16.197 8.71669L9.14317 17.4023L7.15527 16.4259Z" fill="white"/>
<path fill-rule="evenodd" clip-rule="evenodd" d="M19.9053 21.029C19.9053 19.5141 21.4844 18.2861 23.4322 18.2861C25.3801 18.2861 26.9591 19.5141 26.9591 21.029V31.0861C26.9591 31.5911 26.4328 32.0004 25.7835 32.0004C25.1342 32.0004 24.6079 31.5911 24.6079 31.0861V21.029C24.6079 20.524 24.0815 20.1147 23.4322 20.1147C22.7829 20.1147 22.2566 20.524 22.2566 21.029V21.4861C22.2566 21.9911 21.7302 22.4004 21.0809 22.4004C20.4316 22.4004 19.9053 21.9911 19.9053 21.4861V21.029Z" fill="white"/>
</svg>
