<svg width="42" height="29" viewBox="0 0 42 29" fill="none" xmlns="http://www.w3.org/2000/svg">
<path d="M24.239 15.8529C25.6498 15.8529 26.849 15.5184 27.8366 14.8493C28.8242 14.1802 29.3179 13.3677 29.3179 12.4118C29.3179 11.4559 28.8242 10.6434 27.8366 9.97427C26.849 9.30515 25.6498 8.9706 24.239 8.9706C22.8281 8.9706 21.6289 9.30515 20.6414 9.97427C19.6538 10.6434 19.16 11.4559 19.16 12.4118C19.16 13.3677 19.6538 14.1802 20.6414 14.8493C21.6289 15.5184 22.8281 15.8529 24.239 15.8529ZM9.00206 19.2941V5.52942H39.4759V19.2941H9.00206ZM2.2301 23.8824V8.9706H5.61608V21.5882H34.3969V23.8824H2.2301ZM12.388 10.1177C13.3192 10.1177 14.116 9.89283 14.7785 9.44318C15.4422 8.9943 15.774 8.45442 15.774 7.82354H12.388V10.1177ZM36.0899 10.1177V7.82354H32.7039C32.7039 8.45442 33.0352 8.9943 33.6977 9.44318C34.3614 9.89283 35.1588 10.1177 36.0899 10.1177ZM32.7039 17H36.0899V14.7059C35.1588 14.7059 34.3614 14.9303 33.6977 15.3792C33.0352 15.8289 32.7039 16.3691 32.7039 17ZM12.388 17H15.774C15.774 16.3691 15.4422 15.8289 14.7785 15.3792C14.116 14.9303 13.3192 14.7059 12.388 14.7059V17Z" fill="#EDEDED"/>
</svg>
