<svg width="28" height="28" viewBox="0 0 28 28" fill="none" xmlns="http://www.w3.org/2000/svg">
<path d="M3.50008 23.3337C2.85842 23.3337 2.30892 23.105 1.85158 22.6477C1.39425 22.1903 1.16597 21.6412 1.16675 21.0003V8.16699H3.50008V21.0003H23.3334V23.3337H3.50008ZM8.16675 18.667C7.52508 18.667 6.97558 18.4383 6.51825 17.981C6.06092 17.5237 5.83264 16.9745 5.83342 16.3337V7.00033C5.83342 6.35866 6.06208 5.80916 6.51942 5.35183C6.97675 4.89449 7.52586 4.66622 8.16675 4.66699H24.5001C25.1417 4.66699 25.6912 4.89566 26.1486 5.35299C26.6059 5.81033 26.8342 6.35944 26.8334 7.00033V16.3337C26.8334 16.9753 26.6048 17.5248 26.1474 17.9822C25.6901 18.4395 25.141 18.6678 24.5001 18.667H8.16675ZM10.5001 16.3337C10.5001 15.692 10.2714 15.1425 9.81408 14.6852C9.35675 14.2278 8.80764 13.9995 8.16675 14.0003V16.3337H10.5001ZM22.1667 16.3337H24.5001V14.0003C23.8584 14.0003 23.3089 14.229 22.8516 14.6863C22.3942 15.1437 22.166 15.6928 22.1667 16.3337ZM16.3334 15.167C17.3056 15.167 18.132 14.8267 18.8126 14.1462C19.4931 13.4656 19.8334 12.6392 19.8334 11.667C19.8334 10.6948 19.4931 9.86838 18.8126 9.18783C18.132 8.50727 17.3056 8.16699 16.3334 8.16699C15.3612 8.16699 14.5348 8.50727 13.8542 9.18783C13.1737 9.86838 12.8334 10.6948 12.8334 11.667C12.8334 12.6392 13.1737 13.4656 13.8542 14.1462C14.5348 14.8267 15.3612 15.167 16.3334 15.167ZM8.16675 9.33366C8.80842 9.33366 9.35792 9.10499 9.81525 8.64766C10.2726 8.19033 10.5009 7.64122 10.5001 7.00033H8.16675V9.33366ZM24.5001 9.33366V7.00033H22.1667C22.1667 7.64199 22.3954 8.19149 22.8527 8.64883C23.3101 9.10616 23.8592 9.33444 24.5001 9.33366Z" fill="#3C77C6"/>
</svg>
