<svg width="39" height="28" viewBox="0 0 39 28" fill="none" xmlns="http://www.w3.org/2000/svg">
<path fill-rule="evenodd" clip-rule="evenodd" d="M34.9468 2.15385H3.17699C2.59212 2.15385 2.11799 2.63598 2.11799 3.23077V24.7692C2.11799 25.364 2.59212 25.8462 3.17699 25.8462H34.9468C35.5317 25.8462 36.0058 25.364 36.0058 24.7692V3.23077C36.0058 2.63598 35.5317 2.15385 34.9468 2.15385ZM3.17699 0C1.42239 0 0 1.44642 0 3.23077V24.7692C0 26.5536 1.42239 28 3.17699 28H34.9468C36.7015 28 38.1238 26.5536 38.1238 24.7692V3.23077C38.1238 1.44642 36.7015 0 34.9468 0H3.17699Z" fill="#ADB6CD"/>
<path d="M0 6.46191H38.1238V14.0004H0V6.46191Z" fill="#ADB6CD"/>
</svg>
