<svg width="28" height="31" viewBox="0 0 28 31" fill="none" xmlns="http://www.w3.org/2000/svg">
<path fill-rule="evenodd" clip-rule="evenodd" d="M11.4154 1.71964C12.8902 1.71964 14.1017 2.59958 14.1017 3.67066C14.1017 4.74183 12.8902 5.62177 11.4154 5.62177C9.94076 5.62177 8.72925 4.74183 8.72925 3.67066C8.72925 2.59958 9.94076 1.71964 11.4154 1.71964ZM16.4693 3.67066C16.4693 1.64985 14.1979 0 11.4154 0C8.63313 0 6.36163 1.64985 6.36163 3.67066C6.36163 5.69159 8.63313 7.34141 11.4154 7.34141C14.1979 7.34141 16.4693 5.69159 16.4693 3.67066Z" fill="#ADB6CD"/>
<path fill-rule="evenodd" clip-rule="evenodd" d="M19.1559 7.16963C18.9311 6.98459 18.6078 6.87866 18.2682 6.87866H5.61044V8.5983H17.7341L24.4529 14.129C25 14.5795 24.9267 15.2692 24.2906 15.6532C23.6665 16.03 22.7397 15.9671 22.2225 15.5127L18.3695 12.1275C18.2414 11.7531 17.7756 11.4756 17.2205 11.4756C16.5667 11.4756 16.0367 11.8606 16.0367 12.3354V27.5642C16.0367 27.8623 15.696 28.1097 15.2855 28.1097C14.875 28.1097 14.5343 27.8623 14.5343 27.5642V20.5369C14.5343 20.062 14.0044 19.6771 13.3505 19.6771H9.48043C8.82662 19.6771 8.29662 20.062 8.29662 20.5369V27.5642C8.29662 27.8623 7.95593 28.1097 7.54538 28.1097C7.13495 28.1097 6.79425 27.8623 6.79425 27.5642V14.6171H4.42664V27.5642C4.42664 28.812 5.82732 29.8294 7.54538 29.8294C9.26344 29.8294 10.6642 28.812 10.6642 27.5642V21.3967H12.1667V27.5642C12.1667 28.812 13.5674 29.8294 15.2855 29.8294C17.0035 29.8294 18.4043 28.812 18.4043 27.5642V14.857L20.3976 16.6084C21.7495 17.7962 24.1724 17.9607 25.8041 16.9756C27.4667 15.9719 27.6586 14.1687 26.2282 12.9913L19.1559 7.16963Z" fill="#ADB6CD"/>
<path fill-rule="evenodd" clip-rule="evenodd" d="M13.7814 16.6325C14.1095 16.1557 13.885 15.5758 13.2625 15.2933L5.80252 11.9067C5.24815 11.6551 5.07957 11.1246 5.42607 10.7219C5.77257 10.3192 6.50298 10.1968 7.05736 10.4485L14.5175 13.835C16.1748 14.5875 16.7731 16.1317 15.8991 17.4014C14.8861 18.873 12.3344 19.3752 10.4371 18.4765L2.67975 14.802C0.224891 13.6393 -0.674804 11.3386 0.532799 9.40886C1.49157 7.87674 3.60242 6.87858 5.92801 6.87866L11.7573 6.87901L11.7572 8.59865L5.92789 8.5983C4.5394 8.59822 3.26633 9.19665 2.68828 10.1204C1.95964 11.2847 2.50846 12.6679 3.97306 13.3616L11.7304 17.0362C12.4429 17.3736 13.401 17.185 13.7814 16.6325Z" fill="#ADB6CD"/>
<path fill-rule="evenodd" clip-rule="evenodd" d="M7.20502 15.4476L14.3079 7.2793L16.3096 8.19759L9.20672 16.3658L7.20502 15.4476Z" fill="#ADB6CD"/>
<path fill-rule="evenodd" clip-rule="evenodd" d="M20.0439 19.776C20.0439 18.3514 21.634 17.1965 23.5953 17.1965C25.5568 17.1965 27.1467 18.3514 27.1467 19.776V29.234C27.1467 29.7089 26.6167 30.0939 25.9629 30.0939C25.3091 30.0939 24.7791 29.7089 24.7791 29.234V19.776C24.7791 19.3011 24.2491 18.9162 23.5953 18.9162C22.9415 18.9162 22.4115 19.3011 22.4115 19.776V20.2059C22.4115 20.6808 21.8815 21.0657 21.2277 21.0657C20.5739 21.0657 20.0439 20.6808 20.0439 20.2059V19.776Z" fill="#ADB6CD"/>
</svg>
