<svg width="28" height="28" viewBox="0 0 28 28" fill="none" xmlns="http://www.w3.org/2000/svg">
<path d="M21.4375 25.7535L22.7792 24.4118L17.5875 19.2202L16.2458 20.5618C15.5264 21.2813 15.1667 22.1466 15.1667 23.1577C15.1667 24.1688 15.5264 25.0341 16.2458 25.7535C16.9653 26.473 17.8306 26.8327 18.8417 26.8327C19.8528 26.8327 20.7181 26.473 21.4375 25.7535ZM24.4125 22.7785L25.7542 21.4368C26.4736 20.7174 26.8333 19.8521 26.8333 18.841C26.8333 17.8299 26.4736 16.9646 25.7542 16.2452C25.0347 15.5257 24.1694 15.166 23.1583 15.166C22.1472 15.166 21.2819 15.5257 20.5625 16.2452L19.2208 17.5868L24.4125 22.7785ZM8.16667 10.4993H19.8333V8.16602H8.16667V10.4993ZM14 4.95768C14.2528 4.95768 14.4616 4.87485 14.6265 4.70918C14.7914 4.54352 14.8742 4.33468 14.875 4.08268C14.875 3.8299 14.7922 3.62107 14.6265 3.45618C14.4608 3.29129 14.252 3.20846 14 3.20768C13.7472 3.20768 13.5384 3.29052 13.3735 3.45618C13.2086 3.62185 13.1258 3.83068 13.125 4.08268C13.125 4.33546 13.2078 4.54429 13.3735 4.70918C13.5392 4.87407 13.748 4.9569 14 4.95768ZM12.9792 24.4993H5.83334C5.19167 24.4993 4.64217 24.2707 4.18484 23.8133C3.7275 23.356 3.49922 22.8069 3.5 22.166V5.83268C3.5 5.19102 3.72867 4.64152 4.186 4.18418C4.64334 3.72685 5.19245 3.49857 5.83334 3.49935H10.7333C10.9861 2.79935 11.4092 2.23546 12.0027 1.80768C12.5961 1.3799 13.2619 1.16602 14 1.16602C14.7389 1.16602 15.4051 1.3799 15.9985 1.80768C16.5919 2.23546 17.0147 2.79935 17.2667 3.49935H22.1667C22.8083 3.49935 23.3578 3.72802 23.8152 4.18535C24.2725 4.64268 24.5008 5.19179 24.5 5.83268V12.9785C23.6833 12.7841 22.8717 12.7693 22.0652 12.9342C21.2586 13.0991 20.5147 13.4059 19.8333 13.8547V12.8327H8.16667V15.166H18.3458L16.0125 17.4993H8.16667V19.8327H13.8542C13.4069 20.5132 13.1005 21.2572 12.9348 22.0645C12.7692 22.8718 12.7843 23.6835 12.9803 24.4993H12.9792Z" fill="#3C77C6"/>
</svg>
