<svg width="29" height="29" viewBox="0 0 29 29" fill="none" xmlns="http://www.w3.org/2000/svg">
<path d="M2.9 27.55H20.3C21.1008 27.55 21.75 26.9008 21.75 26.1V2.9C21.75 2.09919 21.1008 1.45 20.3 1.45H2.9C2.09919 1.45 1.45 2.09919 1.45 2.9V26.1C1.45 26.9008 2.09919 27.55 2.9 27.55ZM20.3 29H2.9C1.29837 29 0 27.7016 0 26.1V2.9C0 1.29837 1.29837 0 2.9 0H20.3C21.9016 0 23.2 1.29837 23.2 2.9V26.1C23.2 27.7016 21.9016 29 20.3 29Z" fill="white"/>
<path d="M2.9 27.55H20.3C21.1008 27.55 21.75 26.9008 21.75 26.1V2.9C21.75 2.09919 21.1008 1.45 20.3 1.45H2.9C2.09919 1.45 1.45 2.09919 1.45 2.9V26.1C1.45 26.9008 2.09919 27.55 2.9 27.55ZM20.3 29H2.9C1.29837 29 0 27.7016 0 26.1V2.9C0 1.29837 1.29837 0 2.9 0H20.3C21.9016 0 23.2 1.29837 23.2 2.9V26.1C23.2 27.7016 21.9016 29 20.3 29Z" stroke="white"/>
<path d="M10.1504 6.5248C10.1504 6.12439 10.475 5.7998 10.8754 5.7998H19.5754C19.9758 5.7998 20.3004 6.12439 20.3004 6.5248C20.3004 6.92522 19.9758 7.2498 19.5754 7.2498H10.8754C10.475 7.2498 10.1504 6.92522 10.1504 6.5248Z" fill="white"/>
<path d="M10.1504 6.5248C10.1504 6.12439 10.475 5.7998 10.8754 5.7998H19.5754C19.9758 5.7998 20.3004 6.12439 20.3004 6.5248C20.3004 6.92522 19.9758 7.2498 19.5754 7.2498H10.8754C10.475 7.2498 10.1504 6.92522 10.1504 6.5248Z" stroke="white"/>
<path d="M10.1504 9.4252C10.1504 9.02478 10.475 8.7002 10.8754 8.7002H19.5754C19.9758 8.7002 20.3004 9.02478 20.3004 9.4252C20.3004 9.82561 19.9758 10.1502 19.5754 10.1502H10.8754C10.475 10.1502 10.1504 9.82561 10.1504 9.4252Z" fill="white"/>
<path d="M10.1504 9.4252C10.1504 9.02478 10.475 8.7002 10.8754 8.7002H19.5754C19.9758 8.7002 20.3004 9.02478 20.3004 9.4252C20.3004 9.82561 19.9758 10.1502 19.5754 10.1502H10.8754C10.475 10.1502 10.1504 9.82561 10.1504 9.4252Z" stroke="white"/>
<path d="M10.1504 15.225C10.1504 14.8246 10.475 14.5 10.8754 14.5H19.5754C19.9758 14.5 20.3004 14.8246 20.3004 15.225C20.3004 15.6254 19.9758 15.95 19.5754 15.95H10.8754C10.475 15.95 10.1504 15.6254 10.1504 15.225Z" fill="white"/>
<path d="M10.1504 15.225C10.1504 14.8246 10.475 14.5 10.8754 14.5H19.5754C19.9758 14.5 20.3004 14.8246 20.3004 15.225C20.3004 15.6254 19.9758 15.95 19.5754 15.95H10.8754C10.475 15.95 10.1504 15.6254 10.1504 15.225Z" stroke="white"/>
<path d="M10.1504 18.1254C10.1504 17.725 10.475 17.4004 10.8754 17.4004H19.5754C19.9758 17.4004 20.3004 17.725 20.3004 18.1254C20.3004 18.5258 19.9758 18.8504 19.5754 18.8504H10.8754C10.475 18.8504 10.1504 18.5258 10.1504 18.1254Z" fill="white"/>
<path d="M10.1504 18.1254C10.1504 17.725 10.475 17.4004 10.8754 17.4004H19.5754C19.9758 17.4004 20.3004 17.725 20.3004 18.1254C20.3004 18.5258 19.9758 18.8504 19.5754 18.8504H10.8754C10.475 18.8504 10.1504 18.5258 10.1504 18.1254Z" stroke="white"/>
<path d="M4.35039 15.95V18.125H6.52539V15.95H4.35039ZM3.62539 14.5H7.25039C7.65081 14.5 7.97539 14.8246 7.97539 15.225V18.85C7.97539 19.2504 7.65081 19.575 7.25039 19.575H3.62539C3.22499 19.575 2.90039 19.2504 2.90039 18.85V15.225C2.90039 14.8246 3.22499 14.5 3.62539 14.5Z" fill="white"/>
<path d="M4.35039 15.95V18.125H6.52539V15.95H4.35039ZM3.62539 14.5H7.25039C7.65081 14.5 7.97539 14.8246 7.97539 15.225V18.85C7.97539 19.2504 7.65081 19.575 7.25039 19.575H3.62539C3.22499 19.575 2.90039 19.2504 2.90039 18.85V15.225C2.90039 14.8246 3.22499 14.5 3.62539 14.5Z" stroke="white"/>
<path d="M8.48804 6.01214C8.77115 6.29525 8.77115 6.75432 8.48804 7.03743L5.07539 10.4501L3.11274 8.48743C2.82961 8.20432 2.82961 7.74525 3.11274 7.46214C3.39587 7.17903 3.85491 7.17903 4.13805 7.46214L5.07539 8.39949L7.46274 6.01214C7.74586 5.72903 8.20493 5.72903 8.48804 6.01214Z" fill="white"/>
<path d="M8.48804 6.01214C8.77115 6.29525 8.77115 6.75432 8.48804 7.03743L5.07539 10.4501L3.11274 8.48743C2.82961 8.20432 2.82961 7.74525 3.11274 7.46214C3.39587 7.17903 3.85491 7.17903 4.13805 7.46214L5.07539 8.39949L7.46274 6.01214C7.74586 5.72903 8.20493 5.72903 8.48804 6.01214Z" stroke="white"/>
<path d="M27.5504 14.4998H26.1004V25.6164L26.8254 26.5832L27.5504 25.6164V14.4998ZM29.0004 26.0998L26.8254 28.9998L24.6504 26.0998V13.0498H29.0004V26.0998Z" fill="white"/>
<path d="M27.5504 14.4998H26.1004V25.6164L26.8254 26.5832L27.5504 25.6164V14.4998ZM29.0004 26.0998L26.8254 28.9998L24.6504 26.0998V13.0498H29.0004V26.0998Z" stroke="white"/>
<path d="M27.5504 9.42461H26.1004V10.8746H27.5504V9.42461ZM26.1004 7.97461H27.5504C28.3512 7.97461 29.0004 8.62377 29.0004 9.42461V12.3246H24.6504V9.42461C24.6504 8.62377 25.2996 7.97461 26.1004 7.97461Z" fill="white"/>
<path d="M27.5504 9.42461H26.1004V10.8746H27.5504V9.42461ZM26.1004 7.97461H27.5504C28.3512 7.97461 29.0004 8.62377 29.0004 9.42461V12.3246H24.6504V9.42461C24.6504 8.62377 25.2996 7.97461 26.1004 7.97461Z" stroke="white"/>
</svg>
