<svg width="29" height="29" viewBox="0 0 29 29" fill="none" xmlns="http://www.w3.org/2000/svg">
<path d="M2.9 27.55H20.3C21.1008 27.55 21.75 26.9008 21.75 26.1V2.9C21.75 2.09919 21.1008 1.45 20.3 1.45H2.9C2.09919 1.45 1.45 2.09919 1.45 2.9V26.1C1.45 26.9008 2.09919 27.55 2.9 27.55ZM20.3 29H2.9C1.29837 29 0 27.7016 0 26.1V2.9C0 1.29837 1.29837 0 2.9 0H20.3C21.9016 0 23.2 1.29837 23.2 2.9V26.1C23.2 27.7016 21.9016 29 20.3 29Z" fill="#ADB6CD"/>
<path d="M2.9 27.55H20.3C21.1008 27.55 21.75 26.9008 21.75 26.1V2.9C21.75 2.09919 21.1008 1.45 20.3 1.45H2.9C2.09919 1.45 1.45 2.09919 1.45 2.9V26.1C1.45 26.9008 2.09919 27.55 2.9 27.55ZM20.3 29H2.9C1.29837 29 0 27.7016 0 26.1V2.9C0 1.29837 1.29837 0 2.9 0H20.3C21.9016 0 23.2 1.29837 23.2 2.9V26.1C23.2 27.7016 21.9016 29 20.3 29Z" stroke="#ADB6CD"/>
<path d="M10.1499 6.5248C10.1499 6.12439 10.4745 5.7998 10.8749 5.7998H19.5749C19.9753 5.7998 20.2999 6.12439 20.2999 6.5248C20.2999 6.92522 19.9753 7.2498 19.5749 7.2498H10.8749C10.4745 7.2498 10.1499 6.92522 10.1499 6.5248Z" fill="#ADB6CD"/>
<path d="M10.1499 6.5248C10.1499 6.12439 10.4745 5.7998 10.8749 5.7998H19.5749C19.9753 5.7998 20.2999 6.12439 20.2999 6.5248C20.2999 6.92522 19.9753 7.2498 19.5749 7.2498H10.8749C10.4745 7.2498 10.1499 6.92522 10.1499 6.5248Z" stroke="#ADB6CD"/>
<path d="M10.1499 9.4252C10.1499 9.02478 10.4745 8.7002 10.8749 8.7002H19.5749C19.9753 8.7002 20.2999 9.02478 20.2999 9.4252C20.2999 9.82561 19.9753 10.1502 19.5749 10.1502H10.8749C10.4745 10.1502 10.1499 9.82561 10.1499 9.4252Z" fill="#ADB6CD"/>
<path d="M10.1499 9.4252C10.1499 9.02478 10.4745 8.7002 10.8749 8.7002H19.5749C19.9753 8.7002 20.2999 9.02478 20.2999 9.4252C20.2999 9.82561 19.9753 10.1502 19.5749 10.1502H10.8749C10.4745 10.1502 10.1499 9.82561 10.1499 9.4252Z" stroke="#ADB6CD"/>
<path d="M10.1499 15.225C10.1499 14.8246 10.4745 14.5 10.8749 14.5H19.5749C19.9753 14.5 20.2999 14.8246 20.2999 15.225C20.2999 15.6254 19.9753 15.95 19.5749 15.95H10.8749C10.4745 15.95 10.1499 15.6254 10.1499 15.225Z" fill="#ADB6CD"/>
<path d="M10.1499 15.225C10.1499 14.8246 10.4745 14.5 10.8749 14.5H19.5749C19.9753 14.5 20.2999 14.8246 20.2999 15.225C20.2999 15.6254 19.9753 15.95 19.5749 15.95H10.8749C10.4745 15.95 10.1499 15.6254 10.1499 15.225Z" stroke="#ADB6CD"/>
<path d="M10.1499 18.1254C10.1499 17.725 10.4745 17.4004 10.8749 17.4004H19.5749C19.9753 17.4004 20.2999 17.725 20.2999 18.1254C20.2999 18.5258 19.9753 18.8504 19.5749 18.8504H10.8749C10.4745 18.8504 10.1499 18.5258 10.1499 18.1254Z" fill="#ADB6CD"/>
<path d="M10.1499 18.1254C10.1499 17.725 10.4745 17.4004 10.8749 17.4004H19.5749C19.9753 17.4004 20.2999 17.725 20.2999 18.1254C20.2999 18.5258 19.9753 18.8504 19.5749 18.8504H10.8749C10.4745 18.8504 10.1499 18.5258 10.1499 18.1254Z" stroke="#ADB6CD"/>
<path d="M4.3499 15.95V18.125H6.5249V15.95H4.3499ZM3.6249 14.5H7.2499C7.65032 14.5 7.9749 14.8246 7.9749 15.225V18.85C7.9749 19.2504 7.65032 19.575 7.2499 19.575H3.6249C3.2245 19.575 2.8999 19.2504 2.8999 18.85V15.225C2.8999 14.8246 3.2245 14.5 3.6249 14.5Z" fill="#ADB6CD"/>
<path d="M4.3499 15.95V18.125H6.5249V15.95H4.3499ZM3.6249 14.5H7.2499C7.65032 14.5 7.9749 14.8246 7.9749 15.225V18.85C7.9749 19.2504 7.65032 19.575 7.2499 19.575H3.6249C3.2245 19.575 2.8999 19.2504 2.8999 18.85V15.225C2.8999 14.8246 3.2245 14.5 3.6249 14.5Z" stroke="#ADB6CD"/>
<path d="M8.48755 6.01214C8.77066 6.29525 8.77066 6.75432 8.48755 7.03743L5.0749 10.4501L3.11225 8.48743C2.82912 8.20432 2.82912 7.74525 3.11225 7.46214C3.39538 7.17903 3.85442 7.17903 4.13756 7.46214L5.0749 8.39949L7.46226 6.01214C7.74537 5.72903 8.20444 5.72903 8.48755 6.01214Z" fill="#ADB6CD"/>
<path d="M8.48755 6.01214C8.77066 6.29525 8.77066 6.75432 8.48755 7.03743L5.0749 10.4501L3.11225 8.48743C2.82912 8.20432 2.82912 7.74525 3.11225 7.46214C3.39538 7.17903 3.85442 7.17903 4.13756 7.46214L5.0749 8.39949L7.46226 6.01214C7.74537 5.72903 8.20444 5.72903 8.48755 6.01214Z" stroke="#ADB6CD"/>
<path d="M27.5499 14.4998H26.0999V25.6164L26.8249 26.5832L27.5499 25.6164V14.4998ZM28.9999 26.0998L26.8249 28.9998L24.6499 26.0998V13.0498H28.9999V26.0998Z" fill="#ADB6CD"/>
<path d="M27.5499 14.4998H26.0999V25.6164L26.8249 26.5832L27.5499 25.6164V14.4998ZM28.9999 26.0998L26.8249 28.9998L24.6499 26.0998V13.0498H28.9999V26.0998Z" stroke="#ADB6CD"/>
<path d="M27.5499 9.42461H26.0999V10.8746H27.5499V9.42461ZM26.0999 7.97461H27.5499C28.3507 7.97461 28.9999 8.62377 28.9999 9.42461V12.3246H24.6499V9.42461C24.6499 8.62377 25.2991 7.97461 26.0999 7.97461Z" fill="#ADB6CD"/>
<path d="M27.5499 9.42461H26.0999V10.8746H27.5499V9.42461ZM26.0999 7.97461H27.5499C28.3507 7.97461 28.9999 8.62377 28.9999 9.42461V12.3246H24.6499V9.42461C24.6499 8.62377 25.2991 7.97461 26.0999 7.97461Z" stroke="#ADB6CD"/>
</svg>
