<svg width="37" height="37" viewBox="0 0 37 37" fill="none" xmlns="http://www.w3.org/2000/svg">
<path d="M13.8749 7.70825H10.7916C9.97383 7.70825 9.18958 8.0331 8.61134 8.61134C8.0331 9.18958 7.70825 9.97383 7.70825 10.7916V29.2916C7.70825 30.1093 8.0331 30.8936 8.61134 31.4718C9.18958 32.0501 9.97383 32.3749 10.7916 32.3749H26.2083C27.026 32.3749 27.8103 32.0501 28.3885 31.4718C28.9667 30.8936 29.2916 30.1093 29.2916 29.2916V10.7916C29.2916 9.97383 28.9667 9.18958 28.3885 8.61134C27.8103 8.0331 27.026 7.70825 26.2083 7.70825H23.1249" stroke="white" stroke-width="2" stroke-linecap="round" stroke-linejoin="round"/>
<path d="M13.875 26.2083V18.5M18.5 26.2083V24.6667M23.125 26.2083V21.5833M13.875 7.70833C13.875 6.89058 14.1999 6.10632 14.7781 5.52809C15.3563 4.94985 16.1406 4.625 16.9583 4.625H20.0417C20.8594 4.625 21.6437 4.94985 22.2219 5.52809C22.8001 6.10632 23.125 6.89058 23.125 7.70833C23.125 8.52609 22.8001 9.31034 22.2219 9.88858C21.6437 10.4668 20.8594 10.7917 20.0417 10.7917H16.9583C16.1406 10.7917 15.3563 10.4668 14.7781 9.88858C14.1999 9.31034 13.875 8.52609 13.875 7.70833Z" stroke="white" stroke-width="2" stroke-linecap="round" stroke-linejoin="round"/>
</svg>
