<svg width="35" height="35" viewBox="0 0 35 35" fill="none" xmlns="http://www.w3.org/2000/svg">
<path d="M10.2083 20.4167C12.6291 20.4167 14.5833 18.4626 14.5833 16.0417C14.5833 13.6209 12.6291 11.6667 10.2083 11.6667C7.78742 11.6667 5.83325 13.6209 5.83325 16.0417C5.83325 18.4626 7.78742 20.4167 10.2083 20.4167ZM10.2083 14.5834C11.0103 14.5834 11.6666 15.2397 11.6666 16.0417C11.6666 16.8438 11.0103 17.5001 10.2083 17.5001C9.40617 17.5001 8.74992 16.8438 8.74992 16.0417C8.74992 15.2397 9.40617 14.5834 10.2083 14.5834ZM27.7082 10.2084H16.0416V21.8751H4.37492V7.29175H1.45825V29.1667H4.37492V24.7917H30.6249V29.1667H33.5416V16.0417C33.5416 12.8188 30.9312 10.2084 27.7082 10.2084ZM30.6249 21.8751H18.9582V13.1251H27.7082C29.3124 13.1251 30.6249 14.4376 30.6249 16.0417V21.8751Z" fill="white"/>
</svg>
