<svg width="22" height="22" viewBox="0 0 22 22" fill="none" xmlns="http://www.w3.org/2000/svg">
<path d="M21 20.4738C21 20.4738 21 19.2308 20.5455 17.5735C19.995 15.5657 18.7273 14.2588 16 14.2588C13.7273 14.2588 9.18182 14.2588 6 14.2588C3.27273 14.2588 2.00495 15.5657 1.45455 17.5735C1 19.2308 1 20.4738 1 20.4738H21Z" fill="#D0CFCE"/>
<path d="M6.45459 5.972C6.45459 7.51523 6.69964 9.20737 7.36368 10.1153C8.20973 11.2726 9.64441 11.7727 11 11.7727C12.4072 11.7727 13.7895 11.2726 14.6364 10.1153C15.3 9.20737 15.5455 7.51523 15.5455 5.972C15.5455 4.81456 15.091 1 11 1C6.90914 1 6.45459 4.04295 6.45459 5.972Z" fill="#D0CFCE"/>
<path d="M21 20.0595C21 20.0595 21 19.2308 20.5455 17.5735C19.995 15.5657 18.7273 14.2588 16 14.2588C13.7273 14.2588 9.18182 14.2588 6 14.2588C3.27273 14.2588 2.00495 15.5657 1.45455 17.5735C1 19.2308 1 20.0595 1 20.0595" stroke="black" stroke-width="2" stroke-linecap="round" stroke-linejoin="round"/>
<path d="M6.45459 5.972C6.45459 7.51523 6.69964 9.20737 7.36368 10.1153C8.20973 11.2726 9.64441 11.7727 11 11.7727C12.4072 11.7727 13.7895 11.2726 14.6364 10.1153C15.3 9.20737 15.5455 7.51523 15.5455 5.972C15.5455 4.81456 15.091 1 11 1C6.90914 1 6.45459 4.04295 6.45459 5.972Z" stroke="black" stroke-width="2" stroke-linejoin="round"/>
</svg>
