<svg width="32" height="26" viewBox="0 0 32 26" fill="none" xmlns="http://www.w3.org/2000/svg">
<mask id="path-1-inside-1_871_1994" fill="white">
<path d="M31.81 25.3907C31.81 25.3907 31.81 24.2867 31.087 22.0788C30.2116 19.4042 28.1952 17.6631 23.8575 17.6631C20.2427 17.6631 13.0132 17.6631 7.9525 17.6631C3.61477 17.6631 1.59838 19.4042 0.722955 22.0788C0 24.2867 0 25.3907 0 25.3907"/>
</mask>
<path d="M30.31 25.3907C30.31 26.2191 30.9816 26.8907 31.81 26.8907C32.6384 26.8907 33.31 26.2191 33.31 25.3907H30.31ZM31.087 22.0788L29.6615 22.5454L29.6615 22.5456L31.087 22.0788ZM0.722955 22.0788L2.14848 22.5456L2.14854 22.5454L0.722955 22.0788ZM-1.5 25.3907C-1.5 26.2191 -0.828427 26.8907 0 26.8907C0.828427 26.8907 1.5 26.2191 1.5 25.3907H-1.5ZM31.81 25.3907C33.31 25.3907 33.31 25.3902 33.31 25.3897C33.31 25.3895 33.31 25.389 33.31 25.3887C33.31 25.388 33.31 25.3873 33.31 25.3866C33.31 25.3852 33.31 25.3837 33.31 25.3822C33.31 25.3791 33.3099 25.3757 33.3099 25.3721C33.3098 25.3648 33.3097 25.3565 33.3095 25.347C33.3091 25.3282 33.3085 25.305 33.3073 25.2776C33.3051 25.2227 33.301 25.1506 33.2937 25.0613C33.2791 24.8827 33.2516 24.6357 33.1999 24.3204C33.0966 23.6894 32.8971 22.7865 32.5126 21.6121L29.6615 22.5456C29.9999 23.5791 30.1619 24.3321 30.2393 24.8051C30.2781 25.0417 30.2957 25.2086 30.3037 25.3061C30.3077 25.3548 30.3093 25.3862 30.3098 25.4003C30.3101 25.4073 30.3102 25.41 30.3101 25.4084C30.3101 25.4076 30.3101 25.4057 30.3101 25.4028C30.31 25.4013 30.31 25.3996 30.31 25.3975C30.31 25.3965 30.31 25.3955 30.31 25.3943C30.31 25.3937 30.31 25.3931 30.31 25.3925C30.31 25.3922 30.31 25.3918 30.31 25.3916C30.31 25.3911 30.31 25.3907 31.81 25.3907ZM32.5126 21.6123C31.9952 20.0315 31.0983 18.6158 29.602 17.6194C28.1252 16.636 26.2173 16.1631 23.8575 16.1631V19.1631C25.8354 19.1631 27.1046 19.5607 27.9392 20.1165C28.7545 20.6593 29.3034 21.4515 29.6615 22.5454L32.5126 21.6123ZM23.8575 16.1631C23.8504 16.1631 23.8434 16.1631 23.8363 16.1631C23.8292 16.1631 23.8221 16.1631 23.815 16.1631C23.8079 16.1631 23.8007 16.1631 23.7936 16.1631C23.7864 16.1631 23.7793 16.1631 23.7721 16.1631C23.7649 16.1631 23.7578 16.1631 23.7506 16.1631C23.7434 16.1631 23.7362 16.1631 23.7289 16.1631C23.7217 16.1631 23.7145 16.1631 23.7072 16.1631C23.7 16.1631 23.6927 16.1631 23.6854 16.1631C23.6782 16.1631 23.6709 16.1631 23.6636 16.1631C23.6563 16.1631 23.6489 16.1631 23.6416 16.1631C23.6343 16.1631 23.6269 16.1631 23.6196 16.1631C23.6122 16.1631 23.6048 16.1631 23.5975 16.1631C23.5901 16.1631 23.5827 16.1631 23.5753 16.1631C23.5678 16.1631 23.5604 16.1631 23.553 16.1631C23.5455 16.1631 23.5381 16.1631 23.5306 16.1631C23.5232 16.1631 23.5157 16.1631 23.5082 16.1631C23.5007 16.1631 23.4932 16.1631 23.4857 16.1631C23.4782 16.1631 23.4706 16.1631 23.4631 16.1631C23.4556 16.1631 23.448 16.1631 23.4404 16.1631C23.4329 16.1631 23.4253 16.1631 23.4177 16.1631C23.4101 16.1631 23.4025 16.1631 23.3949 16.1631C23.3872 16.1631 23.3796 16.1631 23.372 16.1631C23.3643 16.1631 23.3567 16.1631 23.349 16.1631C23.3413 16.1631 23.3336 16.1631 23.3259 16.1631C23.3182 16.1631 23.3105 16.1631 23.3028 16.1631C23.2951 16.1631 23.2874 16.1631 23.2796 16.1631C23.2719 16.1631 23.2641 16.1631 23.2563 16.1631C23.2485 16.1631 23.2408 16.1631 23.233 16.1631C23.2252 16.1631 23.2174 16.1631 23.2095 16.1631C23.2017 16.1631 23.1939 16.1631 23.186 16.1631C23.1782 16.1631 23.1703 16.1631 23.1624 16.1631C23.1546 16.1631 23.1467 16.1631 23.1388 16.1631C23.1309 16.1631 23.123 16.1631 23.115 16.1631C23.1071 16.1631 23.0992 16.1631 23.0912 16.1631C23.0833 16.1631 23.0753 16.1631 23.0674 16.1631C23.0594 16.1631 23.0514 16.1631 23.0434 16.1631C23.0354 16.1631 23.0274 16.1631 23.0194 16.1631C23.0114 16.1631 23.0033 16.1631 22.9953 16.1631C22.9872 16.1631 22.9792 16.1631 22.9711 16.1631C22.963 16.1631 22.955 16.1631 22.9469 16.1631C22.9388 16.1631 22.9307 16.1631 22.9225 16.1631C22.9144 16.1631 22.9063 16.1631 22.8981 16.1631C22.89 16.1631 22.8818 16.1631 22.8737 16.1631C22.8655 16.1631 22.8573 16.1631 22.8491 16.1631C22.841 16.1631 22.8328 16.1631 22.8245 16.1631C22.8163 16.1631 22.8081 16.1631 22.7999 16.1631C22.7916 16.1631 22.7834 16.1631 22.7751 16.1631C22.7669 16.1631 22.7586 16.1631 22.7503 16.1631C22.742 16.1631 22.7337 16.1631 22.7254 16.1631C22.7171 16.1631 22.7088 16.1631 22.7005 16.1631C22.6921 16.1631 22.6838 16.1631 22.6754 16.1631C22.6671 16.1631 22.6587 16.1631 22.6503 16.1631C22.6419 16.1631 22.6336 16.1631 22.6252 16.1631C22.6168 16.1631 22.6083 16.1631 22.5999 16.1631C22.5915 16.1631 22.5831 16.1631 22.5746 16.1631C22.5662 16.1631 22.5577 16.1631 22.5492 16.1631C22.5408 16.1631 22.5323 16.1631 22.5238 16.1631C22.5153 16.1631 22.5068 16.1631 22.4983 16.1631C22.4898 16.1631 22.4812 16.1631 22.4727 16.1631C22.4642 16.1631 22.4556 16.1631 22.4471 16.1631C22.4385 16.1631 22.4299 16.1631 22.4214 16.1631C22.4128 16.1631 22.4042 16.1631 22.3956 16.1631C22.387 16.1631 22.3784 16.1631 22.3697 16.1631C22.3611 16.1631 22.3525 16.1631 22.3438 16.1631C22.3352 16.1631 22.3265 16.1631 22.3178 16.1631C22.3092 16.1631 22.3005 16.1631 22.2918 16.1631C22.2831 16.1631 22.2744 16.1631 22.2657 16.1631C22.257 16.1631 22.2482 16.1631 22.2395 16.1631C22.2308 16.1631 22.222 16.1631 22.2133 16.1631C22.2045 16.1631 22.1957 16.1631 22.187 16.1631C22.1782 16.1631 22.1694 16.1631 22.1606 16.1631C22.1518 16.1631 22.143 16.1631 22.1341 16.1631C22.1253 16.1631 22.1165 16.1631 22.1077 16.1631C22.0988 16.1631 22.09 16.1631 22.0811 16.1631C22.0722 16.1631 22.0633 16.1631 22.0545 16.1631C22.0456 16.1631 22.0367 16.1631 22.0278 16.1631C22.0189 16.1631 22.0099 16.1631 22.001 16.1631C21.9921 16.1631 21.9832 16.1631 21.9742 16.1631C21.9653 16.1631 21.9563 16.1631 21.9473 16.1631C21.9384 16.1631 21.9294 16.1631 21.9204 16.1631C21.9114 16.1631 21.9024 16.1631 21.8934 16.1631C21.8844 16.1631 21.8753 16.1631 21.8663 16.1631C21.8573 16.1631 21.8482 16.1631 21.8392 16.1631C21.8301 16.1631 21.8211 16.1631 21.812 16.1631C21.8029 16.1631 21.7938 16.1631 21.7848 16.1631C21.7757 16.1631 21.7666 16.1631 21.7574 16.1631C21.7483 16.1631 21.7392 16.1631 21.7301 16.1631C21.7209 16.1631 21.7118 16.1631 21.7026 16.1631C21.6935 16.1631 21.6843 16.1631 21.6752 16.1631C21.666 16.1631 21.6568 16.1631 21.6476 16.1631C21.6384 16.1631 21.6292 16.1631 21.62 16.1631C21.6108 16.1631 21.6016 16.1631 21.5923 16.1631C21.5831 16.1631 21.5739 16.1631 21.5646 16.1631C21.5553 16.1631 21.5461 16.1631 21.5368 16.1631C21.5275 16.1631 21.5183 16.1631 21.509 16.1631C21.4997 16.1631 21.4904 16.1631 21.4811 16.1631C21.4718 16.1631 21.4624 16.1631 21.4531 16.1631C21.4438 16.1631 21.4344 16.1631 21.4251 16.1631C21.4157 16.1631 21.4064 16.1631 21.397 16.1631C21.3876 16.1631 21.3783 16.1631 21.3689 16.1631C21.3595 16.1631 21.3501 16.1631 21.3407 16.1631C21.3313 16.1631 21.3219 16.1631 21.3124 16.1631C21.303 16.1631 21.2936 16.1631 21.2841 16.1631C21.2747 16.1631 21.2652 16.1631 21.2558 16.1631C21.2463 16.1631 21.2369 16.1631 21.2274 16.1631C21.2179 16.1631 21.2084 16.1631 21.1989 16.1631C21.1894 16.1631 21.1799 16.1631 21.1704 16.1631C21.1609 16.1631 21.1513 16.1631 21.1418 16.1631C21.1323 16.1631 21.1227 16.1631 21.1132 16.1631C21.1036 16.1631 21.094 16.1631 21.0845 16.1631C21.0749 16.1631 21.0653 16.1631 21.0557 16.1631C21.0461 16.1631 21.0365 16.1631 21.0269 16.1631C21.0173 16.1631 21.0077 16.1631 20.9981 16.1631C20.9884 16.1631 20.9788 16.1631 20.9692 16.1631C20.9595 16.1631 20.9499 16.1631 20.9402 16.1631C20.9305 16.1631 20.9209 16.1631 20.9112 16.1631C20.9015 16.1631 20.8918 16.1631 20.8821 16.1631C20.8724 16.1631 20.8627 16.1631 20.853 16.1631C20.8433 16.1631 20.8336 16.1631 20.8238 16.1631C20.8141 16.1631 20.8044 16.1631 20.7946 16.1631C20.7849 16.1631 20.7751 16.1631 20.7654 16.1631C20.7556 16.1631 20.7458 16.1631 20.736 16.1631C20.7262 16.1631 20.7165 16.1631 20.7067 16.1631C20.6969 16.1631 20.687 16.1631 20.6772 16.1631C20.6674 16.1631 20.6576 16.1631 20.6478 16.1631C20.6379 16.1631 20.6281 16.1631 20.6182 16.1631C20.6084 16.1631 20.5985 16.1631 20.5886 16.1631C20.5788 16.1631 20.5689 16.1631 20.559 16.1631C20.5491 16.1631 20.5392 16.1631 20.5293 16.1631C20.5194 16.1631 20.5095 16.1631 20.4996 16.1631C20.4897 16.1631 20.4798 16.1631 20.4698 16.1631C20.4599 16.1631 20.45 16.1631 20.44 16.1631C20.4301 16.1631 20.4201 16.1631 20.4101 16.1631C20.4002 16.1631 20.3902 16.1631 20.3802 16.1631C20.3702 16.1631 20.3602 16.1631 20.3503 16.1631C20.3403 16.1631 20.3302 16.1631 20.3202 16.1631C20.3102 16.1631 20.3002 16.1631 20.2902 16.1631C20.2801 16.1631 20.2701 16.1631 20.2601 16.1631C20.25 16.1631 20.24 16.1631 20.2299 16.1631C20.2198 16.1631 20.2098 16.1631 20.1997 16.1631C20.1896 16.1631 20.1795 16.1631 20.1694 16.1631C20.1593 16.1631 20.1492 16.1631 20.1391 16.1631C20.129 16.1631 20.1189 16.1631 20.1088 16.1631C20.0987 16.1631 20.0885 16.1631 20.0784 16.1631C20.0683 16.1631 20.0581 16.1631 20.048 16.1631C20.0378 16.1631 20.0277 16.1631 20.0175 16.1631C20.0073 16.1631 19.9971 16.1631 19.987 16.1631C19.9768 16.1631 19.9666 16.1631 19.9564 16.1631C19.9462 16.1631 19.936 16.1631 19.9258 16.1631C19.9156 16.1631 19.9053 16.1631 19.8951 16.1631C19.8849 16.1631 19.8746 16.1631 19.8644 16.1631C19.8542 16.1631 19.8439 16.1631 19.8337 16.1631C19.8234 16.1631 19.8131 16.1631 19.8029 16.1631C19.7926 16.1631 19.7823 16.1631 19.772 16.1631C19.7617 16.1631 19.7515 16.1631 19.7412 16.1631C19.7309 16.1631 19.7206 16.1631 19.7102 16.1631C19.6999 16.1631 19.6896 16.1631 19.6793 16.1631C19.6689 16.1631 19.6586 16.1631 19.6483 16.1631C19.6379 16.1631 19.6276 16.1631 19.6172 16.1631C19.6069 16.1631 19.5965 16.1631 19.5861 16.1631C19.5758 16.1631 19.5654 16.1631 19.555 16.1631C19.5446 16.1631 19.5342 16.1631 19.5238 16.1631C19.5134 16.1631 19.503 16.1631 19.4926 16.1631C19.4822 16.1631 19.4718 16.1631 19.4614 16.1631C19.451 16.1631 19.4405 16.1631 19.4301 16.1631C19.4196 16.1631 19.4092 16.1631 19.3988 16.1631C19.3883 16.1631 19.3778 16.1631 19.3674 16.1631C19.3569 16.1631 19.3464 16.1631 19.336 16.1631C19.3255 16.1631 19.315 16.1631 19.3045 16.1631C19.294 16.1631 19.2835 16.1631 19.273 16.1631C19.2625 16.1631 19.252 16.1631 19.2415 16.1631C19.231 16.1631 19.2205 16.1631 19.2099 16.1631C19.1994 16.1631 19.1889 16.1631 19.1783 16.1631C19.1678 16.1631 19.1572 16.1631 19.1467 16.1631C19.1361 16.1631 19.1256 16.1631 19.115 16.1631C19.1044 16.1631 19.0939 16.1631 19.0833 16.1631C19.0727 16.1631 19.0621 16.1631 19.0515 16.1631C19.0409 16.1631 19.0303 16.1631 19.0197 16.1631C19.0091 16.1631 18.9985 16.1631 18.9879 16.1631C18.9773 16.1631 18.9667 16.1631 18.956 16.1631C18.9454 16.1631 18.9348 16.1631 18.9241 16.1631C18.9135 16.1631 18.9028 16.1631 18.8922 16.1631C18.8815 16.1631 18.8709 16.1631 18.8602 16.1631C18.8496 16.1631 18.8389 16.1631 18.8282 16.1631C18.8175 16.1631 18.8069 16.1631 18.7962 16.1631C18.7855 16.1631 18.7748 16.1631 18.7641 16.1631C18.7534 16.1631 18.7427 16.1631 18.732 16.1631C18.7213 16.1631 18.7105 16.1631 18.6998 16.1631C18.6891 16.1631 18.6784 16.1631 18.6676 16.1631C18.6569 16.1631 18.6462 16.1631 18.6354 16.1631C18.6247 16.1631 18.6139 16.1631 18.6032 16.1631C18.5924 16.1631 18.5817 16.1631 18.5709 16.1631C18.5601 16.1631 18.5494 16.1631 18.5386 16.1631C18.5278 16.1631 18.517 16.1631 18.5062 16.1631C18.4954 16.1631 18.4846 16.1631 18.4738 16.1631C18.463 16.1631 18.4522 16.1631 18.4414 16.1631C18.4306 16.1631 18.4198 16.1631 18.409 16.1631C18.3982 16.1631 18.3873 16.1631 18.3765 16.1631C18.3657 16.1631 18.3548 16.1631 18.344 16.1631C18.3332 16.1631 18.3223 16.1631 18.3115 16.1631C18.3006 16.1631 18.2897 16.1631 18.2789 16.1631C18.268 16.1631 18.2572 16.1631 18.2463 16.1631C18.2354 16.1631 18.2245 16.1631 18.2136 16.1631C18.2028 16.1631 18.1919 16.1631 18.181 16.1631C18.1701 16.1631 18.1592 16.1631 18.1483 16.1631C18.1374 16.1631 18.1265 16.1631 18.1156 16.1631C18.1047 16.1631 18.0937 16.1631 18.0828 16.1631C18.0719 16.1631 18.061 16.1631 18.05 16.1631C18.0391 16.1631 18.0282 16.1631 18.0172 16.1631C18.0063 16.1631 17.9953 16.1631 17.9844 16.1631C17.9734 16.1631 17.9625 16.1631 17.9515 16.1631C17.9406 16.1631 17.9296 16.1631 17.9186 16.1631C17.9077 16.1631 17.8967 16.1631 17.8857 16.1631C17.8747 16.1631 17.8637 16.1631 17.8527 16.1631C17.8418 16.1631 17.8308 16.1631 17.8198 16.1631C17.8088 16.1631 17.7978 16.1631 17.7868 16.1631C17.7758 16.1631 17.7647 16.1631 17.7537 16.1631C17.7427 16.1631 17.7317 16.1631 17.7207 16.1631C17.7096 16.1631 17.6986 16.1631 17.6876 16.1631C17.6765 16.1631 17.6655 16.1631 17.6545 16.1631C17.6434 16.1631 17.6324 16.1631 17.6213 16.1631C17.6103 16.1631 17.5992 16.1631 17.5882 16.1631C17.5771 16.1631 17.566 16.1631 17.555 16.1631C17.5439 16.1631 17.5328 16.1631 17.5218 16.1631C17.5107 16.1631 17.4996 16.1631 17.4885 16.1631C17.4774 16.1631 17.4664 16.1631 17.4553 16.1631C17.4442 16.1631 17.4331 16.1631 17.422 16.1631C17.4109 16.1631 17.3998 16.1631 17.3887 16.1631C17.3776 16.1631 17.3664 16.1631 17.3553 16.1631C17.3442 16.1631 17.3331 16.1631 17.322 16.1631C17.3108 16.1631 17.2997 16.1631 17.2886 16.1631C17.2775 16.1631 17.2663 16.1631 17.2552 16.1631C17.244 16.1631 17.2329 16.1631 17.2217 16.1631C17.2106 16.1631 17.1995 16.1631 17.1883 16.1631C17.1771 16.1631 17.166 16.1631 17.1548 16.1631C17.1437 16.1631 17.1325 16.1631 17.1213 16.1631C17.1102 16.1631 17.099 16.1631 17.0878 16.1631C17.0766 16.1631 17.0655 16.1631 17.0543 16.1631C17.0431 16.1631 17.0319 16.1631 17.0207 16.1631C17.0095 16.1631 16.9983 16.1631 16.9871 16.1631C16.9759 16.1631 16.9647 16.1631 16.9535 16.1631C16.9423 16.1631 16.9311 16.1631 16.9199 16.1631C16.9087 16.1631 16.8975 16.1631 16.8863 16.1631C16.8751 16.1631 16.8638 16.1631 16.8526 16.1631C16.8414 16.1631 16.8302 16.1631 16.8189 16.1631C16.8077 16.1631 16.7965 16.1631 16.7852 16.1631C16.774 16.1631 16.7628 16.1631 16.7515 16.1631C16.7403 16.1631 16.729 16.1631 16.7178 16.1631C16.7065 16.1631 16.6953 16.1631 16.684 16.1631C16.6728 16.1631 16.6615 16.1631 16.6502 16.1631C16.639 16.1631 16.6277 16.1631 16.6164 16.1631C16.6052 16.1631 16.5939 16.1631 16.5826 16.1631C16.5714 16.1631 16.5601 16.1631 16.5488 16.1631C16.5375 16.1631 16.5262 16.1631 16.515 16.1631C16.5037 16.1631 16.4924 16.1631 16.4811 16.1631C16.4698 16.1631 16.4585 16.1631 16.4472 16.1631C16.4359 16.1631 16.4246 16.1631 16.4133 16.1631C16.402 16.1631 16.3907 16.1631 16.3794 16.1631C16.3681 16.1631 16.3568 16.1631 16.3455 16.1631C16.3342 16.1631 16.3228 16.1631 16.3115 16.1631C16.3002 16.1631 16.2889 16.1631 16.2776 16.1631C16.2662 16.1631 16.2549 16.1631 16.2436 16.1631C16.2323 16.1631 16.2209 16.1631 16.2096 16.1631C16.1983 16.1631 16.1869 16.1631 16.1756 16.1631C16.1643 16.1631 16.1529 16.1631 16.1416 16.1631C16.1302 16.1631 16.1189 16.1631 16.1075 16.1631C16.0962 16.1631 16.0848 16.1631 16.0735 16.1631C16.0621 16.1631 16.0508 16.1631 16.0394 16.1631C16.0281 16.1631 16.0167 16.1631 16.0054 16.1631C15.994 16.1631 15.9826 16.1631 15.9713 16.1631C15.9599 16.1631 15.9485 16.1631 15.9372 16.1631C15.9258 16.1631 15.9144 16.1631 15.9031 16.1631C15.8917 16.1631 15.8803 16.1631 15.8689 16.1631C15.8576 16.1631 15.8462 16.1631 15.8348 16.1631C15.8234 16.1631 15.812 16.1631 15.8006 16.1631C15.7893 16.1631 15.7779 16.1631 15.7665 16.1631C15.7551 16.1631 15.7437 16.1631 15.7323 16.1631C15.7209 16.1631 15.7095 16.1631 15.6981 16.1631C15.6867 16.1631 15.6753 16.1631 15.6639 16.1631C15.6525 16.1631 15.6411 16.1631 15.6297 16.1631C15.6183 16.1631 15.6069 16.1631 15.5955 16.1631C15.5841 16.1631 15.5727 16.1631 15.5613 16.1631C15.5499 16.1631 15.5385 16.1631 15.527 16.1631C15.5156 16.1631 15.5042 16.1631 15.4928 16.1631C15.4814 16.1631 15.47 16.1631 15.4585 16.1631C15.4471 16.1631 15.4357 16.1631 15.4243 16.1631C15.4129 16.1631 15.4014 16.1631 15.39 16.1631C15.3786 16.1631 15.3672 16.1631 15.3557 16.1631C15.3443 16.1631 15.3329 16.1631 15.3214 16.1631C15.31 16.1631 15.2986 16.1631 15.2871 16.1631C15.2757 16.1631 15.2643 16.1631 15.2528 16.1631C15.2414 16.1631 15.23 16.1631 15.2185 16.1631C15.2071 16.1631 15.1956 16.1631 15.1842 16.1631C15.1728 16.1631 15.1613 16.1631 15.1499 16.1631C15.1384 16.1631 15.127 16.1631 15.1155 16.1631C15.1041 16.1631 15.0926 16.1631 15.0812 16.1631C15.0697 16.1631 15.0583 16.1631 15.0468 16.1631C15.0354 16.1631 15.0239 16.1631 15.0125 16.1631C15.001 16.1631 14.9896 16.1631 14.9781 16.1631C14.9667 16.1631 14.9552 16.1631 14.9438 16.1631C14.9323 16.1631 14.9209 16.1631 14.9094 16.1631C14.8979 16.1631 14.8865 16.1631 14.875 16.1631C14.8636 16.1631 14.8521 16.1631 14.8407 16.1631C14.8292 16.1631 14.8177 16.1631 14.8063 16.1631C14.7948 16.1631 14.7833 16.1631 14.7719 16.1631C14.7604 16.1631 14.749 16.1631 14.7375 16.1631C14.726 16.1631 14.7146 16.1631 14.7031 16.1631C14.6916 16.1631 14.6802 16.1631 14.6687 16.1631C14.6572 16.1631 14.6458 16.1631 14.6343 16.1631C14.6228 16.1631 14.6114 16.1631 14.5999 16.1631C14.5884 16.1631 14.577 16.1631 14.5655 16.1631C14.554 16.1631 14.5426 16.1631 14.5311 16.1631C14.5196 16.1631 14.5081 16.1631 14.4967 16.1631C14.4852 16.1631 14.4737 16.1631 14.4623 16.1631C14.4508 16.1631 14.4393 16.1631 14.4278 16.1631C14.4164 16.1631 14.4049 16.1631 14.3934 16.1631C14.382 16.1631 14.3705 16.1631 14.359 16.1631C14.3475 16.1631 14.3361 16.1631 14.3246 16.1631C14.3131 16.1631 14.3016 16.1631 14.2902 16.1631C14.2787 16.1631 14.2672 16.1631 14.2558 16.1631C14.2443 16.1631 14.2328 16.1631 14.2213 16.1631C14.2099 16.1631 14.1984 16.1631 14.1869 16.1631C14.1755 16.1631 14.164 16.1631 14.1525 16.1631C14.141 16.1631 14.1296 16.1631 14.1181 16.1631C14.1066 16.1631 14.0951 16.1631 14.0837 16.1631C14.0722 16.1631 14.0607 16.1631 14.0493 16.1631C14.0378 16.1631 14.0263 16.1631 14.0148 16.1631C14.0034 16.1631 13.9919 16.1631 13.9804 16.1631C13.969 16.1631 13.9575 16.1631 13.946 16.1631C13.9346 16.1631 13.9231 16.1631 13.9116 16.1631C13.9002 16.1631 13.8887 16.1631 13.8772 16.1631C13.8658 16.1631 13.8543 16.1631 13.8428 16.1631C13.8314 16.1631 13.8199 16.1631 13.8084 16.1631C13.797 16.1631 13.7855 16.1631 13.774 16.1631C13.7626 16.1631 13.7511 16.1631 13.7396 16.1631C13.7282 16.1631 13.7167 16.1631 13.7052 16.1631C13.6938 16.1631 13.6823 16.1631 13.6709 16.1631C13.6594 16.1631 13.6479 16.1631 13.6365 16.1631C13.625 16.1631 13.6136 16.1631 13.6021 16.1631C13.5907 16.1631 13.5792 16.1631 13.5677 16.1631C13.5563 16.1631 13.5448 16.1631 13.5334 16.1631C13.5219 16.1631 13.5105 16.1631 13.499 16.1631C13.4876 16.1631 13.4761 16.1631 13.4647 16.1631C13.4532 16.1631 13.4418 16.1631 13.4303 16.1631C13.4189 16.1631 13.4074 16.1631 13.396 16.1631C13.3845 16.1631 13.3731 16.1631 13.3616 16.1631C13.3502 16.1631 13.3388 16.1631 13.3273 16.1631C13.3159 16.1631 13.3044 16.1631 13.293 16.1631C13.2816 16.1631 13.2701 16.1631 13.2587 16.1631C13.2473 16.1631 13.2358 16.1631 13.2244 16.1631C13.2129 16.1631 13.2015 16.1631 13.1901 16.1631C13.1787 16.1631 13.1672 16.1631 13.1558 16.1631C13.1444 16.1631 13.1329 16.1631 13.1215 16.1631C13.1101 16.1631 13.0987 16.1631 13.0872 16.1631C13.0758 16.1631 13.0644 16.1631 13.053 16.1631C13.0416 16.1631 13.0301 16.1631 13.0187 16.1631C13.0073 16.1631 12.9959 16.1631 12.9845 16.1631C12.9731 16.1631 12.9617 16.1631 12.9502 16.1631C12.9388 16.1631 12.9274 16.1631 12.916 16.1631C12.9046 16.1631 12.8932 16.1631 12.8818 16.1631C12.8704 16.1631 12.859 16.1631 12.8476 16.1631C12.8362 16.1631 12.8248 16.1631 12.8134 16.1631C12.802 16.1631 12.7906 16.1631 12.7792 16.1631C12.7678 16.1631 12.7564 16.1631 12.745 16.1631C12.7336 16.1631 12.7223 16.1631 12.7109 16.1631C12.6995 16.1631 12.6881 16.1631 12.6767 16.1631C12.6653 16.1631 12.654 16.1631 12.6426 16.1631C12.6312 16.1631 12.6198 16.1631 12.6085 16.1631C12.5971 16.1631 12.5857 16.1631 12.5743 16.1631C12.563 16.1631 12.5516 16.1631 12.5402 16.1631C12.5289 16.1631 12.5175 16.1631 12.5062 16.1631C12.4948 16.1631 12.4834 16.1631 12.4721 16.1631C12.4607 16.1631 12.4494 16.1631 12.438 16.1631C12.4267 16.1631 12.4153 16.1631 12.404 16.1631C12.3926 16.1631 12.3813 16.1631 12.3699 16.1631C12.3586 16.1631 12.3473 16.1631 12.3359 16.1631C12.3246 16.1631 12.3132 16.1631 12.3019 16.1631C12.2906 16.1631 12.2793 16.1631 12.2679 16.1631C12.2566 16.1631 12.2453 16.1631 12.2339 16.1631C12.2226 16.1631 12.2113 16.1631 12.2 16.1631C12.1887 16.1631 12.1774 16.1631 12.166 16.1631C12.1547 16.1631 12.1434 16.1631 12.1321 16.1631C12.1208 16.1631 12.1095 16.1631 12.0982 16.1631C12.0869 16.1631 12.0756 16.1631 12.0643 16.1631C12.053 16.1631 12.0417 16.1631 12.0304 16.1631C12.0191 16.1631 12.0078 16.1631 11.9966 16.1631C11.9853 16.1631 11.974 16.1631 11.9627 16.1631C11.9514 16.1631 11.9402 16.1631 11.9289 16.1631C11.9176 16.1631 11.9063 16.1631 11.8951 16.1631C11.8838 16.1631 11.8725 16.1631 11.8613 16.1631C11.85 16.1631 11.8388 16.1631 11.8275 16.1631C11.8162 16.1631 11.805 16.1631 11.7937 16.1631C11.7825 16.1631 11.7713 16.1631 11.76 16.1631C11.7488 16.1631 11.7375 16.1631 11.7263 16.1631C11.7151 16.1631 11.7038 16.1631 11.6926 16.1631C11.6814 16.1631 11.6701 16.1631 11.6589 16.1631C11.6477 16.1631 11.6365 16.1631 11.6252 16.1631C11.614 16.1631 11.6028 16.1631 11.5916 16.1631C11.5804 16.1631 11.5692 16.1631 11.558 16.1631C11.5468 16.1631 11.5356 16.1631 11.5244 16.1631C11.5132 16.1631 11.502 16.1631 11.4908 16.1631C11.4796 16.1631 11.4684 16.1631 11.4572 16.1631C11.4461 16.1631 11.4349 16.1631 11.4237 16.1631C11.4125 16.1631 11.4014 16.1631 11.3902 16.1631C11.379 16.1631 11.3679 16.1631 11.3567 16.1631C11.3455 16.1631 11.3344 16.1631 11.3232 16.1631C11.3121 16.1631 11.3009 16.1631 11.2898 16.1631C11.2786 16.1631 11.2675 16.1631 11.2563 16.1631C11.2452 16.1631 11.2341 16.1631 11.2229 16.1631C11.2118 16.1631 11.2007 16.1631 11.1896 16.1631C11.1784 16.1631 11.1673 16.1631 11.1562 16.1631C11.1451 16.1631 11.134 16.1631 11.1229 16.1631C11.1118 16.1631 11.1006 16.1631 11.0895 16.1631C11.0784 16.1631 11.0674 16.1631 11.0563 16.1631C11.0452 16.1631 11.0341 16.1631 11.023 16.1631C11.0119 16.1631 11.0008 16.1631 10.9898 16.1631C10.9787 16.1631 10.9676 16.1631 10.9565 16.1631C10.9455 16.1631 10.9344 16.1631 10.9234 16.1631C10.9123 16.1631 10.9012 16.1631 10.8902 16.1631C10.8791 16.1631 10.8681 16.1631 10.8571 16.1631C10.846 16.1631 10.835 16.1631 10.8239 16.1631C10.8129 16.1631 10.8019 16.1631 10.7909 16.1631C10.7798 16.1631 10.7688 16.1631 10.7578 16.1631C10.7468 16.1631 10.7358 16.1631 10.7248 16.1631C10.7138 16.1631 10.7028 16.1631 10.6918 16.1631C10.6808 16.1631 10.6698 16.1631 10.6588 16.1631C10.6478 16.1631 10.6368 16.1631 10.6258 16.1631C10.6148 16.1631 10.6039 16.1631 10.5929 16.1631C10.5819 16.1631 10.571 16.1631 10.56 16.1631C10.549 16.1631 10.5381 16.1631 10.5271 16.1631C10.5162 16.1631 10.5052 16.1631 10.4943 16.1631C10.4834 16.1631 10.4724 16.1631 10.4615 16.1631C10.4506 16.1631 10.4396 16.1631 10.4287 16.1631C10.4178 16.1631 10.4069 16.1631 10.3959 16.1631C10.385 16.1631 10.3741 16.1631 10.3632 16.1631C10.3523 16.1631 10.3414 16.1631 10.3305 16.1631C10.3196 16.1631 10.3088 16.1631 10.2979 16.1631C10.287 16.1631 10.2761 16.1631 10.2652 16.1631C10.2544 16.1631 10.2435 16.1631 10.2326 16.1631C10.2218 16.1631 10.2109 16.1631 10.2001 16.1631C10.1892 16.1631 10.1784 16.1631 10.1675 16.1631C10.1567 16.1631 10.1458 16.1631 10.135 16.1631C10.1242 16.1631 10.1134 16.1631 10.1025 16.1631C10.0917 16.1631 10.0809 16.1631 10.0701 16.1631C10.0593 16.1631 10.0485 16.1631 10.0377 16.1631C10.0269 16.1631 10.0161 16.1631 10.0053 16.1631C9.9945 16.1631 9.98372 16.1631 9.97294 16.1631C9.96216 16.1631 9.95139 16.1631 9.94062 16.1631C9.92986 16.1631 9.9191 16.1631 9.90834 16.1631C9.89759 16.1631 9.88684 16.1631 9.87609 16.1631C9.86535 16.1631 9.85461 16.1631 9.84387 16.1631C9.83314 16.1631 9.82241 16.1631 9.81169 16.1631C9.80097 16.1631 9.79025 16.1631 9.77954 16.1631C9.76883 16.1631 9.75813 16.1631 9.74743 16.1631C9.73673 16.1631 9.72604 16.1631 9.71535 16.1631C9.70466 16.1631 9.69398 16.1631 9.68331 16.1631C9.67263 16.1631 9.66196 16.1631 9.6513 16.1631C9.64063 16.1631 9.62997 16.1631 9.61932 16.1631C9.60867 16.1631 9.59802 16.1631 9.58738 16.1631C9.57674 16.1631 9.56611 16.1631 9.55548 16.1631C9.54485 16.1631 9.53423 16.1631 9.52362 16.1631C9.513 16.1631 9.50239 16.1631 9.49179 16.1631C9.48118 16.1631 9.47059 16.1631 9.45999 16.1631C9.4494 16.1631 9.43882 16.1631 9.42824 16.1631C9.41766 16.1631 9.40709 16.1631 9.39652 16.1631C9.38595 16.1631 9.37539 16.1631 9.36484 16.1631C9.35428 16.1631 9.34374 16.1631 9.33319 16.1631C9.32265 16.1631 9.31212 16.1631 9.30159 16.1631C9.29106 16.1631 9.28054 16.1631 9.27002 16.1631C9.25951 16.1631 9.249 16.1631 9.23849 16.1631C9.22799 16.1631 9.21749 16.1631 9.207 16.1631C9.19651 16.1631 9.18603 16.1631 9.17555 16.1631C9.16508 16.1631 9.1546 16.1631 9.14414 16.1631C9.13368 16.1631 9.12322 16.1631 9.11277 16.1631C9.10232 16.1631 9.09187 16.1631 9.08144 16.1631C9.071 16.1631 9.06057 16.1631 9.05014 16.1631C9.03972 16.1631 9.0293 16.1631 9.01889 16.1631C9.00848 16.1631 8.99808 16.1631 8.98768 16.1631C8.97728 16.1631 8.96689 16.1631 8.95651 16.1631C8.94613 16.1631 8.93575 16.1631 8.92538 16.1631C8.91501 16.1631 8.90465 16.1631 8.89429 16.1631C8.88394 16.1631 8.87359 16.1631 8.86325 16.1631C8.85291 16.1631 8.84257 16.1631 8.83224 16.1631C8.82192 16.1631 8.81159 16.1631 8.80128 16.1631C8.79097 16.1631 8.78066 16.1631 8.77036 16.1631C8.76006 16.1631 8.74977 16.1631 8.73948 16.1631C8.7292 16.1631 8.71892 16.1631 8.70865 16.1631C8.69838 16.1631 8.68812 16.1631 8.67786 16.1631C8.6676 16.1631 8.65735 16.1631 8.64711 16.1631C8.63687 16.1631 8.62663 16.1631 8.61641 16.1631C8.60618 16.1631 8.59596 16.1631 8.58575 16.1631C8.57553 16.1631 8.56533 16.1631 8.55513 16.1631C8.54493 16.1631 8.53474 16.1631 8.52456 16.1631C8.51438 16.1631 8.5042 16.1631 8.49403 16.1631C8.48387 16.1631 8.47371 16.1631 8.46355 16.1631C8.4534 16.1631 8.44325 16.1631 8.43312 16.1631C8.42298 16.1631 8.41285 16.1631 8.40273 16.1631C8.3926 16.1631 8.38249 16.1631 8.37238 16.1631C8.36227 16.1631 8.35217 16.1631 8.34208 16.1631C8.33199 16.1631 8.32191 16.1631 8.31183 16.1631C8.30175 16.1631 8.29168 16.1631 8.28162 16.1631C8.27156 16.1631 8.26151 16.1631 8.25146 16.1631C8.24142 16.1631 8.23138 16.1631 8.22135 16.1631C8.21132 16.1631 8.2013 16.1631 8.19129 16.1631C8.18127 16.1631 8.17127 16.1631 8.16127 16.1631C8.15127 16.1631 8.14128 16.1631 8.1313 16.1631C8.12132 16.1631 8.11134 16.1631 8.10138 16.1631C8.09141 16.1631 8.08145 16.1631 8.0715 16.1631C8.06155 16.1631 8.05161 16.1631 8.04168 16.1631C8.03175 16.1631 8.02182 16.1631 8.0119 16.1631C8.00199 16.1631 7.99208 16.1631 7.98218 16.1631C7.97228 16.1631 7.96238 16.1631 7.9525 16.1631V19.1631C7.96238 19.1631 7.97228 19.1631 7.98218 19.1631C7.99208 19.1631 8.00199 19.1631 8.0119 19.1631C8.02182 19.1631 8.03175 19.1631 8.04168 19.1631C8.05161 19.1631 8.06155 19.1631 8.0715 19.1631C8.08145 19.1631 8.09141 19.1631 8.10138 19.1631C8.11134 19.1631 8.12132 19.1631 8.1313 19.1631C8.14128 19.1631 8.15127 19.1631 8.16127 19.1631C8.17127 19.1631 8.18127 19.1631 8.19129 19.1631C8.2013 19.1631 8.21132 19.1631 8.22135 19.1631C8.23138 19.1631 8.24142 19.1631 8.25146 19.1631C8.26151 19.1631 8.27156 19.1631 8.28162 19.1631C8.29168 19.1631 8.30175 19.1631 8.31183 19.1631C8.32191 19.1631 8.33199 19.1631 8.34208 19.1631C8.35217 19.1631 8.36227 19.1631 8.37238 19.1631C8.38249 19.1631 8.3926 19.1631 8.40273 19.1631C8.41285 19.1631 8.42298 19.1631 8.43312 19.1631C8.44325 19.1631 8.4534 19.1631 8.46355 19.1631C8.47371 19.1631 8.48387 19.1631 8.49403 19.1631C8.5042 19.1631 8.51438 19.1631 8.52456 19.1631C8.53474 19.1631 8.54493 19.1631 8.55513 19.1631C8.56533 19.1631 8.57553 19.1631 8.58575 19.1631C8.59596 19.1631 8.60618 19.1631 8.61641 19.1631C8.62663 19.1631 8.63687 19.1631 8.64711 19.1631C8.65735 19.1631 8.6676 19.1631 8.67786 19.1631C8.68812 19.1631 8.69838 19.1631 8.70865 19.1631C8.71892 19.1631 8.7292 19.1631 8.73948 19.1631C8.74977 19.1631 8.76006 19.1631 8.77036 19.1631C8.78066 19.1631 8.79097 19.1631 8.80128 19.1631C8.81159 19.1631 8.82192 19.1631 8.83224 19.1631C8.84257 19.1631 8.85291 19.1631 8.86325 19.1631C8.87359 19.1631 8.88394 19.1631 8.89429 19.1631C8.90465 19.1631 8.91501 19.1631 8.92538 19.1631C8.93575 19.1631 8.94613 19.1631 8.95651 19.1631C8.96689 19.1631 8.97728 19.1631 8.98768 19.1631C8.99808 19.1631 9.00848 19.1631 9.01889 19.1631C9.0293 19.1631 9.03972 19.1631 9.05014 19.1631C9.06057 19.1631 9.071 19.1631 9.08144 19.1631C9.09187 19.1631 9.10232 19.1631 9.11277 19.1631C9.12322 19.1631 9.13368 19.1631 9.14414 19.1631C9.1546 19.1631 9.16508 19.1631 9.17555 19.1631C9.18603 19.1631 9.19651 19.1631 9.207 19.1631C9.21749 19.1631 9.22799 19.1631 9.23849 19.1631C9.249 19.1631 9.25951 19.1631 9.27002 19.1631C9.28054 19.1631 9.29106 19.1631 9.30159 19.1631C9.31212 19.1631 9.32265 19.1631 9.33319 19.1631C9.34374 19.1631 9.35428 19.1631 9.36484 19.1631C9.37539 19.1631 9.38595 19.1631 9.39652 19.1631C9.40709 19.1631 9.41766 19.1631 9.42824 19.1631C9.43882 19.1631 9.4494 19.1631 9.45999 19.1631C9.47059 19.1631 9.48118 19.1631 9.49179 19.1631C9.50239 19.1631 9.513 19.1631 9.52362 19.1631C9.53423 19.1631 9.54485 19.1631 9.55548 19.1631C9.56611 19.1631 9.57674 19.1631 9.58738 19.1631C9.59802 19.1631 9.60867 19.1631 9.61932 19.1631C9.62997 19.1631 9.64063 19.1631 9.6513 19.1631C9.66196 19.1631 9.67263 19.1631 9.68331 19.1631C9.69398 19.1631 9.70466 19.1631 9.71535 19.1631C9.72604 19.1631 9.73673 19.1631 9.74743 19.1631C9.75813 19.1631 9.76883 19.1631 9.77954 19.1631C9.79025 19.1631 9.80097 19.1631 9.81169 19.1631C9.82241 19.1631 9.83314 19.1631 9.84387 19.1631C9.85461 19.1631 9.86535 19.1631 9.87609 19.1631C9.88684 19.1631 9.89759 19.1631 9.90834 19.1631C9.9191 19.1631 9.92986 19.1631 9.94062 19.1631C9.95139 19.1631 9.96216 19.1631 9.97294 19.1631C9.98372 19.1631 9.9945 19.1631 10.0053 19.1631C10.0161 19.1631 10.0269 19.1631 10.0377 19.1631C10.0485 19.1631 10.0593 19.1631 10.0701 19.1631C10.0809 19.1631 10.0917 19.1631 10.1025 19.1631C10.1134 19.1631 10.1242 19.1631 10.135 19.1631C10.1458 19.1631 10.1567 19.1631 10.1675 19.1631C10.1784 19.1631 10.1892 19.1631 10.2001 19.1631C10.2109 19.1631 10.2218 19.1631 10.2326 19.1631C10.2435 19.1631 10.2544 19.1631 10.2652 19.1631C10.2761 19.1631 10.287 19.1631 10.2979 19.1631C10.3088 19.1631 10.3196 19.1631 10.3305 19.1631C10.3414 19.1631 10.3523 19.1631 10.3632 19.1631C10.3741 19.1631 10.385 19.1631 10.3959 19.1631C10.4069 19.1631 10.4178 19.1631 10.4287 19.1631C10.4396 19.1631 10.4506 19.1631 10.4615 19.1631C10.4724 19.1631 10.4834 19.1631 10.4943 19.1631C10.5052 19.1631 10.5162 19.1631 10.5271 19.1631C10.5381 19.1631 10.549 19.1631 10.56 19.1631C10.571 19.1631 10.5819 19.1631 10.5929 19.1631C10.6039 19.1631 10.6148 19.1631 10.6258 19.1631C10.6368 19.1631 10.6478 19.1631 10.6588 19.1631C10.6698 19.1631 10.6808 19.1631 10.6918 19.1631C10.7028 19.1631 10.7138 19.1631 10.7248 19.1631C10.7358 19.1631 10.7468 19.1631 10.7578 19.1631C10.7688 19.1631 10.7798 19.1631 10.7909 19.1631C10.8019 19.1631 10.8129 19.1631 10.8239 19.1631C10.835 19.1631 10.846 19.1631 10.8571 19.1631C10.8681 19.1631 10.8791 19.1631 10.8902 19.1631C10.9012 19.1631 10.9123 19.1631 10.9234 19.1631C10.9344 19.1631 10.9455 19.1631 10.9565 19.1631C10.9676 19.1631 10.9787 19.1631 10.9898 19.1631C11.0008 19.1631 11.0119 19.1631 11.023 19.1631C11.0341 19.1631 11.0452 19.1631 11.0563 19.1631C11.0674 19.1631 11.0784 19.1631 11.0895 19.1631C11.1006 19.1631 11.1118 19.1631 11.1229 19.1631C11.134 19.1631 11.1451 19.1631 11.1562 19.1631C11.1673 19.1631 11.1784 19.1631 11.1896 19.1631C11.2007 19.1631 11.2118 19.1631 11.2229 19.1631C11.2341 19.1631 11.2452 19.1631 11.2563 19.1631C11.2675 19.1631 11.2786 19.1631 11.2898 19.1631C11.3009 19.1631 11.3121 19.1631 11.3232 19.1631C11.3344 19.1631 11.3455 19.1631 11.3567 19.1631C11.3679 19.1631 11.379 19.1631 11.3902 19.1631C11.4014 19.1631 11.4125 19.1631 11.4237 19.1631C11.4349 19.1631 11.4461 19.1631 11.4572 19.1631C11.4684 19.1631 11.4796 19.1631 11.4908 19.1631C11.502 19.1631 11.5132 19.1631 11.5244 19.1631C11.5356 19.1631 11.5468 19.1631 11.558 19.1631C11.5692 19.1631 11.5804 19.1631 11.5916 19.1631C11.6028 19.1631 11.614 19.1631 11.6252 19.1631C11.6365 19.1631 11.6477 19.1631 11.6589 19.1631C11.6701 19.1631 11.6814 19.1631 11.6926 19.1631C11.7038 19.1631 11.7151 19.1631 11.7263 19.1631C11.7375 19.1631 11.7488 19.1631 11.76 19.1631C11.7713 19.1631 11.7825 19.1631 11.7937 19.1631C11.805 19.1631 11.8162 19.1631 11.8275 19.1631C11.8388 19.1631 11.85 19.1631 11.8613 19.1631C11.8725 19.1631 11.8838 19.1631 11.8951 19.1631C11.9063 19.1631 11.9176 19.1631 11.9289 19.1631C11.9402 19.1631 11.9514 19.1631 11.9627 19.1631C11.974 19.1631 11.9853 19.1631 11.9966 19.1631C12.0078 19.1631 12.0191 19.1631 12.0304 19.1631C12.0417 19.1631 12.053 19.1631 12.0643 19.1631C12.0756 19.1631 12.0869 19.1631 12.0982 19.1631C12.1095 19.1631 12.1208 19.1631 12.1321 19.1631C12.1434 19.1631 12.1547 19.1631 12.166 19.1631C12.1774 19.1631 12.1887 19.1631 12.2 19.1631C12.2113 19.1631 12.2226 19.1631 12.2339 19.1631C12.2453 19.1631 12.2566 19.1631 12.2679 19.1631C12.2793 19.1631 12.2906 19.1631 12.3019 19.1631C12.3132 19.1631 12.3246 19.1631 12.3359 19.1631C12.3473 19.1631 12.3586 19.1631 12.3699 19.1631C12.3813 19.1631 12.3926 19.1631 12.404 19.1631C12.4153 19.1631 12.4267 19.1631 12.438 19.1631C12.4494 19.1631 12.4607 19.1631 12.4721 19.1631C12.4834 19.1631 12.4948 19.1631 12.5062 19.1631C12.5175 19.1631 12.5289 19.1631 12.5402 19.1631C12.5516 19.1631 12.563 19.1631 12.5743 19.1631C12.5857 19.1631 12.5971 19.1631 12.6085 19.1631C12.6198 19.1631 12.6312 19.1631 12.6426 19.1631C12.654 19.1631 12.6653 19.1631 12.6767 19.1631C12.6881 19.1631 12.6995 19.1631 12.7109 19.1631C12.7223 19.1631 12.7336 19.1631 12.745 19.1631C12.7564 19.1631 12.7678 19.1631 12.7792 19.1631C12.7906 19.1631 12.802 19.1631 12.8134 19.1631C12.8248 19.1631 12.8362 19.1631 12.8476 19.1631C12.859 19.1631 12.8704 19.1631 12.8818 19.1631C12.8932 19.1631 12.9046 19.1631 12.916 19.1631C12.9274 19.1631 12.9388 19.1631 12.9502 19.1631C12.9617 19.1631 12.9731 19.1631 12.9845 19.1631C12.9959 19.1631 13.0073 19.1631 13.0187 19.1631C13.0301 19.1631 13.0416 19.1631 13.053 19.1631C13.0644 19.1631 13.0758 19.1631 13.0872 19.1631C13.0987 19.1631 13.1101 19.1631 13.1215 19.1631C13.1329 19.1631 13.1444 19.1631 13.1558 19.1631C13.1672 19.1631 13.1787 19.1631 13.1901 19.1631C13.2015 19.1631 13.2129 19.1631 13.2244 19.1631C13.2358 19.1631 13.2473 19.1631 13.2587 19.1631C13.2701 19.1631 13.2816 19.1631 13.293 19.1631C13.3044 19.1631 13.3159 19.1631 13.3273 19.1631C13.3388 19.1631 13.3502 19.1631 13.3616 19.1631C13.3731 19.1631 13.3845 19.1631 13.396 19.1631C13.4074 19.1631 13.4189 19.1631 13.4303 19.1631C13.4418 19.1631 13.4532 19.1631 13.4647 19.1631C13.4761 19.1631 13.4876 19.1631 13.499 19.1631C13.5105 19.1631 13.5219 19.1631 13.5334 19.1631C13.5448 19.1631 13.5563 19.1631 13.5677 19.1631C13.5792 19.1631 13.5907 19.1631 13.6021 19.1631C13.6136 19.1631 13.625 19.1631 13.6365 19.1631C13.6479 19.1631 13.6594 19.1631 13.6709 19.1631C13.6823 19.1631 13.6938 19.1631 13.7052 19.1631C13.7167 19.1631 13.7282 19.1631 13.7396 19.1631C13.7511 19.1631 13.7626 19.1631 13.774 19.1631C13.7855 19.1631 13.797 19.1631 13.8084 19.1631C13.8199 19.1631 13.8314 19.1631 13.8428 19.1631C13.8543 19.1631 13.8658 19.1631 13.8772 19.1631C13.8887 19.1631 13.9002 19.1631 13.9116 19.1631C13.9231 19.1631 13.9346 19.1631 13.946 19.1631C13.9575 19.1631 13.969 19.1631 13.9804 19.1631C13.9919 19.1631 14.0034 19.1631 14.0148 19.1631C14.0263 19.1631 14.0378 19.1631 14.0493 19.1631C14.0607 19.1631 14.0722 19.1631 14.0837 19.1631C14.0951 19.1631 14.1066 19.1631 14.1181 19.1631C14.1296 19.1631 14.141 19.1631 14.1525 19.1631C14.164 19.1631 14.1755 19.1631 14.1869 19.1631C14.1984 19.1631 14.2099 19.1631 14.2213 19.1631C14.2328 19.1631 14.2443 19.1631 14.2558 19.1631C14.2672 19.1631 14.2787 19.1631 14.2902 19.1631C14.3016 19.1631 14.3131 19.1631 14.3246 19.1631C14.3361 19.1631 14.3475 19.1631 14.359 19.1631C14.3705 19.1631 14.382 19.1631 14.3934 19.1631C14.4049 19.1631 14.4164 19.1631 14.4278 19.1631C14.4393 19.1631 14.4508 19.1631 14.4623 19.1631C14.4737 19.1631 14.4852 19.1631 14.4967 19.1631C14.5081 19.1631 14.5196 19.1631 14.5311 19.1631C14.5426 19.1631 14.554 19.1631 14.5655 19.1631C14.577 19.1631 14.5884 19.1631 14.5999 19.1631C14.6114 19.1631 14.6228 19.1631 14.6343 19.1631C14.6458 19.1631 14.6572 19.1631 14.6687 19.1631C14.6802 19.1631 14.6916 19.1631 14.7031 19.1631C14.7146 19.1631 14.726 19.1631 14.7375 19.1631C14.749 19.1631 14.7604 19.1631 14.7719 19.1631C14.7833 19.1631 14.7948 19.1631 14.8063 19.1631C14.8177 19.1631 14.8292 19.1631 14.8407 19.1631C14.8521 19.1631 14.8636 19.1631 14.875 19.1631C14.8865 19.1631 14.8979 19.1631 14.9094 19.1631C14.9209 19.1631 14.9323 19.1631 14.9438 19.1631C14.9552 19.1631 14.9667 19.1631 14.9781 19.1631C14.9896 19.1631 15.001 19.1631 15.0125 19.1631C15.0239 19.1631 15.0354 19.1631 15.0468 19.1631C15.0583 19.1631 15.0697 19.1631 15.0812 19.1631C15.0926 19.1631 15.1041 19.1631 15.1155 19.1631C15.127 19.1631 15.1384 19.1631 15.1499 19.1631C15.1613 19.1631 15.1728 19.1631 15.1842 19.1631C15.1956 19.1631 15.2071 19.1631 15.2185 19.1631C15.23 19.1631 15.2414 19.1631 15.2528 19.1631C15.2643 19.1631 15.2757 19.1631 15.2871 19.1631C15.2986 19.1631 15.31 19.1631 15.3214 19.1631C15.3329 19.1631 15.3443 19.1631 15.3557 19.1631C15.3672 19.1631 15.3786 19.1631 15.39 19.1631C15.4014 19.1631 15.4129 19.1631 15.4243 19.1631C15.4357 19.1631 15.4471 19.1631 15.4585 19.1631C15.47 19.1631 15.4814 19.1631 15.4928 19.1631C15.5042 19.1631 15.5156 19.1631 15.527 19.1631C15.5385 19.1631 15.5499 19.1631 15.5613 19.1631C15.5727 19.1631 15.5841 19.1631 15.5955 19.1631C15.6069 19.1631 15.6183 19.1631 15.6297 19.1631C15.6411 19.1631 15.6525 19.1631 15.6639 19.1631C15.6753 19.1631 15.6867 19.1631 15.6981 19.1631C15.7095 19.1631 15.7209 19.1631 15.7323 19.1631C15.7437 19.1631 15.7551 19.1631 15.7665 19.1631C15.7779 19.1631 15.7893 19.1631 15.8006 19.1631C15.812 19.1631 15.8234 19.1631 15.8348 19.1631C15.8462 19.1631 15.8576 19.1631 15.8689 19.1631C15.8803 19.1631 15.8917 19.1631 15.9031 19.1631C15.9144 19.1631 15.9258 19.1631 15.9372 19.1631C15.9485 19.1631 15.9599 19.1631 15.9713 19.1631C15.9826 19.1631 15.994 19.1631 16.0054 19.1631C16.0167 19.1631 16.0281 19.1631 16.0394 19.1631C16.0508 19.1631 16.0621 19.1631 16.0735 19.1631C16.0848 19.1631 16.0962 19.1631 16.1075 19.1631C16.1189 19.1631 16.1302 19.1631 16.1416 19.1631C16.1529 19.1631 16.1643 19.1631 16.1756 19.1631C16.1869 19.1631 16.1983 19.1631 16.2096 19.1631C16.2209 19.1631 16.2323 19.1631 16.2436 19.1631C16.2549 19.1631 16.2662 19.1631 16.2776 19.1631C16.2889 19.1631 16.3002 19.1631 16.3115 19.1631C16.3228 19.1631 16.3342 19.1631 16.3455 19.1631C16.3568 19.1631 16.3681 19.1631 16.3794 19.1631C16.3907 19.1631 16.402 19.1631 16.4133 19.1631C16.4246 19.1631 16.4359 19.1631 16.4472 19.1631C16.4585 19.1631 16.4698 19.1631 16.4811 19.1631C16.4924 19.1631 16.5037 19.1631 16.515 19.1631C16.5262 19.1631 16.5375 19.1631 16.5488 19.1631C16.5601 19.1631 16.5714 19.1631 16.5826 19.1631C16.5939 19.1631 16.6052 19.1631 16.6164 19.1631C16.6277 19.1631 16.639 19.1631 16.6502 19.1631C16.6615 19.1631 16.6728 19.1631 16.684 19.1631C16.6953 19.1631 16.7065 19.1631 16.7178 19.1631C16.729 19.1631 16.7403 19.1631 16.7515 19.1631C16.7628 19.1631 16.774 19.1631 16.7852 19.1631C16.7965 19.1631 16.8077 19.1631 16.8189 19.1631C16.8302 19.1631 16.8414 19.1631 16.8526 19.1631C16.8638 19.1631 16.8751 19.1631 16.8863 19.1631C16.8975 19.1631 16.9087 19.1631 16.9199 19.1631C16.9311 19.1631 16.9423 19.1631 16.9535 19.1631C16.9647 19.1631 16.9759 19.1631 16.9871 19.1631C16.9983 19.1631 17.0095 19.1631 17.0207 19.1631C17.0319 19.1631 17.0431 19.1631 17.0543 19.1631C17.0655 19.1631 17.0766 19.1631 17.0878 19.1631C17.099 19.1631 17.1102 19.1631 17.1213 19.1631C17.1325 19.1631 17.1437 19.1631 17.1548 19.1631C17.166 19.1631 17.1771 19.1631 17.1883 19.1631C17.1995 19.1631 17.2106 19.1631 17.2217 19.1631C17.2329 19.1631 17.244 19.1631 17.2552 19.1631C17.2663 19.1631 17.2775 19.1631 17.2886 19.1631C17.2997 19.1631 17.3108 19.1631 17.322 19.1631C17.3331 19.1631 17.3442 19.1631 17.3553 19.1631C17.3664 19.1631 17.3776 19.1631 17.3887 19.1631C17.3998 19.1631 17.4109 19.1631 17.422 19.1631C17.4331 19.1631 17.4442 19.1631 17.4553 19.1631C17.4664 19.1631 17.4774 19.1631 17.4885 19.1631C17.4996 19.1631 17.5107 19.1631 17.5218 19.1631C17.5328 19.1631 17.5439 19.1631 17.555 19.1631C17.566 19.1631 17.5771 19.1631 17.5882 19.1631C17.5992 19.1631 17.6103 19.1631 17.6213 19.1631C17.6324 19.1631 17.6434 19.1631 17.6545 19.1631C17.6655 19.1631 17.6765 19.1631 17.6876 19.1631C17.6986 19.1631 17.7096 19.1631 17.7207 19.1631C17.7317 19.1631 17.7427 19.1631 17.7537 19.1631C17.7647 19.1631 17.7758 19.1631 17.7868 19.1631C17.7978 19.1631 17.8088 19.1631 17.8198 19.1631C17.8308 19.1631 17.8418 19.1631 17.8527 19.1631C17.8637 19.1631 17.8747 19.1631 17.8857 19.1631C17.8967 19.1631 17.9077 19.1631 17.9186 19.1631C17.9296 19.1631 17.9406 19.1631 17.9515 19.1631C17.9625 19.1631 17.9734 19.1631 17.9844 19.1631C17.9953 19.1631 18.0063 19.1631 18.0172 19.1631C18.0282 19.1631 18.0391 19.1631 18.05 19.1631C18.061 19.1631 18.0719 19.1631 18.0828 19.1631C18.0937 19.1631 18.1047 19.1631 18.1156 19.1631C18.1265 19.1631 18.1374 19.1631 18.1483 19.1631C18.1592 19.1631 18.1701 19.1631 18.181 19.1631C18.1919 19.1631 18.2028 19.1631 18.2136 19.1631C18.2245 19.1631 18.2354 19.1631 18.2463 19.1631C18.2572 19.1631 18.268 19.1631 18.2789 19.1631C18.2897 19.1631 18.3006 19.1631 18.3115 19.1631C18.3223 19.1631 18.3332 19.1631 18.344 19.1631C18.3548 19.1631 18.3657 19.1631 18.3765 19.1631C18.3873 19.1631 18.3982 19.1631 18.409 19.1631C18.4198 19.1631 18.4306 19.1631 18.4414 19.1631C18.4522 19.1631 18.463 19.1631 18.4738 19.1631C18.4846 19.1631 18.4954 19.1631 18.5062 19.1631C18.517 19.1631 18.5278 19.1631 18.5386 19.1631C18.5494 19.1631 18.5601 19.1631 18.5709 19.1631C18.5817 19.1631 18.5924 19.1631 18.6032 19.1631C18.6139 19.1631 18.6247 19.1631 18.6354 19.1631C18.6462 19.1631 18.6569 19.1631 18.6676 19.1631C18.6784 19.1631 18.6891 19.1631 18.6998 19.1631C18.7105 19.1631 18.7213 19.1631 18.732 19.1631C18.7427 19.1631 18.7534 19.1631 18.7641 19.1631C18.7748 19.1631 18.7855 19.1631 18.7962 19.1631C18.8069 19.1631 18.8175 19.1631 18.8282 19.1631C18.8389 19.1631 18.8496 19.1631 18.8602 19.1631C18.8709 19.1631 18.8815 19.1631 18.8922 19.1631C18.9028 19.1631 18.9135 19.1631 18.9241 19.1631C18.9348 19.1631 18.9454 19.1631 18.956 19.1631C18.9667 19.1631 18.9773 19.1631 18.9879 19.1631C18.9985 19.1631 19.0091 19.1631 19.0197 19.1631C19.0303 19.1631 19.0409 19.1631 19.0515 19.1631C19.0621 19.1631 19.0727 19.1631 19.0833 19.1631C19.0939 19.1631 19.1044 19.1631 19.115 19.1631C19.1256 19.1631 19.1361 19.1631 19.1467 19.1631C19.1572 19.1631 19.1678 19.1631 19.1783 19.1631C19.1889 19.1631 19.1994 19.1631 19.2099 19.1631C19.2205 19.1631 19.231 19.1631 19.2415 19.1631C19.252 19.1631 19.2625 19.1631 19.273 19.1631C19.2835 19.1631 19.294 19.1631 19.3045 19.1631C19.315 19.1631 19.3255 19.1631 19.336 19.1631C19.3464 19.1631 19.3569 19.1631 19.3674 19.1631C19.3778 19.1631 19.3883 19.1631 19.3988 19.1631C19.4092 19.1631 19.4196 19.1631 19.4301 19.1631C19.4405 19.1631 19.451 19.1631 19.4614 19.1631C19.4718 19.1631 19.4822 19.1631 19.4926 19.1631C19.503 19.1631 19.5134 19.1631 19.5238 19.1631C19.5342 19.1631 19.5446 19.1631 19.555 19.1631C19.5654 19.1631 19.5758 19.1631 19.5861 19.1631C19.5965 19.1631 19.6069 19.1631 19.6172 19.1631C19.6276 19.1631 19.6379 19.1631 19.6483 19.1631C19.6586 19.1631 19.6689 19.1631 19.6793 19.1631C19.6896 19.1631 19.6999 19.1631 19.7102 19.1631C19.7206 19.1631 19.7309 19.1631 19.7412 19.1631C19.7515 19.1631 19.7617 19.1631 19.772 19.1631C19.7823 19.1631 19.7926 19.1631 19.8029 19.1631C19.8131 19.1631 19.8234 19.1631 19.8337 19.1631C19.8439 19.1631 19.8542 19.1631 19.8644 19.1631C19.8746 19.1631 19.8849 19.1631 19.8951 19.1631C19.9053 19.1631 19.9156 19.1631 19.9258 19.1631C19.936 19.1631 19.9462 19.1631 19.9564 19.1631C19.9666 19.1631 19.9768 19.1631 19.987 19.1631C19.9971 19.1631 20.0073 19.1631 20.0175 19.1631C20.0277 19.1631 20.0378 19.1631 20.048 19.1631C20.0581 19.1631 20.0683 19.1631 20.0784 19.1631C20.0885 19.1631 20.0987 19.1631 20.1088 19.1631C20.1189 19.1631 20.129 19.1631 20.1391 19.1631C20.1492 19.1631 20.1593 19.1631 20.1694 19.1631C20.1795 19.1631 20.1896 19.1631 20.1997 19.1631C20.2098 19.1631 20.2198 19.1631 20.2299 19.1631C20.24 19.1631 20.25 19.1631 20.2601 19.1631C20.2701 19.1631 20.2801 19.1631 20.2902 19.1631C20.3002 19.1631 20.3102 19.1631 20.3202 19.1631C20.3302 19.1631 20.3403 19.1631 20.3503 19.1631C20.3602 19.1631 20.3702 19.1631 20.3802 19.1631C20.3902 19.1631 20.4002 19.1631 20.4101 19.1631C20.4201 19.1631 20.4301 19.1631 20.44 19.1631C20.45 19.1631 20.4599 19.1631 20.4698 19.1631C20.4798 19.1631 20.4897 19.1631 20.4996 19.1631C20.5095 19.1631 20.5194 19.1631 20.5293 19.1631C20.5392 19.1631 20.5491 19.1631 20.559 19.1631C20.5689 19.1631 20.5788 19.1631 20.5886 19.1631C20.5985 19.1631 20.6084 19.1631 20.6182 19.1631C20.6281 19.1631 20.6379 19.1631 20.6478 19.1631C20.6576 19.1631 20.6674 19.1631 20.6772 19.1631C20.687 19.1631 20.6969 19.1631 20.7067 19.1631C20.7165 19.1631 20.7262 19.1631 20.736 19.1631C20.7458 19.1631 20.7556 19.1631 20.7654 19.1631C20.7751 19.1631 20.7849 19.1631 20.7946 19.1631C20.8044 19.1631 20.8141 19.1631 20.8238 19.1631C20.8336 19.1631 20.8433 19.1631 20.853 19.1631C20.8627 19.1631 20.8724 19.1631 20.8821 19.1631C20.8918 19.1631 20.9015 19.1631 20.9112 19.1631C20.9209 19.1631 20.9305 19.1631 20.9402 19.1631C20.9499 19.1631 20.9595 19.1631 20.9692 19.1631C20.9788 19.1631 20.9884 19.1631 20.9981 19.1631C21.0077 19.1631 21.0173 19.1631 21.0269 19.1631C21.0365 19.1631 21.0461 19.1631 21.0557 19.1631C21.0653 19.1631 21.0749 19.1631 21.0845 19.1631C21.094 19.1631 21.1036 19.1631 21.1132 19.1631C21.1227 19.1631 21.1323 19.1631 21.1418 19.1631C21.1513 19.1631 21.1609 19.1631 21.1704 19.1631C21.1799 19.1631 21.1894 19.1631 21.1989 19.1631C21.2084 19.1631 21.2179 19.1631 21.2274 19.1631C21.2369 19.1631 21.2463 19.1631 21.2558 19.1631C21.2652 19.1631 21.2747 19.1631 21.2841 19.1631C21.2936 19.1631 21.303 19.1631 21.3124 19.1631C21.3219 19.1631 21.3313 19.1631 21.3407 19.1631C21.3501 19.1631 21.3595 19.1631 21.3689 19.1631C21.3783 19.1631 21.3876 19.1631 21.397 19.1631C21.4064 19.1631 21.4157 19.1631 21.4251 19.1631C21.4344 19.1631 21.4438 19.1631 21.4531 19.1631C21.4624 19.1631 21.4718 19.1631 21.4811 19.1631C21.4904 19.1631 21.4997 19.1631 21.509 19.1631C21.5183 19.1631 21.5275 19.1631 21.5368 19.1631C21.5461 19.1631 21.5553 19.1631 21.5646 19.1631C21.5739 19.1631 21.5831 19.1631 21.5923 19.1631C21.6016 19.1631 21.6108 19.1631 21.62 19.1631C21.6292 19.1631 21.6384 19.1631 21.6476 19.1631C21.6568 19.1631 21.666 19.1631 21.6752 19.1631C21.6843 19.1631 21.6935 19.1631 21.7026 19.1631C21.7118 19.1631 21.7209 19.1631 21.7301 19.1631C21.7392 19.1631 21.7483 19.1631 21.7574 19.1631C21.7666 19.1631 21.7757 19.1631 21.7848 19.1631C21.7938 19.1631 21.8029 19.1631 21.812 19.1631C21.8211 19.1631 21.8301 19.1631 21.8392 19.1631C21.8482 19.1631 21.8573 19.1631 21.8663 19.1631C21.8753 19.1631 21.8844 19.1631 21.8934 19.1631C21.9024 19.1631 21.9114 19.1631 21.9204 19.1631C21.9294 19.1631 21.9384 19.1631 21.9473 19.1631C21.9563 19.1631 21.9653 19.1631 21.9742 19.1631C21.9832 19.1631 21.9921 19.1631 22.001 19.1631C22.0099 19.1631 22.0189 19.1631 22.0278 19.1631C22.0367 19.1631 22.0456 19.1631 22.0545 19.1631C22.0633 19.1631 22.0722 19.1631 22.0811 19.1631C22.09 19.1631 22.0988 19.1631 22.1077 19.1631C22.1165 19.1631 22.1253 19.1631 22.1341 19.1631C22.143 19.1631 22.1518 19.1631 22.1606 19.1631C22.1694 19.1631 22.1782 19.1631 22.187 19.1631C22.1957 19.1631 22.2045 19.1631 22.2133 19.1631C22.222 19.1631 22.2308 19.1631 22.2395 19.1631C22.2482 19.1631 22.257 19.1631 22.2657 19.1631C22.2744 19.1631 22.2831 19.1631 22.2918 19.1631C22.3005 19.1631 22.3092 19.1631 22.3178 19.1631C22.3265 19.1631 22.3352 19.1631 22.3438 19.1631C22.3525 19.1631 22.3611 19.1631 22.3697 19.1631C22.3784 19.1631 22.387 19.1631 22.3956 19.1631C22.4042 19.1631 22.4128 19.1631 22.4214 19.1631C22.4299 19.1631 22.4385 19.1631 22.4471 19.1631C22.4556 19.1631 22.4642 19.1631 22.4727 19.1631C22.4812 19.1631 22.4898 19.1631 22.4983 19.1631C22.5068 19.1631 22.5153 19.1631 22.5238 19.1631C22.5323 19.1631 22.5408 19.1631 22.5492 19.1631C22.5577 19.1631 22.5662 19.1631 22.5746 19.1631C22.5831 19.1631 22.5915 19.1631 22.5999 19.1631C22.6083 19.1631 22.6168 19.1631 22.6252 19.1631C22.6336 19.1631 22.6419 19.1631 22.6503 19.1631C22.6587 19.1631 22.6671 19.1631 22.6754 19.1631C22.6838 19.1631 22.6921 19.1631 22.7005 19.1631C22.7088 19.1631 22.7171 19.1631 22.7254 19.1631C22.7337 19.1631 22.742 19.1631 22.7503 19.1631C22.7586 19.1631 22.7669 19.1631 22.7751 19.1631C22.7834 19.1631 22.7916 19.1631 22.7999 19.1631C22.8081 19.1631 22.8163 19.1631 22.8245 19.1631C22.8328 19.1631 22.841 19.1631 22.8491 19.1631C22.8573 19.1631 22.8655 19.1631 22.8737 19.1631C22.8818 19.1631 22.89 19.1631 22.8981 19.1631C22.9063 19.1631 22.9144 19.1631 22.9225 19.1631C22.9307 19.1631 22.9388 19.1631 22.9469 19.1631C22.955 19.1631 22.963 19.1631 22.9711 19.1631C22.9792 19.1631 22.9872 19.1631 22.9953 19.1631C23.0033 19.1631 23.0114 19.1631 23.0194 19.1631C23.0274 19.1631 23.0354 19.1631 23.0434 19.1631C23.0514 19.1631 23.0594 19.1631 23.0674 19.1631C23.0753 19.1631 23.0833 19.1631 23.0912 19.1631C23.0992 19.1631 23.1071 19.1631 23.115 19.1631C23.123 19.1631 23.1309 19.1631 23.1388 19.1631C23.1467 19.1631 23.1546 19.1631 23.1624 19.1631C23.1703 19.1631 23.1782 19.1631 23.186 19.1631C23.1939 19.1631 23.2017 19.1631 23.2095 19.1631C23.2174 19.1631 23.2252 19.1631 23.233 19.1631C23.2408 19.1631 23.2485 19.1631 23.2563 19.1631C23.2641 19.1631 23.2719 19.1631 23.2796 19.1631C23.2874 19.1631 23.2951 19.1631 23.3028 19.1631C23.3105 19.1631 23.3182 19.1631 23.3259 19.1631C23.3336 19.1631 23.3413 19.1631 23.349 19.1631C23.3567 19.1631 23.3643 19.1631 23.372 19.1631C23.3796 19.1631 23.3872 19.1631 23.3949 19.1631C23.4025 19.1631 23.4101 19.1631 23.4177 19.1631C23.4253 19.1631 23.4329 19.1631 23.4404 19.1631C23.448 19.1631 23.4556 19.1631 23.4631 19.1631C23.4706 19.1631 23.4782 19.1631 23.4857 19.1631C23.4932 19.1631 23.5007 19.1631 23.5082 19.1631C23.5157 19.1631 23.5232 19.1631 23.5306 19.1631C23.5381 19.1631 23.5455 19.1631 23.553 19.1631C23.5604 19.1631 23.5678 19.1631 23.5753 19.1631C23.5827 19.1631 23.5901 19.1631 23.5975 19.1631C23.6048 19.1631 23.6122 19.1631 23.6196 19.1631C23.6269 19.1631 23.6343 19.1631 23.6416 19.1631C23.6489 19.1631 23.6563 19.1631 23.6636 19.1631C23.6709 19.1631 23.6782 19.1631 23.6854 19.1631C23.6927 19.1631 23.7 19.1631 23.7072 19.1631C23.7145 19.1631 23.7217 19.1631 23.7289 19.1631C23.7362 19.1631 23.7434 19.1631 23.7506 19.1631C23.7578 19.1631 23.7649 19.1631 23.7721 19.1631C23.7793 19.1631 23.7864 19.1631 23.7936 19.1631C23.8007 19.1631 23.8079 19.1631 23.815 19.1631C23.8221 19.1631 23.8292 19.1631 23.8363 19.1631C23.8434 19.1631 23.8504 19.1631 23.8575 19.1631V16.1631ZM7.9525 16.1631C5.59267 16.1631 3.6848 16.636 2.20798 17.6194C0.711695 18.6158 -0.185237 20.0315 -0.702629 21.6123L2.14854 22.5454C2.50657 21.4515 3.05555 20.6593 3.87075 20.1165C4.70542 19.5607 5.97461 19.1631 7.9525 19.1631V16.1631ZM-0.70257 21.6121C-1.08713 22.7865 -1.28663 23.6894 -1.38992 24.3204C-1.44155 24.6357 -1.46909 24.8827 -1.4837 25.0613C-1.49101 25.1506 -1.49509 25.2227 -1.49733 25.2776C-1.49846 25.305 -1.49912 25.3282 -1.49951 25.347C-1.4997 25.3565 -1.49983 25.3648 -1.4999 25.3721C-1.49994 25.3757 -1.49996 25.3791 -1.49998 25.3822C-1.49999 25.3837 -1.49999 25.3852 -1.49999 25.3866C-1.5 25.3873 -1.5 25.388 -1.5 25.3887C-1.5 25.389 -1.5 25.3895 -1.5 25.3897C-1.5 25.3902 -1.5 25.3907 0 25.3907C1.5 25.3907 1.5 25.3911 1.5 25.3916C1.5 25.3918 1.5 25.3922 1.5 25.3925C1.5 25.3931 1.5 25.3937 1.5 25.3943C1.49999 25.3955 1.49999 25.3965 1.49998 25.3975C1.49997 25.3996 1.49996 25.4013 1.49994 25.4028C1.49991 25.4057 1.49988 25.4076 1.49986 25.4084C1.49983 25.41 1.49987 25.4073 1.50016 25.4003C1.50073 25.3862 1.50231 25.3548 1.5063 25.3061C1.51427 25.2086 1.53192 25.0417 1.57066 24.8051C1.6481 24.3321 1.81008 23.5791 2.14848 22.5456L-0.70257 21.6121Z" fill="#ADB6CD" mask="url(#path-1-inside-1_871_1994)"/>
<path d="M10.6864 11.6501L10.6865 11.6502C11.8345 12.9655 13.8645 13.6013 15.9051 13.6013C18.0231 13.6013 19.9723 12.9678 21.1239 11.65L10.6864 11.6501ZM10.6864 11.6501C10.2712 11.1746 9.94795 10.4416 9.73236 9.52851M10.6864 11.6501L9.73236 9.52851M9.73236 9.52851C9.51931 8.62628 9.42554 7.60868 9.42554 6.62366M9.73236 9.52851L9.42554 6.62366M9.42554 6.62366C9.42554 5.38533 9.60551 3.93245 10.4518 2.79612C11.2659 1.70308 12.816 0.75 15.9051 0.75C18.9283 0.75 20.495 1.91213 21.3395 3.15508C22.2179 4.44803 22.3846 5.93581 22.3846 6.62366C22.3846 7.6086 22.2907 8.62619 22.0776 9.52846M9.42554 6.62366L22.0776 9.52846M22.0776 9.52846C21.862 10.4413 21.5388 11.1743 21.1239 11.6499L22.0776 9.52846Z" stroke="#ADB6CD" stroke-width="1.5" stroke-linejoin="round"/>
</svg>
