<svg width="55" height="53" viewBox="0 0 55 53" fill="none" xmlns="http://www.w3.org/2000/svg">
<path d="M54.9983 38.9994V46.8411C55.0014 47.569 54.8437 48.2896 54.5351 48.9566C54.2266 49.6236 53.7741 50.2224 53.2065 50.7145C52.639 51.2066 51.969 51.5813 51.2394 51.8145C50.5099 52.0478 49.7368 52.1344 48.9698 52.0689C40.4602 51.1949 32.2862 48.4464 25.1045 44.0442C18.4228 40.031 12.758 34.6765 8.51218 28.3609C3.83862 21.5418 0.930164 13.778 0.0224458 5.69852C-0.0466598 4.9757 0.044223 4.24719 0.289307 3.55938C0.53439 2.87158 0.928305 2.23954 1.44597 1.70352C1.96364 1.16749 2.59371 0.739223 3.29608 0.445978C3.99845 0.152733 4.75773 0.000936899 5.52556 0.000253422H13.8217C15.1638 -0.0122317 16.4648 0.436978 17.4824 1.26415C18.5 2.09133 19.1647 3.24003 19.3525 4.49614C19.7026 7.00564 20.352 9.46965 21.2883 11.8412C21.6603 12.7767 21.7408 13.7935 21.5203 14.771C21.2997 15.7485 20.7873 16.6458 20.0438 17.3565L16.5318 20.6761C20.4685 27.2201 26.2008 32.6384 33.1241 36.3594L36.6361 33.0398C37.388 32.337 38.3373 31.8527 39.3714 31.6442C40.4056 31.4357 41.4813 31.5118 42.4711 31.8635C44.9801 32.7484 47.5869 33.3623 50.2418 33.6932C51.5852 33.8724 52.812 34.5119 53.689 35.4903C54.566 36.4686 55.0319 37.7175 54.9983 38.9994Z" fill="#ADB6CD"/>
</svg>
