<svg width="37" height="22" viewBox="0 0 37 22" fill="none" xmlns="http://www.w3.org/2000/svg">
<path fill-rule="evenodd" clip-rule="evenodd" d="M18.178 15.5943C20.6656 15.5943 22.6822 13.5777 22.6822 11.0901C22.6822 10.5046 22.5705 9.94514 22.3671 9.43194C22.139 9.60778 21.8531 9.71246 21.5428 9.71246C20.7965 9.71246 20.1915 9.10746 20.1915 8.36121C20.1915 7.95007 20.3751 7.5819 20.6647 7.33399C19.9522 6.86123 19.0972 6.58594 18.178 6.58594C15.6904 6.58594 13.6738 8.60245 13.6738 11.0901C13.6738 13.5777 15.6904 15.5943 18.178 15.5943ZM18.178 13.7926C19.6706 13.7926 20.8805 12.5826 20.8805 11.0901C20.8805 9.59751 19.6706 8.3876 18.178 8.3876C16.6854 8.3876 15.4755 9.59751 15.4755 11.0901C15.4755 12.5826 16.6854 13.7926 18.178 13.7926Z" fill="white"/>
<path fill-rule="evenodd" clip-rule="evenodd" d="M36.1944 11.0912C36.1944 11.0912 26.2853 0.28125 18.2252 0.28125C10.1652 0.28125 0.161133 11.0912 0.161133 11.0912C0.161133 11.0912 10.1652 21.9013 18.2252 21.9013C26.2853 21.9013 36.1944 11.0912 36.1944 11.0912ZM3.0929 10.7066C2.95144 10.8414 2.81811 10.9699 2.69338 11.0912C2.81811 11.2125 2.95144 11.3411 3.0929 11.4758C4.12488 12.4589 5.57874 13.7661 7.27005 15.0689C8.26773 15.8373 9.33611 16.5951 10.4389 17.2806C9.08082 15.5847 8.26863 13.4328 8.26863 11.0912C8.26863 8.74962 9.08082 6.59771 10.4389 4.9018C9.33611 5.58743 8.26773 6.34512 7.27005 7.11353C5.57874 8.41632 4.12488 9.72351 3.0929 10.7066ZM29.1282 15.0725C28.0979 15.8715 26.9911 16.6588 25.848 17.3654C27.2473 15.6567 28.0869 13.472 28.0869 11.0912C28.0869 8.71044 27.2473 6.52574 25.848 4.81704C26.9911 5.52356 28.0979 6.31089 29.1282 7.10993C30.8074 8.41208 32.2491 9.71874 33.272 10.7014C33.4143 10.8381 33.5483 10.9684 33.6735 11.0912C33.5483 11.214 33.4143 11.3443 33.272 11.481C32.2491 12.4637 30.8074 13.7703 29.1282 15.0725ZM18.1778 19.1988C22.6555 19.1988 26.2853 15.5688 26.2853 11.0912C26.2853 6.61357 22.6555 2.98375 18.1778 2.98375C13.7001 2.98375 10.0703 6.61357 10.0703 11.0912C10.0703 15.5688 13.7001 19.1988 18.1778 19.1988Z" fill="white"/>
</svg>
