<svg width="32" height="27" viewBox="0 0 32 27" fill="none" xmlns="http://www.w3.org/2000/svg">
<path d="M31 22.7428V26.0002H1V22.7428C1 21.7168 1.93912 20.5612 3.70247 19.4891C5.35194 18.4862 7.54406 17.6717 9.73238 17.2242C9.74244 17.2393 9.75303 17.2557 9.76432 17.2736C9.78859 17.3121 9.8125 17.3518 9.83959 17.3968L9.84285 17.4022C9.86774 17.4434 9.89632 17.4911 9.92509 17.5367L10.1732 17.9294H10.7059H14.2917H14.2919C15.1049 17.9293 15.5015 17.9293 15.9029 17.9294C16.2952 17.9295 16.6922 17.9295 17.4869 17.9294H17.487H21.0729H21.6055L21.8536 17.5367C21.9247 17.4241 22.0375 17.2879 22.1456 17.2012C22.1461 17.2007 22.1466 17.2004 22.1471 17.1999C24.3753 17.6418 26.6178 18.4679 28.2975 19.4891C30.0609 20.5612 31 21.7168 31 22.7428ZM9.63241 17.0944C9.63118 17.0934 9.63056 17.0928 9.63056 17.0928C9.63056 17.0927 9.63118 17.0932 9.63241 17.0944Z" stroke="#ADB6CD" stroke-width="1.5"/>
<path fill-rule="evenodd" clip-rule="evenodd" d="M8.941 23.0692C9.41606 23.0692 9.82336 22.7453 9.82336 22.3231C9.82336 21.9009 9.41606 21.577 8.941 21.577C8.46595 21.577 8.05865 21.9009 8.05865 22.3231C8.05865 22.7453 8.46595 23.0692 8.941 23.0692ZM8.941 24.529C10.403 24.529 11.5881 23.5414 11.5881 22.3231C11.5881 21.1048 10.403 20.1172 8.941 20.1172C7.47903 20.1172 6.29395 21.1048 6.29395 22.3231C6.29395 23.5414 7.47903 24.529 8.941 24.529Z" fill="#333333"/>
<path d="M23.0587 23.7937H21.2939V22.3231L22.1763 20.8525H25.7057L26.5881 22.3231V23.7937H24.8234" stroke="#ADB6CD" stroke-width="1.5" stroke-linejoin="round"/>
<path d="M23.9409 20.8528C24.3821 20.3625 24.8233 18.2792 24.3821 17.5439" stroke="#ADB6CD" stroke-width="1.5"/>
<path d="M8.68251 20.8528C8.24134 20.3625 7.80016 18.2792 8.24134 17.5439" stroke="#ADB6CD" stroke-width="1.5"/>
<path d="M23.9409 7.61765C23.9409 11.274 20.3874 14.2353 15.9998 14.2353C11.6121 14.2353 8.05859 11.274 8.05859 7.61765C8.05859 3.96125 11.6121 1 15.9998 1C20.3874 1 23.9409 3.96125 23.9409 7.61765Z" stroke="#ADB6CD" stroke-width="1.5"/>
</svg>
