<svg width="33" height="23" viewBox="0 0 33 23" fill="none" xmlns="http://www.w3.org/2000/svg">
<path d="M31.3544 22H1.64539C1.30296 22 1.02539 21.702 1.02539 21.3343V1.66567C1.02539 1.29802 1.30296 1 1.64539 1H31.3544C31.6969 1 31.9744 1.29802 31.9744 1.66567V21.3343C31.9744 21.702 31.6969 22 31.3544 22Z" stroke="#ADB6CD" stroke-width="1.5" stroke-miterlimit="10"/>
<path d="M31.38 7.49211H1.62C1.27757 7.49211 1 7.19409 1 6.82643V4.96255C1 4.5949 1.27757 4.29688 1.62 4.29688H31.38C31.7224 4.29688 32 4.5949 32 4.96255V6.82643C32 7.19409 31.7224 7.49211 31.38 7.49211Z" stroke="#ADB6CD" stroke-width="1.5" stroke-miterlimit="10"/>
<path d="M7.1988 18.675H5.9916C4.95961 18.675 4.11523 17.7684 4.11523 16.6604V15.3643C4.11523 14.2563 4.95961 13.3496 5.9916 13.3496H7.1988C8.23079 13.3496 9.07517 14.2562 9.07517 15.3643V16.6604C9.07523 17.7684 8.23086 18.675 7.1988 18.675Z" stroke="#ADB6CD" stroke-width="1.5" stroke-miterlimit="10" stroke-linecap="round" stroke-linejoin="round"/>
</svg>
